# This file uses centimeters as units for non-parametric coordinates.

mtllib Damaged Iron Nail.mtl
g default
v 0.016180 0.133388 -0.012571
v 0.006180 0.134998 -0.019656
v 0.006180 0.144749 -0.017441
v 0.016180 0.143140 -0.010356
v 0.020000 0.130784 -0.001108
v 0.020000 0.140535 0.001108
v 0.002307 0.130659 -0.007101
v 0.005866 0.130659 -0.004262
v -0.006180 0.134998 -0.019656
v -0.006180 0.144749 -0.017441
v 0.000000 0.140535 0.001108
v 0.016180 0.128179 0.010356
v 0.016180 0.137931 0.012571
v 0.006925 0.130659 0.000000
v 0.006925 0.130659 -0.003418
v 0.001580 0.130659 -0.007680
v -0.002214 0.130659 -0.006814
v -0.016180 0.133388 -0.012571
v -0.016180 0.143140 -0.010356
v 0.006180 0.126570 0.017441
v 0.006180 0.136321 0.019656
v 0.005866 0.130659 0.004262
v 0.006925 0.130659 0.003418
v -0.005084 0.130659 -0.006159
v -0.005964 0.130659 -0.004333
v -0.020000 0.130784 -0.001108
v -0.020000 0.140535 0.001108
v -0.006180 0.126570 0.017441
v -0.006180 0.136321 0.019656
v 0.002307 0.130659 0.007101
v -0.008050 0.130659 0.000000
v -0.016180 0.128179 0.010356
v -0.016180 0.137931 0.012571
v -0.002214 0.130659 0.006814
v 0.001580 0.130659 0.007680
v -0.005964 0.130659 0.004333
v -0.005084 0.130659 0.006159
v 0.000000 0.017006 0.000000
v 0.000913 0.068404 -0.014046
v -0.002903 0.067632 -0.013126
v 0.003912 0.066959 -0.011540
v -0.004432 0.065323 -0.009609
v 0.003765 0.064544 -0.007751
v -0.002710 0.063322 -0.006327
v 0.000838 0.062995 -0.005538
v 0.001346 0.108817 0.002995
v 0.005919 0.109401 0.006780
v 0.005912 0.109476 0.012748
v 0.001342 0.108987 0.016355
v -0.004306 0.108172 0.004264
v -0.006793 0.107948 0.009568
v -0.004296 0.108308 0.014923
vt 0.130949 0.174357
vt 0.213481 0.218157
vt 0.178046 0.284924
vt 0.095518 0.241126
vt 0.873857 0.567995
vt 0.956470 0.611624
vt 0.921162 0.678457
vt 0.838541 0.634825
vt 0.851633 0.114808
vt 0.882035 0.011401
vt 0.960417 0.068607
vt 0.879820 0.136482
vt 0.295999 0.261968
vt 0.260561 0.328734
vt 0.626513 0.250561
vt 0.548324 0.307369
vt 0.500000 0.158644
vt 0.791256 0.524353
vt 0.755930 0.591177
vt 0.990316 0.160875
vt 0.888206 0.169715
vt 0.888105 0.143047
vt 0.656378 0.158644
vt 0.784927 0.011550
vt 0.845782 0.110511
vt 0.816201 0.117301
vt 0.378506 0.305780
vt 0.343085 0.372556
vt 0.451676 0.307369
vt 0.708683 0.480677
vt 0.673334 0.547496
vt 0.961270 0.253707
vt 0.880776 0.202907
vt 0.889065 0.196362
vt 0.626513 0.066727
vt 0.706320 0.068611
vt 0.793739 0.122183
vt 0.785777 0.135849
vt 0.461027 0.349548
vt 0.425628 0.416335
vt 0.373487 0.250561
vt 0.626119 0.436987
vt 0.590754 0.503796
vt 0.882553 0.310728
vt 0.852312 0.224192
vt 0.548324 0.009920
vt 0.769121 0.169566
vt 0.676118 0.160941
vt 0.543569 0.393278
vt 0.508187 0.460076
vt 0.343622 0.158644
vt 0.785237 0.310242
vt 0.816561 0.221329
vt 0.846111 0.227963
vt 0.451676 0.009920
vt 0.785942 0.203122
vt 0.706247 0.253372
vt 0.373487 0.066727
vt 0.794103 0.216663
vt 0.042752 0.633911
vt 0.988300 0.928185
vt 0.026109 0.688259
vt 0.034424 0.665271
vt 0.075632 0.587284
vt 0.046967 0.627476
vt 0.069428 0.596692
vt 0.223383 0.344993
vt 0.194685 0.393733
vt 0.216264 0.360276
vt 0.109028 0.543099
vt 0.096000 0.567935
vt 0.163154 0.441149
vt 0.173299 0.427640
vt 0.136484 0.492727
vt 0.114466 0.533100
vt 0.132519 0.499402
vt 0.150504 0.462613
vt 0.575652 0.840018
vt 0.571013 0.872716
vt 0.675557 0.669501
vt 0.596850 0.812457
vt 0.670260 0.706034
vt 0.627194 0.790448
vt 0.665738 0.740246
vt 0.651154 0.767191
vt 0.227544 0.724006
vt 0.242733 0.678274
vt 0.261542 0.634920
vt 0.286392 0.594691
vt 0.213949 0.770525
vt 0.371698 0.478546
vt 0.342282 0.516462
vt 0.313002 0.554376
vn 0.587785 0.179238 -0.788912
vn 0.587785 0.179238 -0.788912
vn 0.587785 0.179238 -0.788912
vn 0.587785 0.179238 -0.788912
vn 0.951057 0.068463 -0.301337
vn 0.951057 0.068463 -0.301337
vn 0.951057 0.068463 -0.301337
vn 0.951057 0.068463 -0.301337
vn 0.048339 -0.955210 -0.291955
vn 0.037347 -0.953446 -0.299242
vn 0.067549 -0.971076 -0.229014
vn 0.068867 -0.970165 -0.232461
vn -0.000000 0.221550 -0.975149
vn -0.000000 0.221550 -0.975149
vn -0.000000 0.221550 -0.975149
vn -0.000000 0.221550 -0.975149
vn -0.000000 0.975149 0.221549
vn -0.000000 0.975149 0.221550
vn 0.000000 0.975149 0.221550
vn 0.951056 -0.068462 0.301338
vn 0.951056 -0.068462 0.301338
vn 0.951056 -0.068462 0.301338
vn 0.951056 -0.068462 0.301338
vn -0.000915 -0.983153 -0.182783
vn -0.007605 -0.983082 -0.183010
vn 0.049147 -0.982287 -0.180824
vn 0.000000 0.975149 0.221549
vn -0.040226 -0.952167 -0.302918
vn -0.005549 -0.944964 -0.327129
vn -0.039386 -0.952014 -0.303511
vn -0.587785 0.179238 -0.788912
vn -0.587785 0.179238 -0.788912
vn -0.587785 0.179238 -0.788912
vn -0.587785 0.179238 -0.788912
vn 0.000000 0.975149 0.221550
vn 0.587786 -0.179237 0.788912
vn 0.587786 -0.179237 0.788912
vn 0.587786 -0.179237 0.788912
vn 0.587786 -0.179237 0.788912
vn -0.080151 -0.968569 -0.235478
vn -0.085752 -0.964280 -0.250622
vn -0.061325 -0.980911 -0.184535
vn 0.000000 0.975149 0.221550
vn -0.065093 -0.970349 -0.232779
vn -0.077505 -0.957968 -0.276208
vn -0.062335 -0.972794 -0.223126
vn -0.951057 0.068463 -0.301338
vn -0.951057 0.068463 -0.301338
vn -0.951057 0.068463 -0.301338
vn -0.951057 0.068463 -0.301338
vn 0.000000 0.975149 0.221550
vn 0.000000 -0.221550 0.975149
vn 0.000000 -0.221550 0.975149
vn 0.000000 -0.221550 0.975149
vn 0.000000 -0.221550 0.975149
vn -0.049230 -0.942622 -0.330212
vn -0.058269 -0.944327 -0.323806
vn 0.000000 0.975149 0.221550
vn 0.007222 -0.983023 -0.183338
vn 0.000461 -0.983101 -0.183062
vn -0.951057 -0.068463 0.301337
vn -0.951057 -0.068463 0.301337
vn -0.951057 -0.068463 0.301337
vn -0.951057 -0.068463 0.301337
vn 0.000000 0.975149 0.221549
vn -0.587785 -0.179238 0.788912
vn -0.587785 -0.179238 0.788912
vn -0.587785 -0.179238 0.788912
vn -0.587785 -0.179238 0.788912
vn 0.052180 -0.940692 -0.335225
vn 0.047737 -0.939754 -0.338502
vn 0.006252 -0.929596 -0.368526
vn 0.000000 0.975149 0.221550
vn 0.078718 -0.967527 -0.240197
vn 0.078704 -0.967540 -0.240148
vn 0.000000 0.975149 0.221550
vn 0.096238 -0.948405 -0.302103
vn -0.178808 -0.424607 -0.887545
vn -0.244841 0.015993 -0.969431
vn -0.249255 0.066753 -0.966135
vn -0.178808 -0.424607 -0.887545
vn -0.178808 -0.424607 -0.887545
vn 0.599953 -0.362614 -0.713139
vn 0.652314 -0.004331 -0.757937
vn 0.652777 0.040302 -0.756478
vn 0.599953 -0.362614 -0.713139
vn 0.599953 -0.362614 -0.713139
vn 0.599953 -0.362614 -0.713139
vn -0.877915 -0.226202 -0.422016
vn -0.914765 -0.015906 -0.403673
vn -0.915036 -0.012224 -0.403188
vn -0.877915 -0.226202 -0.422016
vn -0.877915 -0.226202 -0.422016
vn 0.998889 -0.047109 0.000822
vn 0.998822 -0.048451 0.002792
vn 0.998821 -0.048464 0.002810
vn 0.998889 -0.047109 0.000822
vn 0.998890 -0.047109 0.000822
vn -0.897296 0.130786 0.421611
vn -0.907494 -0.090335 0.410237
vn -0.908214 -0.075446 0.411649
vn -0.897296 0.130786 0.421611
vn -0.897296 0.130786 0.421611
vn 0.583940 0.299893 0.754373
vn 0.647059 -0.128721 0.751496
vn 0.646450 -0.093652 0.757187
vn 0.583940 0.299893 0.754373
vn 0.583940 0.299893 0.754373
vn 0.583940 0.299893 0.754373
vn -0.236630 0.355268 0.904318
vn -0.228576 -0.149393 0.961995
vn -0.232349 -0.096138 0.967870
vn -0.236630 0.355268 0.904318
vn -0.236630 0.355268 0.904318
vn -0.243404 0.157341 -0.957078
vn -0.249196 0.212470 -0.944859
vn -0.177362 -0.256503 -0.950131
vn 0.629894 0.177274 -0.756180
vn 0.624317 0.101175 -0.774591
vn 0.557131 -0.228106 -0.798482
vn -0.904606 0.013454 -0.426036
vn -0.912935 0.079798 -0.400226
vn -0.855420 -0.175393 -0.487333
vn 0.998567 -0.053493 0.001713
vn 0.998162 -0.060564 -0.002048
vn 0.996626 -0.081049 -0.012952
vn -0.894891 -0.142708 0.422853
vn -0.894085 -0.187989 0.406538
vn -0.882214 0.012679 0.470678
vn 0.631158 -0.275485 0.725084
vn 0.626613 -0.208443 0.750938
vn 0.570615 0.087932 0.816497
vn -0.205906 -0.283087 0.936731
vn -0.205119 -0.301115 0.931266
vn -0.204789 0.120702 0.971335
s off
g Damaged_Iron_nail
usemtl initialShadingGroup
f 1/1/1 2/2/2 3/3/3 4/4/4
f 5/5/5 1/6/6 4/7/7 6/8/8
s 1
f 7/9/9 2/10/10 1/11/11 8/12/12
s off
f 2/2/13 9/13/14 10/14/15 3/3/16
s 2
f 4/15/17 3/16/18 11/17/19
s off
f 12/18/20 5/5/21 6/8/22 13/19/23
s 1
f 1/11/11 5/20/24 14/21/25 15/22/26 8/12/12
s 2
f 6/23/27 4/15/17 11/17/19
s 1
f 9/24/28 2/10/10 7/9/9 16/25/29 17/26/30
s off
f 9/13/31 18/27/32 19/28/33 10/14/34
s 2
f 3/16/18 10/29/35 11/17/19
s off
f 20/30/36 12/18/37 13/19/38 21/31/39
s 1
f 5/20/24 12/32/40 22/33/41 23/34/42 14/21/25
s 2
f 13/35/43 6/23/27 11/17/19
s 1
f 18/36/44 9/24/28 17/26/30 24/37/45 25/38/46
s off
f 18/27/47 26/39/48 27/40/49 19/28/50
s 2
f 10/29/35 19/41/51 11/17/19
s off
f 28/42/52 20/30/53 21/31/54 29/43/55
s 1
f 22/33/41 12/32/40 20/44/56 30/45/57
s 2
f 21/46/58 13/35/43 11/17/19
s 1
f 31/47/59 26/48/60 18/36/44 25/38/46
s off
f 26/39/61 32/49/62 33/50/63 27/40/64
s 2
f 19/41/51 27/51/65 11/17/19
s off
f 32/49/66 28/42/67 29/43/68 33/50/69
s 1
f 20/44/56 28/52/70 34/53/71 35/54/72 30/45/57
s 2
f 29/55/73 21/46/58 11/17/19
s 1
f 36/56/74 32/57/75 26/48/60 31/47/59
s 2
f 27/51/65 33/58/76 11/17/19
s 1
f 28/52/70 32/57/75 36/56/74 37/59/77 34/53/71
s 2
f 33/58/76 29/55/73 11/17/19
s 3
f 16/60/78 46/86/79 50/90/80 24/62/81 17/63/82
s 4
f 15/64/83 47/87/84 46/86/85 16/60/86 7/65/87 8/66/88
s 5
f 24/67/89 50/91/90 51/92/91 31/68/92 25/69/93
s 6
f 23/70/94 48/88/95 47/87/96 15/64/97 14/71/98
s 7
f 31/68/99 51/92/100 52/93/101 37/72/102 36/73/103
s 8
f 35/74/104 49/89/105 48/88/106 23/70/107 22/75/108 30/76/109
s 9
f 37/72/110 52/93/111 49/89/112 35/74/113 34/77/114
s 3
f 40/79/115 39/78/116 38/61/117
s 4
f 39/78/118 41/81/119 38/61/120
s 5
f 42/82/121 40/80/122 38/61/123
s 6
f 41/81/124 43/83/125 38/61/126
s 7
f 44/84/127 42/82/128 38/61/129
s 8
f 43/83/130 45/85/131 38/61/132
s 9
f 45/85/133 44/84/134 38/61/135
s 3
f 50/90/80 46/86/79 39/78/116 40/79/115
s 4
f 46/86/85 47/87/84 41/81/119 39/78/118
s 5
f 51/92/91 50/91/90 40/80/122 42/82/121
s 6
f 47/87/96 48/88/95 43/83/125 41/81/124
s 7
f 52/93/101 51/92/100 42/82/128 44/84/127
s 8
f 48/88/106 49/89/105 45/85/131 43/83/130
s 9
f 49/89/112 52/93/111 44/84/134 45/85/133
