# This file uses centimeters as units for non-parametric coordinates.

mtllib Iron Nail.mtl
g default
v 0.016180 0.130659 -0.011756
v 0.006180 0.130659 -0.019021
v 0.006180 0.140659 -0.019021
v 0.016180 0.140659 -0.011756
v 0.020000 0.130659 0.000000
v 0.020000 0.140659 0.000000
v 0.002307 0.130659 -0.007101
v 0.005866 0.130659 -0.004262
v -0.006180 0.130659 -0.019021
v -0.006180 0.140659 -0.019021
v 0.000000 0.140659 0.000000
v 0.016180 0.130659 0.011756
v 0.016180 0.140659 0.011756
v 0.006925 0.130659 0.000000
v 0.006925 0.130659 -0.003418
v 0.001580 0.130659 -0.007680
v -0.002214 0.130659 -0.006814
v -0.016180 0.130659 -0.011756
v -0.016180 0.140659 -0.011756
v 0.006180 0.130659 0.019021
v 0.006180 0.140659 0.019021
v 0.005866 0.130659 0.004262
v 0.006925 0.130659 0.003418
v -0.005084 0.130659 -0.006159
v -0.005964 0.130659 -0.004333
v -0.020000 0.130659 0.000000
v -0.020000 0.140659 0.000000
v -0.006180 0.130659 0.019021
v -0.006180 0.140659 0.019021
v 0.002307 0.130659 0.007101
v -0.008050 0.130659 0.000000
v -0.016180 0.130659 0.011756
v -0.016180 0.140659 0.011756
v -0.002214 0.130659 0.006814
v 0.001580 0.130659 0.007680
v -0.005964 0.130659 0.004333
v -0.005084 0.130659 0.006159
v 0.000000 0.017006 0.000000
vt 0.063596 0.084994
vt 0.156363 0.149741
vt 0.103981 0.224791
vt 0.011215 0.160043
vt 0.898511 0.667690
vt 0.991282 0.732430
vt 0.938907 0.807484
vt 0.846135 0.742744
vt 0.846701 0.096860
vt 0.876862 0.003407
vt 0.955482 0.060294
vt 0.874582 0.119177
vt 0.249129 0.214488
vt 0.196748 0.289538
vt 0.636294 0.260939
vt 0.554495 0.316506
vt 0.509885 0.162847
vt 0.805739 0.602950
vt 0.753363 0.678004
vt 0.985652 0.152615
vt 0.882915 0.152728
vt 0.882903 0.125813
vt 0.669809 0.167904
vt 0.779821 0.003717
vt 0.841023 0.092522
vt 0.811274 0.099455
vt 0.341896 0.279235
vt 0.289515 0.354285
vt 0.455657 0.313381
vt 0.712969 0.538210
vt 0.660592 0.613263
vt 0.955730 0.245052
vt 0.874630 0.186306
vt 0.882945 0.179649
vt 0.642238 0.072937
vt 0.701467 0.061041
vt 0.788734 0.104697
vt 0.781861 0.119065
vt 0.434663 0.343981
vt 0.382283 0.419031
vt 0.377532 0.252758
vt 0.620199 0.473468
vt 0.567821 0.548520
vt 0.877258 0.302158
vt 0.846754 0.208667
vt 0.564113 0.012313
vt 0.765536 0.153147
vt 0.671803 0.153405
vt 0.527430 0.408725
vt 0.475051 0.483777
vt 0.349961 0.157791
vt 0.780382 0.302217
vt 0.811321 0.206528
vt 0.841063 0.213234
vt 0.465275 0.009189
vt 0.781946 0.187121
vt 0.701989 0.245463
vt 0.383476 0.064756
vt 0.788848 0.201424
vt 0.038182 0.690449
vt 0.985685 0.985216
vt 0.022123 0.747785
vt 0.029039 0.723092
vt 0.057662 0.634143
vt 0.040855 0.682761
vt 0.053809 0.645288
vt 0.202761 0.375438
vt 0.167569 0.423466
vt 0.192326 0.389678
vt 0.080388 0.579114
vt 0.069025 0.606629
vt 0.135387 0.473559
vt 0.144929 0.458707
vt 0.106311 0.525516
vt 0.085522 0.568499
vt 0.102785 0.532805
vt 0.122865 0.495936
vn 0.587785 0.000000 -0.809017
vn 0.587785 0.000000 -0.809017
vn 0.587785 0.000000 -0.809017
vn 0.587785 0.000000 -0.809017
vn 0.951057 0.000000 -0.309017
vn 0.951057 0.000000 -0.309017
vn 0.951057 0.000000 -0.309017
vn 0.951057 0.000000 -0.309017
vn 0.000000 -1.000000 0.000000
vn 0.000000 -1.000000 0.000000
vn 0.000000 -1.000000 0.000000
vn 0.000000 -1.000000 0.000000
vn -0.000000 0.000000 -1.000000
vn -0.000000 0.000000 -1.000000
vn -0.000000 0.000000 -1.000000
vn -0.000000 0.000000 -1.000000
vn 0.000000 1.000000 0.000000
vn 0.000000 1.000000 -0.000000
vn 0.000000 1.000000 0.000000
vn 0.951057 0.000000 0.309017
vn 0.951057 0.000000 0.309017
vn 0.951057 0.000000 0.309017
vn 0.951057 0.000000 0.309017
vn 0.000000 -1.000000 0.000001
vn 0.000000 -1.000000 0.000001
vn 0.000000 -1.000000 0.000000
vn 0.000000 1.000000 0.000000
vn 0.000000 -1.000000 0.000000
vn 0.000000 -1.000000 0.000000
vn 0.000000 -1.000000 0.000000
vn -0.587785 0.000000 -0.809017
vn -0.587785 0.000000 -0.809017
vn -0.587785 0.000000 -0.809017
vn -0.587785 0.000000 -0.809017
vn 0.000000 1.000000 -0.000000
vn 0.587786 0.000000 0.809017
vn 0.587786 0.000000 0.809017
vn 0.587786 0.000000 0.809017
vn 0.587786 0.000000 0.809017
vn 0.000000 -1.000000 0.000000
vn 0.000000 -1.000000 0.000000
vn 0.000000 -1.000000 0.000001
vn 0.000000 1.000000 0.000000
vn 0.000000 -1.000000 -0.000000
vn 0.000000 -1.000000 0.000000
vn 0.000000 -1.000000 -0.000000
vn -0.951057 0.000000 -0.309017
vn -0.951057 0.000000 -0.309017
vn -0.951057 0.000000 -0.309017
vn -0.951057 0.000000 -0.309017
vn 0.000000 1.000000 0.000000
vn 0.000000 0.000000 1.000000
vn 0.000000 0.000000 1.000000
vn 0.000000 0.000000 1.000000
vn 0.000000 0.000000 1.000000
vn 0.000000 -1.000000 -0.000000
vn 0.000000 -1.000000 -0.000000
vn 0.000000 1.000000 0.000000
vn 0.000000 -1.000000 -0.000001
vn 0.000000 -1.000000 -0.000001
vn -0.951057 0.000000 0.309017
vn -0.951057 0.000000 0.309017
vn -0.951057 0.000000 0.309017
vn -0.951057 0.000000 0.309017
vn 0.000000 1.000000 0.000001
vn -0.587785 0.000000 0.809017
vn -0.587785 0.000000 0.809017
vn -0.587785 0.000000 0.809017
vn -0.587785 0.000000 0.809017
vn 0.000000 -1.000000 0.000000
vn 0.000000 -1.000000 0.000000
vn 0.000000 -1.000000 0.000000
vn 0.000000 1.000000 0.000000
vn 0.000000 -1.000000 -0.000000
vn 0.000000 -1.000000 -0.000000
vn 0.000000 1.000000 0.000001
vn 0.000000 -1.000000 0.000000
vn -0.222084 -0.062663 -0.973012
vn -0.222084 -0.062663 -0.973012
vn -0.222084 -0.062663 -0.973012
vn -0.222084 -0.062663 -0.973012
vn 0.622314 -0.061385 -0.780357
vn 0.622314 -0.061385 -0.780357
vn 0.622314 -0.061385 -0.780357
vn 0.622314 -0.061385 -0.780357
vn 0.622314 -0.061385 -0.780357
vn -0.899140 -0.063688 -0.433003
vn -0.899140 -0.063688 -0.433003
vn -0.899140 -0.063688 -0.433003
vn -0.899140 -0.063688 -0.433003
vn 0.998149 -0.060816 0.000000
vn 0.998149 -0.060816 0.000000
vn 0.998149 -0.060816 0.000000
vn 0.998149 -0.060816 0.000000
vn -0.899140 -0.063688 0.433003
vn -0.899140 -0.063688 0.433003
vn -0.899140 -0.063688 0.433003
vn -0.899140 -0.063688 0.433003
vn 0.622314 -0.061385 0.780357
vn 0.622314 -0.061385 0.780357
vn 0.622314 -0.061385 0.780357
vn 0.622314 -0.061385 0.780357
vn 0.622314 -0.061385 0.780357
vn -0.222084 -0.062663 0.973012
vn -0.222084 -0.062663 0.973012
vn -0.222084 -0.062663 0.973012
vn -0.222084 -0.062663 0.973012
s off
g Iron_nail
usemtl initialShadingGroup
f 1/1/1 2/2/2 3/3/3 4/4/4
f 5/5/5 1/6/6 4/7/7 6/8/8
s 1
f 7/9/9 2/10/10 1/11/11 8/12/12
s off
f 2/2/13 9/13/14 10/14/15 3/3/16
s 2
f 4/15/17 3/16/18 11/17/19
s off
f 12/18/20 5/5/21 6/8/22 13/19/23
s 1
f 1/11/11 5/20/24 14/21/25 15/22/26 8/12/12
s 2
f 6/23/27 4/15/17 11/17/19
s 1
f 9/24/28 2/10/10 7/9/9 16/25/29 17/26/30
s off
f 9/13/31 18/27/32 19/28/33 10/14/34
s 2
f 3/16/18 10/29/35 11/17/19
s off
f 20/30/36 12/18/37 13/19/38 21/31/39
s 1
f 5/20/24 12/32/40 22/33/41 23/34/42 14/21/25
s 2
f 13/35/43 6/23/27 11/17/19
s 1
f 18/36/44 9/24/28 17/26/30 24/37/45 25/38/46
s off
f 18/27/47 26/39/48 27/40/49 19/28/50
s 2
f 10/29/35 19/41/51 11/17/19
s off
f 28/42/52 20/30/53 21/31/54 29/43/55
s 1
f 22/33/41 12/32/40 20/44/56 30/45/57
s 2
f 21/46/58 13/35/43 11/17/19
s 1
f 31/47/59 26/48/60 18/36/44 25/38/46
s off
f 26/39/61 32/49/62 33/50/63 27/40/64
s 2
f 19/41/51 27/51/65 11/17/19
s off
f 32/49/66 28/42/67 29/43/68 33/50/69
s 1
f 20/44/56 28/52/70 34/53/71 35/54/72 30/45/57
s 2
f 29/55/73 21/46/58 11/17/19
s 1
f 36/56/74 32/57/75 26/48/60 31/47/59
s 2
f 27/51/65 33/58/76 11/17/19
s 1
f 28/52/70 32/57/75 36/56/74 37/59/77 34/53/71
s 2
f 33/58/76 29/55/73 11/17/19
s off
f 16/60/78 38/61/79 24/62/80 17/63/81
f 15/64/82 38/61/83 16/60/84 7/65/85 8/66/86
f 24/67/87 38/61/88 31/68/89 25/69/90
f 23/70/91 38/61/92 15/64/93 14/71/94
f 31/68/95 38/61/96 37/72/97 36/73/98
f 35/74/99 38/61/100 23/70/101 22/75/102 30/76/103
f 37/72/104 38/61/105 35/74/106 34/77/107
