# This file uses centimeters as units for non-parametric coordinates.

mtllib Wood Plank 1.mtl
g default
v -1.250000 -0.091333 0.017811
v -0.416667 -0.124112 0.043417
v 0.416667 -0.124112 0.043417
v 1.274600 -0.147418 0.043417
v -1.222193 -0.045644 0.024393
v -0.416667 -0.050000 0.066640
v 0.416667 -0.050000 0.050000
v 1.250000 -0.073306 0.050000
v -1.222193 0.048780 0.021328
v -0.416667 0.050000 0.050000
v 0.416667 0.050000 0.050000
v 1.250000 0.026694 0.050000
v -1.250000 0.143204 0.021328
v -0.416667 0.132310 0.050000
v 0.416667 0.166366 0.050000
v 1.271433 0.126694 0.050000
v -1.250000 0.196294 0.000000
v -0.416667 0.188535 0.000000
v 0.416667 0.222592 0.000000
v 1.250000 0.182920 0.000000
v -1.250000 0.130090 -0.050000
v -0.416667 0.120767 -0.050000
v 0.416667 0.154824 -0.050000
v 1.250000 0.115152 -0.050000
v -1.277551 0.048780 -0.067779
v -0.416667 0.050000 -0.063997
v 0.416667 0.050000 -0.060559
v 1.272756 0.026694 -0.060559
v -1.277551 -0.045644 -0.051099
v -0.416667 -0.050000 -0.042181
v 0.416667 -0.050000 -0.042181
v 1.272756 -0.073306 -0.042181
v -1.250000 -0.140068 -0.050000
v -0.416667 -0.150000 -0.050000
v 0.416667 -0.127582 -0.050000
v 1.250082 -0.173306 -0.050000
v -1.250000 -0.140068 0.000000
v -0.416667 -0.171564 0.000000
v 0.416667 -0.171564 0.000000
v 1.253660 -0.173306 0.000000
v 1.271999 -0.073306 0.000000
v 1.271999 0.026694 0.000000
v -1.274883 -0.045644 0.000000
v -1.274883 0.048780 0.000000
v 0.508192 -0.124112 0.043417
v 0.508192 -0.159174 0.000000
v 0.508201 -0.131988 -0.050000
v 0.510691 -0.050000 -0.042181
v 0.510691 0.050000 -0.060559
v 0.508192 0.153026 -0.050000
v 0.508192 0.204528 0.000000
v 0.508192 0.164569 0.050000
v 0.508192 0.050000 0.050000
v 0.508192 -0.050000 0.050000
v 0.325479 -0.124112 0.043417
v 0.325479 -0.159174 0.000000
v 0.325479 -0.131988 -0.050000
v 0.325479 -0.050000 -0.042181
v 0.325479 0.050000 -0.060559
v 0.325479 0.151097 -0.050000
v 0.325479 0.202599 0.000000
v 0.325479 0.162640 0.050000
v 0.325479 0.050000 0.050000
v 0.325479 -0.050000 0.050000
vt 0.268443 0.052679
vt 0.500303 0.280252
vt 0.725476 0.517295
vt 0.951161 0.767054
vt 0.263020 0.072966
vt 0.478458 0.301193
vt 0.704164 0.536593
vt 0.923113 0.779298
vt 0.236021 0.097944
vt 0.449645 0.328303
vt 0.675612 0.562426
vt 0.892878 0.805005
vt 0.201717 0.114909
vt 0.426257 0.350415
vt 0.643256 0.591766
vt 0.867530 0.836150
vt 0.185179 0.129773
vt 0.404532 0.370333
vt 0.623794 0.609601
vt 0.839835 0.849007
vt 0.161520 0.151692
vt 0.380094 0.392502
vt 0.601903 0.629392
vt 0.815929 0.871577
vt 0.130510 0.165836
vt 0.359155 0.411400
vt 0.572741 0.656040
vt 0.797014 0.902039
vt 0.103219 0.191226
vt 0.329576 0.438199
vt 0.544048 0.682341
vt 0.768413 0.929526
vt 0.083574 0.224038
vt 0.300626 0.464322
vt 0.522065 0.702460
vt 0.734104 0.950304
vt 0.069156 0.237067
vt 0.285012 0.478556
vt 0.503682 0.719115
vt 0.720401 0.964209
vt 0.053581 0.249874
vt 0.266308 0.495125
vt 0.485734 0.735295
vt 0.710848 0.983261
vt 0.981106 0.791208
vt 0.970119 0.775244
vt 0.946553 0.809063
vt 0.936654 0.796068
vt 0.923643 0.838451
vt 0.907307 0.821176
vt 0.897495 0.860685
vt 0.865980 0.866277
vt 0.265954 0.019428
vt 0.277737 0.035063
vt 0.234880 0.042116
vt 0.247685 0.057153
vt 0.203272 0.062509
vt 0.221189 0.081647
vt 0.184379 0.091021
vt 0.181247 0.123082
vt 0.749957 0.544579
vt 0.511523 0.760020
vt 0.527900 0.745562
vt 0.544569 0.730717
vt 0.568733 0.709515
vt 0.597645 0.682601
vt 0.626279 0.654404
vt 0.646712 0.635132
vt 0.665548 0.618602
vt 0.698967 0.589276
vt 0.728120 0.563590
vt 0.700756 0.490507
vt 0.463765 0.707199
vt 0.479903 0.692501
vt 0.496330 0.677420
vt 0.520193 0.655922
vt 0.549581 0.629395
vt 0.579202 0.602988
vt 0.600430 0.584228
vt 0.618883 0.566941
vt 0.651058 0.536903
vt 0.679600 0.510338
vn -0.045476 -0.231229 0.971836
vn -0.015587 -0.213289 0.976865
vn -0.016629 -0.033831 0.999289
vn -0.045072 -0.053835 0.997532
vn 0.009977 -0.037856 0.999233
vn 0.009810 -0.185512 0.982593
vn 0.000000 -0.088472 0.996079
vn 0.000000 -0.037780 0.999286
vn -0.001028 -0.037399 0.999300
vn -0.002454 -0.088876 0.996040
vn -0.002748 -0.088924 0.996035
vn -0.001332 -0.043112 0.999069
vn -0.017275 0.046111 0.998787
vn -0.039161 0.045513 0.998196
vn 0.005005 0.037145 0.999297
vn 0.000000 0.000000 1.000000
vn 0.000000 0.000000 1.000000
vn -0.000000 0.000000 1.000000
vn -0.017357 -0.002731 0.999846
vn -0.035001 -0.005507 0.999372
vn 0.000000 0.000000 1.000000
vn 0.000000 0.000000 1.000000
vn 0.000000 0.000000 1.000000
vn -0.000000 0.000000 1.000000
vn -0.008292 0.546435 0.837461
vn -0.014840 0.635264 0.772153
vn -0.015313 0.991582 -0.128572
vn -0.000327 0.989727 -0.142968
vn -0.041527 0.992523 -0.114778
vn -0.029216 0.720412 0.692931
vn -0.008037 0.720696 0.693204
vn -0.009816 0.993859 -0.110221
vn 0.047587 0.992635 -0.111404
vn 0.033854 0.723037 0.689979
vn 0.028594 0.723480 0.689753
vn 0.039737 0.998857 -0.026566
vn -0.005264 0.618322 -0.785907
vn 0.006131 0.598152 -0.801359
vn -0.026018 0.642269 -0.766037
vn -0.007193 0.642470 -0.766277
vn 0.030436 0.642189 -0.765942
vn 0.025751 0.642274 -0.766043
vn 0.003161 0.203982 -0.978970
vn 0.001286 0.172859 -0.984946
vn 0.003244 -0.031134 -0.999510
vn 0.005572 -0.043653 -0.999031
vn 0.000727 -0.041619 -0.999133
vn -0.000796 0.136187 -0.990683
vn -0.000522 0.101545 -0.994831
vn -0.000271 -0.038890 -0.999244
vn -0.000456 -0.037446 -0.999299
vn 0.004039 0.109048 -0.994028
vn 0.004483 0.110202 -0.993899
vn -0.001252 -0.056701 -0.998390
vn 0.003712 -0.073587 -0.997282
vn 0.006342 -0.093976 -0.995554
vn 0.000532 -0.063580 -0.997977
vn 0.000000 -0.059091 -0.998253
vn -0.001022 -0.057585 -0.998340
vn -0.001464 -0.063313 -0.997993
vn 0.002593 0.057961 -0.998316
vn 0.005558 0.035331 -0.999360
vn -0.001162 0.086730 -0.996231
vn -0.000000 0.097520 -0.995234
vn 0.003530 0.086290 -0.996264
vn 0.003657 0.085115 -0.996364
vn -0.024290 -0.977243 -0.210729
vn -0.003275 -0.945635 -0.325213
vn -0.011089 -0.953276 0.301896
vn -0.035629 -0.903658 0.426770
vn 0.006813 -0.986126 0.165858
vn 0.011846 -0.889866 -0.456068
vn 0.000001 -0.814739 -0.579828
vn 0.000006 -0.998334 0.057701
vn -0.021352 -0.984840 0.172148
vn -0.026813 -0.952015 -0.304876
vn -0.035964 -0.964675 -0.260976
vn -0.029639 -0.969066 0.245016
vn -0.014629 -0.632206 0.774662
vn -0.033651 -0.536683 0.843113
vn 0.000000 -0.724914 0.688839
vn 0.000000 -0.724914 0.688839
vn -0.011822 -0.805962 0.591850
vn -0.020207 -0.816033 0.577652
vn 0.992897 -0.117441 -0.019045
vn 0.979405 -0.199671 -0.029967
vn 0.995740 -0.092009 -0.005948
vn 0.992545 -0.042537 0.114219
vn 0.999355 0.035883 0.001383
vn 0.967863 0.014308 0.251070
vn 0.992701 0.107219 -0.055224
vn 0.996061 0.054663 0.069820
vn 0.980073 0.001187 0.198632
vn 0.977354 0.183330 -0.105681
vn 0.994722 0.090672 -0.048037
vn 0.999974 0.002210 0.006903
vn -0.963277 -0.267305 0.025419
vn -0.961313 -0.249745 0.116208
vn -0.891152 -0.082825 0.446082
vn -0.992566 -0.116051 0.036665
vn -0.611120 -0.024414 0.791161
vn -0.446667 0.006386 0.894678
vn -0.910544 0.088670 0.403791
vn -0.991337 0.126044 -0.036923
vn -0.492652 0.006325 0.870203
vn -0.971573 0.182453 0.150853
vn -0.967255 0.229981 -0.107364
vn -0.633845 -0.007662 0.773422
s 1
g pCube1
usemtl initialShadingGroup
f 1/1/1 2/2/2 6/6/3 5/5/4
f 64/82/5 55/72/6 3/3/7 7/7/8
f 54/71/9 45/61/10 4/4/11 8/8/12
f 5/5/4 6/6/3 10/10/13 9/9/14
f 63/81/15 64/82/5 7/7/8 11/11/16
f 53/70/17 54/71/9 8/8/12 12/12/18
f 9/9/14 10/10/13 14/14/19 13/13/20
f 62/80/21 63/81/15 11/11/16 15/15/22
f 52/69/23 53/70/17 12/12/18 16/16/24
s 2
f 13/13/25 14/14/26 18/18/27 17/17/28
f 61/79/29 62/80/30 15/15/31 19/19/32
f 51/68/33 52/69/34 16/16/35 20/20/36
f 17/17/28 18/18/27 22/22/37 21/21/38
f 60/78/39 61/79/29 19/19/32 23/23/40
f 50/67/41 51/68/33 20/20/36 24/24/42
s 3
f 21/21/43 22/22/44 26/26/45 25/25/46
f 59/77/47 60/78/48 23/23/49 27/27/50
f 49/66/51 50/67/52 24/24/53 28/28/54
f 25/25/46 26/26/45 30/30/55 29/29/56
f 58/76/57 59/77/47 27/27/50 31/31/58
f 48/65/59 49/66/51 28/28/54 32/32/60
f 29/29/56 30/30/55 34/34/61 33/33/62
f 57/75/63 58/76/57 31/31/58 35/35/64
f 47/64/65 48/65/59 32/32/60 36/36/66
s 4
f 33/33/67 34/34/68 38/38/69 37/37/70
f 56/74/71 57/75/72 35/35/73 39/39/74
f 46/63/75 47/64/76 36/36/77 40/40/78
f 37/37/70 38/38/69 2/42/79 1/41/80
f 55/73/81 56/74/71 39/39/74 3/43/82
f 45/62/83 46/63/75 40/40/78 4/44/84
s 5
f 40/46/85 36/45/86 32/47/87 41/48/88
f 4/4/89 40/46/85 41/48/88 8/8/90
f 41/48/88 32/47/87 28/49/91 42/50/92
f 8/8/90 41/48/88 42/50/92 12/12/93
f 42/50/92 28/49/91 24/51/94 20/52/95
f 12/12/93 42/50/92 20/52/95 16/16/96
s 6
f 33/53/97 37/54/98 43/56/99 29/55/100
f 37/54/98 1/1/101 5/5/102 43/56/99
f 29/55/100 43/56/99 44/58/103 25/57/104
f 43/56/99 5/5/102 9/9/105 44/58/103
f 25/57/104 44/58/103 17/60/106 21/59/107
f 44/58/103 9/9/105 13/13/108 17/60/106
s 4
f 39/39/74 46/63/75 45/62/83 3/43/82
f 35/35/73 47/64/76 46/63/75 39/39/74
s 3
f 31/31/58 48/65/59 47/64/65 35/35/64
f 27/27/50 49/66/51 48/65/59 31/31/58
f 23/23/49 50/67/52 49/66/51 27/27/50
s 2
f 19/19/32 51/68/33 50/67/41 23/23/40
f 15/15/31 52/69/34 51/68/33 19/19/32
s 1
f 11/11/16 53/70/17 52/69/23 15/15/22
f 7/7/8 54/71/9 53/70/17 11/11/16
f 3/3/7 45/61/10 54/71/9 7/7/8
s 4
f 38/38/69 56/74/71 55/73/81 2/42/79
f 34/34/68 57/75/72 56/74/71 38/38/69
s 3
f 30/30/55 58/76/57 57/75/63 34/34/61
f 26/26/45 59/77/47 58/76/57 30/30/55
f 22/22/44 60/78/48 59/77/47 26/26/45
s 2
f 18/18/27 61/79/29 60/78/39 22/22/37
f 14/14/26 62/80/30 61/79/29 18/18/27
s 1
f 10/10/13 63/81/15 62/80/21 14/14/19
f 6/6/3 64/82/5 63/81/15 10/10/13
f 2/2/2 55/72/6 64/82/5 6/6/3
