# This file uses centimeters as units for non-parametric coordinates.

mtllib Wood Plank 2.mtl
g default
v 1.250000 0.091333 0.017811
v 0.414825 0.135200 0.044435
v -0.416667 0.114916 0.040500
v -1.274600 0.147418 0.043417
v 1.222193 0.045644 0.024393
v 0.413781 0.054891 0.069578
v -0.416667 0.045244 0.046688
v -1.250000 0.073306 0.050000
v 1.220720 -0.048780 0.052268
v 0.414529 -0.053471 0.051562
v -0.416667 -0.048766 0.046688
v -1.250000 -0.026694 0.050000
v 1.248504 -0.143204 0.053421
v 0.414529 -0.142664 0.051562
v -0.416667 -0.158161 0.046688
v -1.271433 -0.126694 0.050000
v 1.249388 -0.196294 0.032112
v 0.416777 -0.203591 -0.002572
v -0.416667 -0.211019 -0.000316
v -1.250000 -0.182920 0.000000
v 1.251463 -0.130090 -0.017845
v 0.419025 -0.130156 -0.056707
v -0.439218 -0.124865 -0.047321
v -1.250000 -0.115152 -0.050000
v 1.279727 -0.048780 -0.034466
v 0.419654 -0.053471 -0.071861
v -0.416667 -0.048766 -0.057247
v -1.272756 -0.026694 -0.060559
v 1.279035 0.045644 -0.017800
v 0.418674 0.054891 -0.048241
v -0.416667 0.045244 -0.039970
v -1.272756 0.073306 -0.042181
v 1.250000 0.140068 -0.050000
v 0.419025 0.163252 -0.056707
v -0.416667 0.123751 -0.047321
v -1.250082 0.173306 -0.050000
v 1.250000 0.140068 0.000000
v 0.416777 0.186619 -0.002572
v -0.416667 0.159525 -0.000316
v -1.253660 0.173306 0.000000
v -1.271999 0.073306 0.000000
v -1.271999 -0.026694 0.000000
v 1.274883 0.045644 0.000000
v 1.274883 -0.048780 0.000000
v -0.508109 0.134114 0.046635
v -0.508109 0.161712 0.000349
v -0.508119 0.161712 -0.052955
v -0.510773 0.055105 -0.044619
v -0.510773 -0.051502 -0.064211
v -0.508109 -0.161335 -0.052955
v -0.508109 -0.216240 0.000349
v -0.508109 -0.173641 0.053652
v -0.508109 -0.051502 0.053652
v -0.508109 0.055105 0.053652
v -0.326669 0.134060 0.027719
v -0.324749 0.161660 -0.018530
v -0.322537 0.161660 -0.071791
v -0.322883 0.055046 -0.063462
v -0.322070 -0.051568 -0.083039
v -0.322537 -0.159351 -0.071791
v -0.324749 -0.214259 -0.018530
v -0.326960 -0.171657 0.034731
v -0.326960 -0.051568 0.034731
v -0.326960 0.055046 0.034731
v 0.653264 0.111730 0.035135
v 0.653264 0.158309 -0.000492
v 0.655208 0.142924 -0.041823
v 0.662175 0.046925 -0.036237
v 0.663001 -0.049073 -0.056140
v 0.655208 -0.120791 -0.041823
v 0.653186 -0.186426 0.006862
v 0.651475 -0.132450 0.048069
v 0.644222 -0.049073 0.047767
v 0.643696 0.046925 0.060429
vt 0.254463 0.038536
vt 0.490203 0.268785
vt 0.712720 0.516207
vt 0.945539 0.771197
vt 0.247414 0.058766
vt 0.466403 0.292339
vt 0.692082 0.534992
vt 0.916958 0.784005
vt 0.219030 0.086029
vt 0.435043 0.322337
vt 0.663983 0.560207
vt 0.885611 0.810260
vt 0.183520 0.102175
vt 0.409876 0.346682
vt 0.630972 0.590019
vt 0.858735 0.841729
vt 0.166107 0.116843
vt 0.386510 0.368293
vt 0.608888 0.609429
vt 0.830014 0.854782
vt 0.141420 0.138738
vt 0.359405 0.391310
vt 0.583087 0.644215
vt 0.805413 0.878153
vt 0.109276 0.152285
vt 0.336207 0.411218
vt 0.553790 0.660060
vt 0.786043 0.909559
vt 0.080623 0.177440
vt 0.303713 0.439924
vt 0.524238 0.687270
vt 0.756673 0.937897
vt 0.058629 0.212418
vt 0.271948 0.468180
vt 0.498924 0.710128
vt 0.721454 0.959331
vt 0.043767 0.225643
vt 0.254590 0.483647
vt 0.480610 0.727679
vt 0.707856 0.974071
vt 0.027753 0.238786
vt 0.233676 0.501668
vt 0.462705 0.744784
vt 0.698728 0.993925
vt 0.976689 0.796270
vt 0.965146 0.779826
vt 0.940868 0.814654
vt 0.930558 0.801278
vt 0.916838 0.845065
vt 0.900154 0.826941
vt 0.889506 0.867650
vt 0.856821 0.872817
vt 0.258102 0.004382
vt 0.267173 0.022173
vt 0.228963 0.033993
vt 0.232903 0.040175
vt 0.194289 0.049929
vt 0.202159 0.061421
vt 0.170420 0.075255
vt 0.161329 0.107062
vt 0.743590 0.538939
vt 0.486936 0.771842
vt 0.502759 0.757577
vt 0.518286 0.743948
vt 0.548437 0.715658
vt 0.579730 0.686419
vt 0.610763 0.656582
vt 0.632630 0.636519
vt 0.652622 0.619089
vt 0.688221 0.587517
vt 0.719834 0.559645
vt 0.693327 0.484063
vt 0.439976 0.716773
vt 0.454253 0.701221
vt 0.467358 0.685517
vt 0.498062 0.659562
vt 0.528509 0.630756
vt 0.559484 0.602543
vt 0.582531 0.583637
vt 0.603412 0.566624
vt 0.638864 0.534429
vt 0.670268 0.505697
vt 0.415652 0.209866
vt 0.182542 0.418923
vt 0.201384 0.404857
vt 0.214518 0.392697
vt 0.242193 0.364470
vt 0.272493 0.338031
vt 0.296943 0.320386
vt 0.322278 0.298212
vt 0.343024 0.279653
vt 0.369681 0.258420
vt 0.398269 0.231858
vn 0.037465 0.117805 0.992330
vn 0.051964 0.281927 0.958028
vn -0.013409 0.226655 0.973883
vn -0.017671 0.043142 0.998913
vn -0.018411 0.038143 0.999103
vn -0.020559 0.188596 0.981840
vn 0.103536 0.087858 0.990738
vn 0.103762 0.034586 0.994001
vn 0.004883 0.037564 0.999282
vn 0.005453 0.088080 0.996098
vn -0.002698 0.088042 0.996113
vn -0.003852 0.042549 0.999087
vn 0.013848 0.008200 0.999871
vn -0.017867 -0.050280 0.998575
vn -0.011174 -0.037896 0.999219
vn 0.103822 -0.000000 0.994596
vn 0.004005 0.000221 0.999992
vn -0.004873 0.000254 0.999988
vn -0.002110 0.005460 0.999983
vn -0.015134 0.000474 0.999885
vn -0.005585 0.000000 0.999985
vn 0.103607 -0.000000 0.994618
vn 0.003667 0.000417 0.999993
vn -0.004831 0.000466 0.999988
vn 0.028433 -0.989586 -0.141110
vn -0.011817 -0.550105 0.835012
vn 0.009598 -0.700698 0.713393
vn 0.040967 -0.991859 -0.120575
vn -0.001729 -0.990670 -0.136272
vn 0.008932 -0.720277 0.693630
vn 0.080600 -0.721725 0.687471
vn -0.028725 -0.979547 -0.199157
vn -0.027735 -0.992780 -0.116698
vn -0.024469 -0.726317 0.686925
vn -0.040549 -0.726190 0.686298
vn -0.055650 -0.998016 -0.029463
vn 0.038412 -0.598061 -0.800529
vn 0.043869 -0.630167 -0.775219
vn -0.005248 -0.637793 -0.770190
vn -0.059725 -0.583258 -0.810088
vn -0.010725 -0.634409 -0.772923
vn -0.035835 -0.643721 -0.764421
vn 0.042165 0.019496 -0.998920
vn 0.045268 -0.203619 -0.978003
vn 0.029744 -0.153105 -0.987762
vn 0.028931 0.040849 -0.998746
vn -0.012336 0.042461 -0.999022
vn -0.009876 -0.135352 -0.990748
vn -0.062111 -0.104849 -0.992547
vn -0.114795 0.049692 -0.992146
vn 0.004541 0.037482 -0.999287
vn -0.001452 -0.111542 -0.993759
vn -0.009586 -0.110565 -0.993823
vn -0.003471 0.056611 -0.998390
vn 0.030224 0.019387 -0.999355
vn 0.027718 0.063795 -0.997578
vn -0.008872 0.059803 -0.998171
vn -0.098262 0.062829 -0.993175
vn 0.003459 0.053965 -0.998537
vn -0.001757 0.061514 -0.998105
vn 0.022134 -0.152302 -0.988086
vn 0.027532 -0.075445 -0.996770
vn 0.001327 -0.078408 -0.996921
vn -0.099793 -0.084018 -0.991455
vn -0.002093 -0.077927 -0.996957
vn -0.005107 -0.077332 -0.996992
vn 0.056682 0.897944 0.436445
vn 0.043974 0.972717 -0.227789
vn 0.015476 0.967910 -0.250821
vn 0.007151 0.961829 0.273558
vn -0.038387 0.965639 0.257037
vn -0.037030 0.973737 -0.224644
vn -0.047148 0.939776 -0.338524
vn 0.028546 0.977002 0.211309
vn 0.032653 0.964139 0.263382
vn 0.037628 0.998630 -0.036351
vn 0.015587 0.999878 0.000539
vn 0.014567 0.951983 0.305804
vn 0.044879 0.538415 0.841484
vn -0.000066 0.735288 0.677755
vn -0.022193 0.764030 0.644799
vn 0.068713 0.767879 0.636899
vn 0.024995 0.847849 0.529648
vn 0.012907 0.857507 0.514310
vn -0.992897 0.117441 -0.019045
vn -0.979405 0.199671 -0.029967
vn -0.995740 0.092009 -0.005948
vn -0.992545 0.042537 0.114219
vn -0.999355 -0.035883 0.001383
vn -0.967863 -0.014308 0.251070
vn -0.992701 -0.107219 -0.055224
vn -0.996061 -0.054663 0.069820
vn -0.980073 -0.001187 0.198632
vn -0.977354 -0.183330 -0.105681
vn -0.994722 -0.090672 -0.048037
vn -0.999974 -0.002210 0.006903
vn 0.957237 0.283301 0.058628
vn 0.949363 0.254920 0.183648
vn 0.819297 0.132818 0.557775
vn 0.981053 0.161902 0.106411
vn 0.611120 0.024414 0.791161
vn 0.585278 0.098419 0.804838
vn 0.888154 -0.006243 0.459503
vn 0.986856 -0.161430 -0.007455
vn 0.710978 0.101451 0.695857
vn 0.935662 -0.031779 0.351464
vn 0.960809 -0.250854 -0.117975
vn 0.826110 0.084422 0.557150
vn 0.027818 0.871529 0.489554
vn 0.028123 0.488839 0.871921
vn 0.016389 0.986031 -0.165755
vn 0.021641 0.019847 -0.999569
vn 0.007649 -0.193241 -0.981122
vn 0.033943 0.036531 -0.998756
vn 0.035276 -0.206018 -0.977912
vn 0.000194 -0.988299 -0.152526
vn 0.023397 -0.599380 -0.800122
vn -0.030849 -0.504552 0.862830
vn 0.008579 0.041203 0.999114
vn -0.008337 0.006539 0.999944
vn 0.037197 0.163598 0.985826
vn 0.048593 0.261656 0.963937
s 1
g Woodplank_2
usemtl initialShadingGroup
f 74/93/1 65/83/2 2/2/3 6/6/4
f 64/82/5 55/72/6 3/3/7 7/7/8
f 54/71/9 45/61/10 4/4/11 8/8/12
f 73/92/13 74/93/1 6/6/4 10/10/14
f 63/81/15 64/82/5 7/7/8 11/11/16
f 53/70/17 54/71/9 8/8/12 12/12/18
f 72/91/19 73/92/13 10/10/14 14/14/20
f 62/80/21 63/81/15 11/11/16 15/15/22
f 52/69/23 53/70/17 12/12/18 16/16/24
s 2
f 71/90/25 72/91/26 14/14/27 18/18/28
f 61/79/29 62/80/30 15/15/31 19/19/32
f 51/68/33 52/69/34 16/16/35 20/20/36
f 70/89/37 71/90/25 18/18/28 22/22/38
f 60/78/39 61/79/29 19/19/32 23/23/40
f 50/67/41 51/68/33 20/20/36 24/24/42
s 3
f 69/88/43 70/89/44 22/22/45 26/26/46
f 59/77/47 60/78/48 23/23/49 27/27/50
f 49/66/51 50/67/52 24/24/53 28/28/54
f 68/87/55 69/88/43 26/26/46 30/30/56
f 58/76/57 59/77/47 27/27/50 31/31/58
f 48/65/59 49/66/51 28/28/54 32/32/60
f 67/86/61 68/87/55 30/30/56 34/34/62
f 57/75/63 58/76/57 31/31/58 35/35/64
f 47/64/65 48/65/59 32/32/60 36/36/66
s 4
f 66/85/67 67/86/68 34/34/69 38/38/70
f 56/74/71 57/75/72 35/35/73 39/39/74
f 46/63/75 47/64/76 36/36/77 40/40/78
f 65/84/79 66/85/67 38/38/70 2/42/80
f 55/73/81 56/74/71 39/39/74 3/43/82
f 45/62/83 46/63/75 40/40/78 4/44/84
s 5
f 40/46/85 36/45/86 32/47/87 41/48/88
f 4/4/89 40/46/85 41/48/88 8/8/90
f 41/48/88 32/47/87 28/49/91 42/50/92
f 8/8/90 41/48/88 42/50/92 12/12/93
f 42/50/92 28/49/91 24/51/94 20/52/95
f 12/12/93 42/50/92 20/52/95 16/16/96
s 6
f 33/53/97 37/54/98 43/56/99 29/55/100
f 37/54/98 1/1/101 5/5/102 43/56/99
f 29/55/100 43/56/99 44/58/103 25/57/104
f 43/56/99 5/5/102 9/9/105 44/58/103
f 25/57/104 44/58/103 17/60/106 21/59/107
f 44/58/103 9/9/105 13/13/108 17/60/106
s 4
f 39/39/74 46/63/75 45/62/83 3/43/82
f 35/35/73 47/64/76 46/63/75 39/39/74
s 3
f 31/31/58 48/65/59 47/64/65 35/35/64
f 27/27/50 49/66/51 48/65/59 31/31/58
f 23/23/49 50/67/52 49/66/51 27/27/50
s 2
f 19/19/32 51/68/33 50/67/41 23/23/40
f 15/15/31 52/69/34 51/68/33 19/19/32
s 1
f 11/11/16 53/70/17 52/69/23 15/15/22
f 7/7/8 54/71/9 53/70/17 11/11/16
f 3/3/7 45/61/10 54/71/9 7/7/8
s 4
f 38/38/70 56/74/71 55/73/81 2/42/80
f 34/34/69 57/75/72 56/74/71 38/38/70
s 3
f 30/30/56 58/76/57 57/75/63 34/34/62
f 26/26/46 59/77/47 58/76/57 30/30/56
f 22/22/45 60/78/48 59/77/47 26/26/46
s 2
f 18/18/28 61/79/29 60/78/39 22/22/38
f 14/14/27 62/80/30 61/79/29 18/18/28
s 1
f 10/10/14 63/81/15 62/80/21 14/14/20
f 6/6/4 64/82/5 63/81/15 10/10/14
f 2/2/3 55/72/6 64/82/5 6/6/4
s 4
f 37/37/109 66/85/67 65/84/79 1/41/110
f 33/33/111 67/86/68 66/85/67 37/37/109
s 3
f 29/29/112 68/87/55 67/86/61 33/33/113
f 25/25/114 69/88/43 68/87/55 29/29/112
f 21/21/115 70/89/44 69/88/43 25/25/114
s 2
f 17/17/116 71/90/25 70/89/37 21/21/117
f 13/13/118 72/91/26 71/90/25 17/17/116
s 1
f 9/9/119 73/92/13 72/91/19 13/13/120
f 5/5/121 74/93/1 73/92/13 9/9/119
f 1/1/122 65/83/2 74/93/1 5/5/121
