# This file uses centimeters as units for non-parametric coordinates.

mtllib Elfenbankje.mtl
g default
v 0.973542 0.121835 -0.260689
v 0.882064 0.070574 -0.513951
v 0.705747 -0.084816 -0.665836
v 0.503228 -0.134864 -0.811500
v 0.287437 -0.058866 -0.942242
v 0.040791 0.085351 -0.981288
v -0.228208 0.062704 -0.910783
v -0.443894 0.124847 -0.865610
v -0.655724 -0.009572 -0.772725
v -0.818046 -0.033168 -0.587786
v -0.931440 -0.052760 -0.368125
v -0.988313 -0.260143 -0.125334
v -0.983871 -0.270922 0.125333
v -0.916565 -0.081025 0.368124
v -0.802085 -0.075149 0.587785
v -0.622375 -0.143631 0.770513
v -0.428427 -0.064498 0.904827
v -0.187381 0.111730 0.982287
v 0.062790 0.033907 0.998027
v 0.309017 -0.115337 0.951057
v 0.535827 -0.138735 0.844328
v 0.728969 -0.140642 0.684547
v 0.876307 -0.094251 0.481754
v 0.964844 -0.211920 0.257282
v 1.001303 0.094304 0.018883
v 1.080508 0.134059 -0.305811
v 0.972407 0.050360 -0.570421
v 0.782069 -0.118912 -0.748387
v 0.558171 -0.146141 -0.909360
v 0.314926 -0.084481 -1.043545
v 0.048397 0.088702 -1.100195
v -0.248717 0.074605 -1.022807
v -0.488545 0.135506 -0.970520
v -0.737412 -0.011161 -0.852194
v -0.915740 -0.011866 -0.649768
v -1.041091 -0.039672 -0.406944
v -1.123136 -0.270334 -0.138550
v -1.122025 -0.267797 0.138549
v -1.033493 -0.078272 0.364665
v -0.918460 -0.013508 0.607490
v -0.703078 -0.118962 0.851764
v -0.473728 0.006011 1.000242
v -0.207557 0.181248 1.085870
v 0.068996 0.080353 1.103270
v 0.341187 -0.065619 1.051346
v 0.591914 -0.079888 0.933363
v 0.805423 -0.085167 0.756733
v 0.968298 -0.019567 0.532555
v 1.068942 -0.172618 0.277907
v 1.113461 0.124884 -0.001744
v 0.992281 0.206294 -0.301943
v 0.900802 0.150504 -0.555205
v 0.724486 -0.021756 -0.707090
v 0.521967 -0.045718 -0.852754
v 0.306175 0.055797 -0.983495
v 0.059979 0.169193 -1.023531
v -0.209470 0.166838 -0.952036
v -0.429876 0.224739 -0.907979
v -0.690537 0.061291 -0.772089
v -0.852438 0.058941 -0.587786
v -0.965831 0.041140 -0.368125
v -1.022704 -0.162207 -0.125334
v -1.018263 -0.169767 0.125333
v -0.954456 0.006913 0.368124
v -0.838928 0.021860 0.587785
v -0.654876 -0.058288 0.770513
v -0.433166 0.039177 0.904827
v -0.187381 0.209754 0.982287
v 0.062790 0.137449 0.998027
v 0.309017 -0.015337 0.951057
v 0.535827 -0.042487 0.844328
v 0.728969 -0.040642 0.684547
v 0.876307 0.007638 0.481754
v 0.967823 -0.112152 0.251160
v 1.020041 0.191063 -0.022370
v 0.000000 -0.050000 0.000000
v 0.000000 0.050000 0.000000
vt 0.723839 0.158953
vt 0.704814 0.112238
vt 0.664390 0.080117
vt 0.625890 0.053429
vt 0.584237 0.028497
vt 0.532159 0.018664
vt 0.483188 0.034344
vt 0.441079 0.039406
vt 0.396973 0.061489
vt 0.366549 0.095582
vt 0.344154 0.135576
vt 0.324508 0.191902
vt 0.324301 0.238312
vt 0.344114 0.292767
vt 0.364932 0.333601
vt 0.398100 0.369714
vt 0.435563 0.396448
vt 0.488198 0.417400
vt 0.536522 0.418825
vt 0.589098 0.408894
vt 0.631439 0.389862
vt 0.668027 0.361484
vt 0.697052 0.324412
vt 0.720209 0.280655
vt 0.730074 0.210432
vt 0.096528 0.110527
vt 0.136815 0.142405
vt 0.185466 0.166807
vt 0.224574 0.198959
vt 0.258231 0.239631
vt 0.288903 0.287597
vt 0.326587 0.326956
vt 0.349176 0.365013
vt 0.384333 0.404284
vt 0.409725 0.447237
vt 0.432951 0.488048
vt 0.478800 0.528848
vt 0.504913 0.569763
vt 0.525612 0.620206
vt 0.559941 0.633739
vt 0.595908 0.617165
vt 0.628118 0.596632
vt 0.652654 0.554209
vt 0.649192 0.504528
vt 0.649213 0.443485
vt 0.676378 0.395864
vt 0.723613 0.367181
vt 0.780190 0.366945
vt 0.836172 0.374068
vt 0.889698 0.431034
vt 0.930234 0.465711
vt 0.083334 0.127331
vt 0.126639 0.159206
vt 0.174277 0.184762
vt 0.211209 0.214608
vt 0.242031 0.251597
vt 0.270732 0.299184
vt 0.309641 0.338462
vt 0.333341 0.378566
vt 0.369926 0.418466
vt 0.391439 0.458991
vt 0.416207 0.501891
vt 0.459400 0.545269
vt 0.483586 0.583076
vt 0.507089 0.630422
vt 0.550707 0.656677
vt 0.605501 0.637869
vt 0.647612 0.610215
vt 0.675116 0.560385
vt 0.670139 0.508978
vt 0.667571 0.454008
vt 0.689789 0.411694
vt 0.730207 0.385281
vt 0.778402 0.390464
vt 0.830660 0.393245
vt 0.879509 0.450170
vt 0.922262 0.485828
vt 0.071871 0.144929
vt 0.111652 0.176458
vt 0.159871 0.201325
vt 0.195663 0.231453
vt 0.224837 0.273585
vt 0.255918 0.313544
vt 0.290164 0.350419
vt 0.311709 0.385473
vt 0.351897 0.430362
vt 0.374507 0.470985
vt 0.396947 0.511102
vt 0.435923 0.558540
vt 0.466232 0.601073
vt 0.505459 0.651975
vt 0.555173 0.670924
vt 0.612226 0.656858
vt 0.662458 0.621893
vt 0.693517 0.565241
vt 0.692376 0.513899
vt 0.688093 0.462539
vt 0.704481 0.426066
vt 0.736879 0.406063
vt 0.777112 0.411189
vt 0.823483 0.414612
vt 0.870936 0.470043
vt 0.910376 0.503238
vt 0.458133 0.668592
vt 0.437799 0.617236
vt 0.405333 0.572550
vt 0.362774 0.537342
vt 0.312796 0.513824
vt 0.258539 0.503474
vt 0.203413 0.506943
vt 0.150881 0.524011
vt 0.104245 0.553607
vt 0.066434 0.593872
vt 0.039824 0.642275
vt 0.026088 0.695775
vt 0.026088 0.751010
vt 0.039824 0.804509
vt 0.066434 0.852912
vt 0.104245 0.893177
vt 0.150881 0.922773
vt 0.203413 0.939842
vt 0.258539 0.943310
vt 0.312796 0.932960
vt 0.362774 0.909442
vt 0.405333 0.874234
vt 0.437799 0.829548
vt 0.458133 0.778192
vt 0.465055 0.723392
vt 0.527109 0.217920
vt 0.244703 0.714578
vn 0.129678 -0.990127 0.053218
vn 0.143565 -0.905504 0.399315
vn 0.846276 -0.284393 -0.450485
vn 0.964544 -0.179443 -0.193533
vn 0.112490 -0.899624 0.421926
vn 0.680159 -0.552054 -0.482307
vn -0.151037 -0.976670 0.152654
vn 0.454161 -0.511749 -0.729281
vn -0.430042 -0.902517 0.022961
vn 0.150680 -0.433668 -0.888385
vn -0.236149 -0.971028 -0.036586
vn -0.088266 -0.192742 -0.977271
vn -0.098821 -0.993999 -0.046915
vn -0.221317 -0.427148 -0.876678
vn 0.078710 -0.980124 -0.182103
vn -0.443018 0.000657 -0.896512
vn 0.208779 -0.952636 -0.221123
vn -0.507716 -0.324460 -0.798092
vn -0.063611 -0.990602 -0.121088
vn -0.774360 -0.257680 -0.577900
vn 0.037089 -0.893553 -0.447422
vn -0.916939 -0.138800 -0.374108
vn 0.084503 -0.924576 -0.371509
vn -0.820601 -0.466149 -0.330634
vn 0.016426 -0.939016 0.343480
vn -0.828250 -0.455832 0.325914
vn -0.130854 -0.887670 0.441496
vn -0.881405 -0.202237 0.426878
vn -0.350327 -0.932357 0.089338
vn -0.815175 -0.147440 0.560135
vn -0.171789 -0.945182 0.277704
vn -0.640883 -0.359067 0.678484
vn 0.181224 -0.805526 0.564168
vn -0.352315 -0.072058 0.933104
vn 0.033692 -0.821509 0.569199
vn -0.244685 0.260957 0.933826
vn -0.347984 -0.823684 0.447719
vn 0.109874 0.042014 0.993057
vn -0.111091 -0.879894 0.462002
vn 0.233372 -0.130180 0.963634
vn 0.220329 -0.884480 0.411279
vn 0.534082 -0.016271 0.845276
vn 0.416730 -0.866799 0.273854
vn 0.735477 -0.079944 0.672817
vn 0.397096 -0.836269 0.378112
vn 0.882732 0.215795 0.417393
vn 0.306689 -0.941145 -0.142083
vn 0.910906 -0.412407 -0.013054
vn 0.208518 -0.826190 -0.523384
vn 0.938954 0.059583 0.338845
vn 0.515446 0.575682 -0.634749
vn 0.640001 0.728875 -0.243188
vn 0.377733 0.500415 -0.779039
vn 0.510371 0.494396 -0.703630
vn 0.475584 0.464094 -0.747287
vn 0.102708 0.607718 -0.787483
vn -0.122817 0.641679 -0.757076
vn -0.278277 0.692652 -0.665428
vn -0.551920 0.741538 -0.381453
vn -0.560472 0.760656 -0.327527
vn -0.714739 0.698295 0.039160
vn -0.734802 0.652279 0.186008
vn -0.705490 0.693096 -0.147992
vn -0.643365 0.765214 -0.022989
vn -0.350437 0.841176 0.411846
vn -0.368124 0.852706 0.370645
vn -0.552827 0.824192 0.122841
vn -0.179398 0.950547 0.253529
vn 0.387931 0.850652 0.354824
vn 0.399752 0.858102 0.322272
vn 0.233671 0.925331 0.298597
vn 0.187867 0.930404 0.314729
vn 0.340749 0.939639 0.031134
vn 0.397628 0.839002 0.371440
vn 0.489754 0.801654 0.342772
vn 0.281467 -0.921727 0.266827
vn 0.175697 -0.984418 0.007254
vn 0.042682 -0.996925 -0.065721
vn 0.260548 -0.909569 0.323726
vn -0.095885 -0.994396 0.044530
vn -0.397460 -0.910675 -0.112679
vn -0.249508 -0.957832 -0.142488
vn -0.106267 -0.989708 -0.095844
vn 0.119136 -0.959594 -0.254925
vn 0.217448 -0.947583 -0.234099
vn 0.037630 -0.996012 -0.080893
vn 0.155771 -0.908689 -0.387324
vn 0.237626 -0.900807 -0.363430
vn 0.244403 -0.926954 0.284648
vn 0.164795 -0.928760 0.332036
vn -0.053944 -0.991778 -0.116047
vn 0.080429 -0.995188 -0.055968
vn 0.428771 -0.883451 0.188863
vn 0.154081 -0.969800 0.189067
vn -0.406559 -0.907923 0.101910
vn -0.328784 -0.943470 0.042012
vn -0.089954 -0.994814 -0.047464
vn -0.005091 -0.992026 -0.125934
vn -0.108981 -0.988218 0.107463
vn -0.052421 -0.921984 -0.383664
vn 0.131137 -0.841322 -0.524386
vn -0.167977 0.984886 -0.042222
vn -0.289854 0.906790 -0.306132
vn -0.043512 0.996855 0.066236
vn -0.234851 0.913106 -0.333291
vn 0.184568 0.982816 0.002656
vn 0.381154 0.916150 0.124058
vn 0.228642 0.965346 0.125815
vn 0.133710 0.986771 0.091682
vn -0.138992 0.958165 0.250201
vn -0.210778 0.956330 0.202500
vn -0.016188 0.999121 0.038675
vn -0.153649 0.911644 0.381179
vn -0.231377 0.906489 0.353190
vn -0.234953 0.932825 -0.273193
vn -0.167797 0.930299 -0.326170
vn 0.050724 0.991494 0.119864
vn -0.083884 0.994124 0.068420
vn -0.420500 0.887026 -0.190694
vn -0.153726 0.970235 -0.187118
vn 0.402968 0.909169 -0.105016
vn 0.340313 0.939184 -0.046053
vn 0.091886 0.994482 0.050622
vn -0.002584 0.990982 0.133969
vn 0.106695 0.988501 -0.107155
vn 0.062172 0.930440 0.361131
vn -0.110658 0.874940 0.471418
s 1
g Elfenbankje
usemtl initialShadingGroup
f 1/26/1 2/27/2 27/53/3 26/52/4
f 2/27/2 3/28/5 28/54/6 27/53/3
f 3/28/5 4/29/7 29/55/8 28/54/6
f 4/29/7 5/30/9 30/56/10 29/55/8
f 5/30/9 6/31/11 31/57/12 30/56/10
f 6/31/11 7/32/13 32/58/14 31/57/12
f 7/32/13 8/33/15 33/59/16 32/58/14
f 8/33/15 9/34/17 34/60/18 33/59/16
f 9/34/17 10/35/19 35/61/20 34/60/18
f 10/35/19 11/36/21 36/62/22 35/61/20
f 11/36/21 12/37/23 37/63/24 36/62/22
f 12/37/23 13/38/25 38/64/26 37/63/24
f 13/38/25 14/39/27 39/65/28 38/64/26
f 14/39/27 15/40/29 40/66/30 39/65/28
f 15/40/29 16/41/31 41/67/32 40/66/30
f 16/41/31 17/42/33 42/68/34 41/67/32
f 17/42/33 18/43/35 43/69/36 42/68/34
f 18/43/35 19/44/37 44/70/38 43/69/36
f 19/44/37 20/45/39 45/71/40 44/70/38
f 20/45/39 21/46/41 46/72/42 45/71/40
f 21/46/41 22/47/43 47/73/44 46/72/42
f 22/47/43 23/48/45 48/74/46 47/73/44
f 23/48/45 24/49/47 49/75/48 48/74/46
f 24/49/47 25/50/49 50/76/50 49/75/48
f 25/50/49 1/51/1 26/77/4 50/76/50
f 26/52/4 27/53/3 52/79/51 51/78/52
f 27/53/3 28/54/6 53/80/53 52/79/51
f 28/54/6 29/55/8 54/81/54 53/80/53
f 29/55/8 30/56/10 55/82/55 54/81/54
f 30/56/10 31/57/12 56/83/56 55/82/55
f 31/57/12 32/58/14 57/84/57 56/83/56
f 32/58/14 33/59/16 58/85/58 57/84/57
f 33/59/16 34/60/18 59/86/59 58/85/58
f 34/60/18 35/61/20 60/87/60 59/86/59
f 35/61/20 36/62/22 61/88/61 60/87/60
f 36/62/22 37/63/24 62/89/62 61/88/61
f 37/63/24 38/64/26 63/90/63 62/89/62
f 38/64/26 39/65/28 64/91/64 63/90/63
f 39/65/28 40/66/30 65/92/65 64/91/64
f 40/66/30 41/67/32 66/93/66 65/92/65
f 41/67/32 42/68/34 67/94/67 66/93/66
f 42/68/34 43/69/36 68/95/68 67/94/67
f 43/69/36 44/70/38 69/96/69 68/95/68
f 44/70/38 45/71/40 70/97/70 69/96/69
f 45/71/40 46/72/42 71/98/71 70/97/70
f 46/72/42 47/73/44 72/99/72 71/98/71
f 47/73/44 48/74/46 73/100/73 72/99/72
f 48/74/46 49/75/48 74/101/74 73/100/73
f 49/75/48 50/76/50 75/102/75 74/101/74
f 50/76/50 26/77/4 51/103/52 75/102/75
s 2
f 2/2/76 1/1/77 76/129/78
f 3/3/79 2/2/76 76/129/78
f 4/4/80 3/3/79 76/129/78
f 5/5/81 4/4/80 76/129/78
f 6/6/82 5/5/81 76/129/78
f 7/7/83 6/6/82 76/129/78
f 8/8/84 7/7/83 76/129/78
f 9/9/85 8/8/84 76/129/78
f 10/10/86 9/9/85 76/129/78
f 11/11/87 10/10/86 76/129/78
f 12/12/88 11/11/87 76/129/78
f 13/13/89 12/12/88 76/129/78
f 14/14/90 13/13/89 76/129/78
f 15/15/91 14/14/90 76/129/78
f 16/16/92 15/15/91 76/129/78
f 17/17/93 16/16/92 76/129/78
f 18/18/94 17/17/93 76/129/78
f 19/19/95 18/18/94 76/129/78
f 20/20/96 19/19/95 76/129/78
f 21/21/97 20/20/96 76/129/78
f 22/22/98 21/21/97 76/129/78
f 23/23/99 22/22/98 76/129/78
f 24/24/100 23/23/99 76/129/78
f 25/25/101 24/24/100 76/129/78
f 1/1/77 25/25/101 76/129/78
s 3
f 51/127/102 52/126/103 77/130/104
f 52/126/103 53/125/105 77/130/104
f 53/125/105 54/124/106 77/130/104
f 54/124/106 55/123/107 77/130/104
f 55/123/107 56/122/108 77/130/104
f 56/122/108 57/121/109 77/130/104
f 57/121/109 58/120/110 77/130/104
f 58/120/110 59/119/111 77/130/104
f 59/119/111 60/118/112 77/130/104
f 60/118/112 61/117/113 77/130/104
f 61/117/113 62/116/114 77/130/104
f 62/116/114 63/115/115 77/130/104
f 63/115/115 64/114/116 77/130/104
f 64/114/116 65/113/117 77/130/104
f 65/113/117 66/112/118 77/130/104
f 66/112/118 67/111/119 77/130/104
f 67/111/119 68/110/120 77/130/104
f 68/110/120 69/109/121 77/130/104
f 69/109/121 70/108/122 77/130/104
f 70/108/122 71/107/123 77/130/104
f 71/107/123 72/106/124 77/130/104
f 72/106/124 73/105/125 77/130/104
f 73/105/125 74/104/126 77/130/104
f 74/104/126 75/128/127 77/130/104
f 75/128/127 51/127/102 77/130/104
