# This file uses centimeters as units for non-parametric coordinates.

mtllib Flat Mushroom 1.mtl
g default
v 0.012657 0.459373 -0.103858
v 0.035285 0.332087 -0.078281
v 0.014113 0.327597 -0.103360
v -0.015686 0.459738 -0.142276
v 0.023425 0.458895 -0.060011
v 0.051047 0.105189 -0.032303
v 0.042925 0.333707 -0.045751
v 0.073265 0.105189 -0.007225
v 0.019720 0.105189 -0.044184
v -0.015740 0.321267 -0.115240
v -0.056996 0.454390 -0.167220
v 0.016807 0.453556 -0.019443
v 0.014918 -0.113094 0.031245
v -0.007300 -0.113094 0.006167
v -0.038627 -0.113094 -0.005714
v -0.105412 0.447292 -0.170640
v 0.035285 0.332087 -0.013220
v 0.081283 0.105189 0.025306
v 0.022936 -0.113094 0.063775
v 0.036687 -0.279182 0.017603
v 0.014469 -0.279182 -0.007475
v -0.016858 -0.279182 -0.019356
v -0.071887 -0.113094 -0.001676
v -0.013540 0.105189 -0.040145
v -0.047434 0.314545 -0.111202
v 0.001384 0.448255 0.012276
v 0.014113 0.327597 0.011858
v 0.014918 -0.113094 0.096306
v 0.073265 0.105189 0.057837
v 0.044705 -0.279182 0.050134
v 0.012163 -0.471756 -0.009854
v -0.010054 -0.471756 -0.034932
v -0.041381 -0.471756 -0.046813
v -0.050118 -0.279182 -0.015317
v -0.099460 -0.113094 0.017357
v -0.041113 0.105189 -0.021113
v -0.150695 0.440239 -0.150352
v -0.016237 0.444260 0.035209
v -0.007300 -0.113094 0.121384
v 0.051047 0.105189 0.082915
v 0.036687 -0.279182 0.082665
v 0.020181 -0.471756 0.022677
v -0.074641 -0.471756 -0.042775
v -0.077691 -0.279182 0.003715
v -0.115030 -0.113094 0.047023
v -0.056683 0.105189 0.008554
v -0.073710 0.308973 -0.092169
v -0.038975 0.438396 0.048059
v -0.015740 0.321267 0.023739
v -0.038627 -0.113094 0.133265
v 0.019720 0.105189 0.094796
v 0.014469 -0.279182 0.107743
v 0.012163 -0.471756 0.055207
v -0.102214 -0.471756 -0.023742
v -0.093261 -0.279182 0.033382
v -0.115030 -0.113094 0.080527
v -0.056683 0.105189 0.042058
v -0.088547 0.305827 -0.062503
v -0.180472 0.431888 -0.111112
v -0.061963 0.435417 0.057994
v -0.071887 -0.113094 0.129227
v -0.013540 0.105189 0.090757
v -0.016858 -0.279182 0.119624
v -0.010054 -0.471756 0.080285
v -0.117785 -0.471756 0.005924
v -0.093261 -0.279182 0.066886
v -0.099460 -0.113094 0.110194
v -0.041113 0.105189 0.071725
v -0.088547 0.305827 -0.028999
v -0.086402 0.431065 0.058475
v -0.047434 0.314545 0.019700
v -0.050118 -0.279182 0.115585
v -0.041381 -0.471756 0.092166
v -0.117785 -0.471756 0.039429
v -0.077691 -0.279182 0.096553
v -0.073710 0.308973 0.000668
v -0.186335 0.424106 -0.016596
v -0.192524 0.427409 -0.062578
v -0.113005 0.428807 0.055311
v -0.074641 -0.471756 0.088128
v -0.102214 -0.471756 0.069095
v -0.167549 0.424380 0.019773
v -0.139129 0.425702 0.041651
v -0.139504 0.425658 0.041393
v -0.348937 0.584665 -0.130948
v -0.313237 0.593074 -0.193239
v -0.526193 0.568961 -0.383489
v -0.612912 0.544046 -0.232177
v -0.362358 0.589656 -0.060113
v -0.645512 0.560746 -0.060113
v -0.164223 0.606695 -0.060113
v -0.259564 0.610590 -0.239473
v -0.395816 0.604626 -0.495796
v -0.718366 0.544657 -0.272617
v -0.351881 0.603738 0.010722
v -0.620062 0.602942 0.111952
v -0.194391 0.629740 -0.264074
v -0.237504 0.637861 -0.555554
v -0.614698 0.576445 -0.461397
v -0.318769 0.617296 0.073013
v -0.539631 0.633201 0.263263
v -0.732415 0.598157 0.150709
v -0.761644 0.564058 -0.060815
v -0.125580 0.646321 -0.264074
v -0.070354 0.682918 -0.555554
v -0.458745 0.612348 -0.600242
v -0.559977 0.539279 -0.424143
v -0.267017 0.626833 0.119248
v -0.413920 0.649546 0.375571
v -0.634624 0.631300 0.336592
v -0.698778 0.529600 -0.057125
v -0.061429 0.659462 -0.239473
v 0.085474 0.732600 -0.495796
v -0.059487 0.698768 -0.674120
v -0.265922 0.641455 -0.674120
v -0.417271 0.576412 -0.552364
v -0.659763 0.515143 -0.252845
v -0.202866 0.636715 0.143848
v -0.258092 0.676813 0.435328
v -0.482752 0.670993 0.474037
v -0.581505 0.591166 0.314363
v -0.671828 0.562532 0.139861
v -0.009677 0.669726 -0.193239
v 0.211185 0.764835 -0.383489
v 0.135660 0.750512 -0.600242
v -0.048196 0.651743 -0.620811
v -0.237757 0.597622 -0.620122
v -0.240678 0.490913 -0.276179
v -0.318029 0.466041 -0.215410
v -0.134055 0.650007 0.143848
v -0.090941 0.719048 0.435328
v -0.292100 0.712713 0.547170
v -0.438179 0.619179 0.444897
v -0.361717 0.462662 -0.015376
v -0.355194 0.457049 -0.117305
v 0.023435 0.676745 -0.130948
v 0.291616 0.785611 -0.232178
v 0.299415 0.771528 -0.459491
v -0.155933 0.509749 -0.322248
v -0.068882 0.664104 0.119248
v 0.067370 0.761100 0.375571
v -0.085666 0.761624 0.547170
v -0.258995 0.653926 0.515033
v -0.294849 0.484156 0.160035
v -0.340172 0.475707 0.079754
v 0.033912 0.680098 -0.060113
v 0.317066 0.781256 -0.060113
v 0.129154 0.708916 -0.554123
v -0.060095 0.530029 -0.329639
v -0.015209 0.674982 0.073013
v 0.197747 0.772098 0.263263
v 0.111653 0.801597 0.474037
v -0.065882 0.701061 0.515701
v -0.230833 0.490800 0.219480
v 0.020491 0.679525 0.010722
v 0.284466 0.770327 0.111952
v 0.425358 0.812392 -0.061237
v 0.393926 0.811601 -0.273741
v 0.278949 0.733829 -0.426179
v -0.069611 0.520159 0.258865
v -0.153692 0.501337 0.253564
v 0.387717 0.791520 0.151412
v 0.403004 0.760166 -0.057263
v 0.372244 0.762101 -0.254242
v 0.122980 0.565247 -0.238760
v 0.032006 0.550708 -0.294522
v 0.276057 0.805422 0.336591
v 0.117242 0.744506 0.446574
v 0.014256 0.540470 0.233159
v 0.267650 0.751240 0.316234
v 0.366856 0.745906 0.141014
v 0.168427 0.572749 -0.132176
v 0.089476 0.555782 0.176086
v 0.175353 0.568785 -0.016655
v 0.146440 0.562028 0.090376
vt 0.920068 0.915844
vt 0.839702 0.870073
vt 0.854697 0.859861
vt 0.927007 0.897968
vt 0.892612 0.710960
vt 0.875160 0.697347
vt 0.894452 0.702438
vt 0.755431 0.805269
vt 0.869733 0.708784
vt 0.744087 0.815058
vt 0.764592 0.794888
vt 0.857991 0.849653
vt 0.940227 0.875894
vt 0.890785 0.715783
vt 0.812063 0.677232
vt 0.690627 0.768365
vt 0.698810 0.756860
vt 0.704321 0.747297
vt 0.950294 0.846846
vt 0.865990 0.717321
vt 0.805660 0.689225
vt 0.746122 0.668004
vt 0.752115 0.655539
vt 0.647249 0.748907
vt 0.652955 0.736162
vt 0.657457 0.726625
vt 0.708566 0.738374
vt 0.771461 0.783606
vt 0.862341 0.832398
vt 0.889142 0.719745
vt 0.862206 0.726896
vt 0.741119 0.676826
vt 0.800176 0.697766
vt 0.706202 0.642715
vt 0.712108 0.630402
vt 0.600151 0.718247
vt 0.604358 0.706168
vt 0.607857 0.697067
vt 0.662109 0.717836
vt 0.712233 0.729667
vt 0.775881 0.771132
vt 0.953369 0.819637
vt 0.889877 0.722910
vt 0.736303 0.684590
vt 0.795164 0.705812
vt 0.702245 0.651619
vt 0.657288 0.617071
vt 0.662150 0.605391
vt 0.611728 0.688428
vt 0.667247 0.709123
vt 0.715654 0.721420
vt 0.779172 0.758590
vt 0.865969 0.813186
vt 0.891191 0.725916
vt 0.860515 0.738284
vt 0.731562 0.691993
vt 0.790628 0.714437
vt 0.698392 0.659724
vt 0.653708 0.625992
vt 0.616281 0.680096
vt 0.672703 0.700513
vt 0.719161 0.713674
vt 0.781552 0.746353
vt 0.866421 0.795735
vt 0.948680 0.795239
vt 0.894656 0.728384
vt 0.727070 0.699158
vt 0.786878 0.724109
vt 0.694065 0.667745
vt 0.649529 0.634341
vt 0.621505 0.672156
vt 0.678341 0.692088
vt 0.722919 0.706259
vt 0.783965 0.734807
vt 0.865053 0.779768
vt 0.898904 0.731524
vt 0.861148 0.750998
vt 0.689219 0.675758
vt 0.644664 0.642334
vt 0.627263 0.664617
vt 0.683887 0.683844
vt 0.862402 0.764774
vt 0.930138 0.758486
vt 0.940644 0.773946
vt 0.904692 0.735023
vt 0.639151 0.649941
vt 0.633247 0.657289
vt 0.920687 0.747198
vt 0.910802 0.739828
vt 0.910837 0.740042
vt 0.802729 0.255955
vt 0.786940 0.228889
vt 0.880874 0.145725
vt 0.920239 0.212576
vt 0.808479 0.288563
vt 0.933384 0.289268
vt 0.722518 0.286807
vt 0.762598 0.208608
vt 0.821560 0.096254
vt 0.967068 0.194738
vt 0.802879 0.319719
vt 0.919331 0.367214
vt 0.733131 0.197786
vt 0.750576 0.070494
vt 0.919197 0.110260
vt 0.787397 0.346824
vt 0.880984 0.433828
vt 0.968809 0.385712
vt 0.985052 0.290439
vt 0.702363 0.197851
vt 0.675023 0.070625
vt 0.847997 0.049511
vt 0.261828 0.463208
vt 0.265912 0.491366
vt 0.183852 0.487619
vt 0.764043 0.366385
vt 0.823572 0.481063
vt 0.921855 0.467605
vt 0.019937 0.680490
vt 0.048567 0.604403
vt 0.046262 0.684962
vt 0.673955 0.208670
vt 0.603621 0.096454
vt 0.668584 0.018679
vt 0.762052 0.018445
vt 0.344588 0.463208
vt 0.340460 0.491500
vt 0.193807 0.511322
vt 0.735579 0.376357
vt 0.753930 0.505180
vt 0.851337 0.526871
vt 0.037559 0.838407
vt 0.015708 0.761564
vt 0.062403 0.830102
vt 0.042175 0.759489
vt 0.071875 0.615171
vt 0.651125 0.228893
vt 0.547123 0.145476
vt 0.580681 0.050824
vt 0.483284 0.547313
vt 0.464701 0.567275
vt 0.419530 0.494693
vt 0.407485 0.520557
vt 0.311873 0.616517
vt 0.273868 0.613986
vt 0.705130 0.375905
vt 0.678961 0.504842
vt 0.764855 0.557433
vt 0.080953 0.904129
vt 0.103912 0.888830
vt 0.169933 0.719522
vt 0.178576 0.682318
vt 0.636463 0.255960
vt 0.510943 0.211312
vt 0.508891 0.112090
vt 0.525698 0.617615
vt 0.347716 0.625502
vt 0.237955 0.630171
vt 0.676234 0.365019
vt 0.607433 0.479107
vt 0.671721 0.556637
vt 0.143319 0.952779
vt 0.160783 0.931400
vt 0.181455 0.788549
vt 0.170937 0.756071
vt 0.631609 0.286734
vt 0.500828 0.286367
vt 0.539633 0.698725
vt 0.505253 0.629531
vt 0.377412 0.647433
vt 0.317688 0.682248
vt 0.300204 0.676148
vt 0.281875 0.679055
vt 0.265845 0.688664
vt 0.652535 0.344809
vt 0.551503 0.428694
vt 0.583945 0.523674
vt 0.218449 0.981681
vt 0.227903 0.957199
vt 0.199693 0.814823
vt 0.236878 0.712476
vt 0.236644 0.730027
vt 0.241225 0.744833
vt 0.637168 0.317563
vt 0.515523 0.361519
vt 0.451815 0.285672
vt 0.465058 0.193289
vt 0.519556 0.702634
vt 0.330350 0.695206
vt 0.299244 0.985901
vt 0.252065 0.846347
vt 0.223616 0.834041
vt 0.249885 0.755138
vt 0.250001 0.755268
vt 0.258359 0.762847
vt 0.469400 0.378235
vt 0.498681 0.852183
vt 0.480012 0.842104
vt 0.533946 0.778894
vt 0.512607 0.775986
vt 0.410164 0.717562
vt 0.396743 0.679808
vt 0.336280 0.712232
vt 0.514615 0.460931
vt 0.300597 0.962322
vt 0.284204 0.850065
vt 0.267780 0.766904
vt 0.441444 0.910986
vt 0.335242 0.730050
vt 0.375850 0.959984
vt 0.286366 0.769640
vt 0.276754 0.769905
vt 0.369505 0.939245
vt 0.429345 0.896304
vt 0.401388 0.759562
vt 0.328920 0.745809
vt 0.318079 0.843203
vt 0.296541 0.769009
vt 0.379708 0.796205
vt 0.318059 0.757132
vt 0.350588 0.824526
vt 0.306660 0.764459
vn 0.854415 0.040368 -0.518021
vn 0.871368 0.010585 -0.490517
vn 0.607307 -0.127178 -0.784221
vn 0.609611 -0.103632 -0.785897
vn 0.987237 0.147243 -0.060677
vn 0.591494 -0.213573 -0.777510
vn 0.890347 -0.137997 -0.433866
vn 0.988043 0.150756 -0.032297
vn 0.166120 -0.247484 -0.954545
vn 0.229567 -0.270518 -0.934943
vn 0.312582 -0.249424 -0.916559
vn 0.901962 0.143306 0.407344
vn 0.999195 -0.038657 0.010739
vn 0.880988 -0.116002 -0.458699
vn 0.553690 -0.107946 -0.825697
vn 0.092960 -0.072627 -0.993017
vn -0.133459 -0.441039 -0.887510
vn 0.873765 0.234551 0.426053
vn 0.995338 -0.094501 0.019278
vn 0.891222 0.042782 -0.451545
vn 0.581741 0.086373 -0.808775
vn 0.139401 0.111694 -0.983917
vn -0.387693 -0.020175 -0.921568
vn -0.307810 -0.222900 -0.924969
vn -0.262891 -0.391736 -0.881721
vn 0.814187 0.108855 0.570308
vn 0.596577 0.241642 0.765314
vn 0.885490 0.067084 0.459791
vn 0.869309 -0.049511 0.491784
vn 0.999943 -0.008907 0.005876
vn 0.871504 -0.041310 -0.488646
vn 0.544001 0.050148 -0.837585
vn 0.097873 0.128250 -0.986901
vn -0.337547 0.111511 -0.934680
vn -0.771345 0.034784 -0.635465
vn -0.728845 -0.133191 -0.671599
vn -0.455484 -0.557467 -0.694093
vn 0.571149 0.161403 0.804822
vn 0.552613 -0.035206 0.832694
vn 0.537380 0.006101 0.843318
vn 0.885823 -0.058069 0.460375
vn 0.992142 -0.123372 -0.020843
vn -0.358736 0.176376 -0.916624
vn -0.740256 0.084148 -0.667039
vn -0.974080 0.079238 -0.211870
vn -0.971553 0.001111 -0.236820
vn -0.635479 -0.423483 -0.645623
vn 0.428947 -0.090060 0.898829
vn 0.149139 0.169327 0.974210
vn 0.086980 0.057594 0.994544
vn 0.133810 0.226993 0.964660
vn 0.576030 -0.095215 0.811864
vn 0.876137 -0.175583 0.448949
vn -0.733121 0.186607 -0.653997
vn -0.970556 0.035264 -0.238281
vn -0.962478 0.105585 0.249975
vn -0.958455 0.132253 0.252732
vn -0.878129 -0.427076 -0.215628
vn -0.666849 -0.620604 -0.412508
vn 0.092403 -0.263160 0.960317
vn -0.373698 0.094214 0.922753
vn -0.325798 0.249696 0.911870
vn 0.138231 -0.112755 0.983961
vn 0.555314 -0.186280 0.810510
vn -0.954765 0.157543 -0.252199
vn -0.968234 -0.022558 0.249027
vn -0.747589 0.110750 0.654863
vn -0.716992 0.219452 0.661636
vn -0.926837 -0.329617 0.179792
vn -0.030772 -0.316065 0.948238
vn -0.338695 0.017974 0.940724
vn -0.333777 -0.105790 0.936697
vn 0.103395 -0.153289 0.982757
vn -0.972506 0.093430 0.213313
vn -0.735097 -0.073766 0.673937
vn -0.726840 -0.125963 0.675157
vn -0.753981 -0.643736 0.130829
vn -0.760379 -0.644858 -0.077338
vn -0.341155 -0.461297 0.819035
vn -0.376693 -0.083570 0.922561
vn -0.767257 0.006268 0.641309
vn -0.639017 -0.593224 0.489635
vn -0.403664 -0.486021 0.775138
vn -0.446098 -0.502770 0.740418
vn -0.133973 0.990682 -0.024513
vn -0.183440 0.979996 0.077181
vn -0.135512 0.984673 0.109798
vn -0.079302 0.996848 -0.002196
vn -0.096661 0.982867 -0.156936
vn -0.055974 0.986898 -0.151325
vn -0.216625 0.975675 -0.033659
vn -0.204505 0.974775 0.089395
vn -0.164585 0.980707 0.105481
vn -0.005876 0.999575 0.028567
vn -0.073898 0.985392 0.153430
vn -0.080445 0.978934 -0.187663
vn -0.075414 0.981496 -0.176008
vn -0.003425 0.990067 -0.140552
vn -0.227554 0.970482 0.079901
vn -0.216172 0.972737 0.083977
vn -0.117852 0.983812 0.135003
vn -0.056066 0.987898 -0.144615
vn -0.064275 0.987535 -0.143675
vn -0.070658 0.984532 -0.160326
vn -0.271890 0.958721 0.083248
vn -0.279440 0.957096 0.076685
vn -0.197562 0.974967 0.102021
vn -0.410839 -0.893750 -0.180064
vn -0.285162 -0.866800 -0.409072
vn -0.119302 -0.948341 -0.293967
vn -0.225604 -0.968562 -0.104832
vn -0.072825 0.987828 -0.137447
vn -0.070218 0.981335 -0.179027
vn -0.078011 0.986102 -0.146685
vn -0.277415 -0.955009 0.104873
vn -0.471760 -0.876289 0.097774
vn -0.302412 0.948574 0.093570
vn -0.277489 0.958686 0.062617
vn -0.280227 0.956502 0.081096
vn -0.167226 -0.836266 -0.522202
vn -0.039490 -0.928416 -0.369437
vn -0.162959 0.972112 -0.168650
vn -0.161539 0.957652 -0.238345
vn -0.064309 0.971205 -0.229402
vn -0.250624 -0.902143 0.351177
vn -0.409410 -0.779611 0.473909
vn -0.458658 -0.841549 0.285356
vn -0.279139 -0.930642 0.236617
vn -0.329105 0.940681 0.082516
vn -0.274296 0.961137 0.031261
vn -0.242690 0.969587 0.031658
vn 0.037658 -0.778270 -0.626800
vn 0.300814 -0.695591 -0.652429
vn 0.311504 -0.842857 -0.438812
vn 0.105247 -0.905002 -0.412183
vn 0.004556 -0.949589 -0.313466
vn -0.066554 -0.968102 -0.241554
vn -0.166599 -0.984148 -0.060807
vn -0.259862 0.948341 -0.181993
vn -0.268115 0.932484 -0.242048
vn -0.147757 0.934864 -0.322797
vn -0.157440 -0.850075 0.502579
vn -0.291420 -0.662347 0.690196
vn -0.209436 -0.971174 0.113833
vn -0.211536 -0.953102 0.216447
vn -0.347105 0.936102 0.056849
vn -0.299681 0.953545 0.030707
vn -0.193389 0.980530 -0.034083
vn 0.469254 -0.674338 -0.570148
vn 0.422645 -0.805039 -0.416274
vn 0.110932 -0.934904 -0.337119
vn -0.290596 0.939261 -0.182600
vn -0.285922 0.933063 -0.218271
vn -0.267021 0.909821 -0.317688
vn 0.040908 -0.775810 0.629639
vn -0.061554 -0.519000 0.852555
vn -0.183527 -0.937455 0.295798
vn -0.096138 -0.910703 0.401719
vn -0.338998 0.940704 0.012486
vn -0.300797 0.953257 0.028659
vn -0.230417 0.973005 -0.013048
vn 0.647139 -0.636648 -0.419392
vn 0.547640 -0.773718 -0.318513
vn 0.296399 -0.882343 -0.365539
vn 0.081324 -0.912763 -0.400312
vn -0.011989 -0.936059 -0.351638
vn -0.086218 -0.971617 -0.220289
vn -0.173323 -0.983595 -0.049993
vn -0.285118 0.944222 -0.164780
vn -0.253397 0.950267 -0.181058
vn -0.281687 0.923786 -0.259369
vn 0.280478 -0.700082 0.656672
vn 0.229904 -0.398334 0.887961
vn 0.075086 -0.865293 0.495611
vn -0.211883 -0.971926 0.102306
vn -0.204230 -0.957463 0.203852
vn -0.310246 0.946928 -0.084114
vn -0.270388 0.959873 -0.074386
vn -0.249449 0.967525 0.040879
vn 0.393234 -0.842667 -0.367803
vn 0.266958 -0.871858 -0.410606
vn -0.218927 0.955782 -0.196343
vn 0.488945 -0.337443 0.804403
vn 0.457256 -0.660592 0.595429
vn 0.270458 -0.809577 0.520997
vn -0.193460 -0.953558 0.230870
vn -0.153735 -0.952736 0.262029
vn -0.057921 -0.946413 0.317722
vn -0.220316 0.973467 -0.061828
vn 0.837794 -0.496814 -0.226443
vn 0.908199 -0.418142 -0.018197
vn 0.713774 -0.700272 -0.012087
vn 0.680741 -0.713243 -0.166962
vn 0.508905 -0.813316 -0.282014
vn 0.372802 -0.847043 -0.378862
vn 0.408649 -0.775012 0.482039
vn 0.098266 -0.923863 0.369893
vn 0.860687 -0.400662 0.314146
vn 0.674693 -0.702407 0.226747
vn 0.613318 -0.778297 -0.134516
vn 0.499251 -0.830739 -0.246213
vn 0.697075 -0.350406 0.625542
vn 0.575501 -0.676639 0.459301
vn 0.375341 -0.853486 0.361499
vn 0.254971 -0.886630 0.385846
vn 0.630595 -0.776030 0.011238
vn 0.581474 -0.807604 -0.098301
vn 0.503144 -0.770598 0.391184
vn 0.464877 -0.830933 0.305679
vn 0.589486 -0.778153 0.216757
vn 0.587148 -0.808141 0.046543
vn 0.541285 -0.817722 0.195808
s 1
g Flat_Mushroom_1
usemtl initialShadingGroup
f 1/1/1 2/2/2 3/3/3 4/4/4
f 5/5/5 2/6/2 1/7/1
f 6/8/6 3/3/3 2/2/2 8/10/7
f 7/9/8 2/6/2 5/5/5
f 3/3/3 6/8/6 9/11/9 10/12/10
f 4/4/4 3/3/3 10/12/10 11/13/11
f 12/14/12 7/9/8 5/5/5
f 8/15/7 2/6/2 7/9/8 18/21/13
f 13/16/14 14/17/15 6/8/6 8/10/7
f 14/17/15 15/18/16 9/11/9 6/8/6
f 11/13/11 10/12/10 16/19/17
f 17/20/18 7/9/8 12/14/12
f 19/22/19 13/23/14 8/15/7 18/21/13
f 20/24/20 21/25/21 14/17/15 13/16/14
f 21/25/21 22/26/22 15/18/16 14/17/15
f 15/18/16 23/27/23 24/28/24 9/11/9
f 25/29/25 10/12/10 9/11/9 24/28/24
f 16/19/17 10/12/10 25/29/25
f 17/20/18 12/14/12 26/30/26 27/31/27
f 18/21/13 7/9/8 17/20/18 29/33/28
f 28/32/29 19/22/19 18/21/13 29/33/28
f 30/34/30 20/35/20 13/23/14 19/22/19
f 31/36/31 32/37/32 21/25/21 20/24/20
f 32/37/32 33/38/33 22/26/22 21/25/21
f 22/26/22 34/39/34 23/27/23 15/18/16
f 23/27/23 35/40/35 36/41/36 24/28/24
f 16/19/17 25/29/25 37/42/37
f 29/33/28 17/20/18 27/31/27 40/45/38
f 27/31/27 26/30/26 38/43/39
f 39/44/40 28/32/29 29/33/28 40/45/38
f 41/46/41 30/34/30 19/22/19 28/32/29
f 42/47/42 31/48/31 20/35/20 30/34/30
f 33/38/33 43/49/43 34/39/34 22/26/22
f 34/39/34 44/50/44 35/40/35 23/27/23
f 35/40/35 45/51/45 46/52/46 36/41/36
f 24/28/24 36/41/36 47/53/47 25/29/25
f 37/42/37 25/29/25 47/53/47
f 48/54/48 49/55/49 27/31/27 38/43/39
f 50/56/50 39/44/40 40/45/38 51/57/51
f 52/58/52 41/46/41 28/32/29 39/44/40
f 53/59/53 42/47/42 30/34/30 41/46/41
f 43/49/43 54/60/54 44/50/44 34/39/34
f 44/50/44 55/61/55 45/51/45 35/40/35
f 45/51/45 56/62/56 57/63/57 46/52/46
f 36/41/36 46/52/46 58/64/58 47/53/47
f 37/42/37 47/53/47 59/65/59
f 40/45/38 27/31/27 49/55/49 51/57/51
f 49/55/49 48/54/48 60/66/60
f 61/67/61 50/56/50 51/57/51 62/68/62
f 63/69/63 52/58/52 39/44/40 50/56/50
f 64/70/64 53/59/53 41/46/41 52/58/52
f 54/60/54 65/71/65 55/61/55 44/50/44
f 55/61/55 66/72/66 56/62/56 45/51/45
f 56/62/56 67/73/67 68/74/68 57/63/57
f 46/52/46 57/63/57 69/75/69 58/64/58
f 59/65/59 47/53/47 58/64/58
f 49/55/49 60/66/60 70/76/70 71/77/71
f 67/73/67 61/67/61 62/68/62 68/74/68
f 72/78/72 63/69/63 50/56/50 61/67/61
f 71/77/71 62/68/62 51/57/51 49/55/49
f 73/79/73 64/70/64 52/58/52 63/69/63
f 65/71/65 74/80/74 66/72/66 55/61/55
f 66/72/66 75/81/75 67/73/67 56/62/56
f 57/63/57 68/74/68 76/82/76 69/75/69
f 58/64/58 69/75/69 77/83/77 78/84/78
f 59/65/59 58/64/58 78/84/78
f 71/77/71 70/76/70 79/85/79
f 75/81/75 72/78/72 61/67/61 67/73/67
f 68/74/68 62/68/62 71/77/71 76/82/76
f 80/86/80 73/79/73 63/69/63 72/78/72
f 74/80/74 81/87/81 75/81/75 66/72/66
f 76/82/76 82/88/82 69/75/69
f 69/75/69 82/88/82 77/83/77
f 71/77/71 79/85/79 83/89/83 84/90/84 76/82/76
f 81/87/81 80/86/80 72/78/72 75/81/75
f 82/88/82 76/82/76 84/90/84
s 2
f 85/91/85 86/92/86 87/93/87 88/94/88
f 89/95/89 85/91/85 88/94/88 90/96/90
f 86/92/86 85/91/85 91/97/91
f 86/92/86 92/98/92 93/99/93 87/93/87
f 94/100/94 88/94/88 87/93/87 99/105/95
f 95/101/96 89/95/89 90/96/90 96/102/97
f 85/91/85 89/95/89 91/97/91
f 90/96/90 88/94/88 94/100/94 103/109/98
f 92/98/92 86/92/86 91/97/91
f 92/98/92 97/103/99 98/104/100 93/99/93
f 99/105/95 87/93/87 93/99/93 106/112/101
f 100/106/102 95/101/96 96/102/97 101/107/103
f 89/95/89 95/101/96 91/97/91
f 102/108/104 96/102/97 90/96/90 103/109/98
f 97/103/99 92/98/92 91/97/91
f 97/103/99 104/110/105 105/111/106 98/104/100
f 106/112/101 93/99/93 98/104/100 115/125/107
s 3
f 94/115/108 99/113/109 107/114/110 117/128/111
s 2
f 108/116/112 100/106/102 101/107/103 109/117/113
f 95/101/96 100/106/102 91/97/91
f 110/118/114 101/107/103 96/102/97 102/108/104
s 3
f 111/121/115 103/119/116 94/120/108 117/136/111
s 2
f 104/110/105 97/103/99 91/97/91
f 104/110/105 112/122/117 113/123/118 105/111/106
f 98/104/100 105/111/106 114/124/119 115/125/107
s 3
f 99/113/109 106/126/120 116/127/121 107/114/110
s 2
f 118/129/122 108/116/112 109/117/113 119/130/123
f 100/106/102 108/116/112 91/97/91
f 120/131/124 109/117/113 101/107/103 110/118/114
s 3
f 121/134/125 110/132/126 102/133/127 122/135/128
f 122/135/128 102/133/127 103/119/116 111/121/115
s 2
f 112/122/117 104/110/105 91/97/91
f 112/122/117 123/137/129 124/138/130 113/123/118
f 105/111/106 113/123/118 125/139/131 114/124/119
s 3
f 115/142/132 114/140/133 126/141/134 127/143/135
f 106/126/120 115/142/132 127/143/135 116/127/121
f 107/114/110 116/127/121 128/144/136 129/145/137
f 117/128/111 107/114/110 129/145/137 135/158/138
s 2
f 130/146/139 118/129/122 119/130/123 131/147/140
f 108/116/112 118/129/122 91/97/91
f 132/148/141 119/130/123 109/117/113 120/131/124
s 3
f 133/150/142 120/149/143 110/132/126 121/134/125
f 122/135/128 111/121/115 134/151/144 145/165/145
f 111/121/115 117/136/111 135/152/138 134/151/144
s 2
f 123/137/129 112/122/117 91/97/91
f 123/137/129 136/153/146 137/154/147 124/138/130
f 113/123/118 124/138/130 138/155/148 125/139/131
s 3
f 126/141/134 114/140/133 125/156/149 148/169/150
f 116/127/121 127/143/135 139/157/151 128/144/136
s 2
f 140/159/152 130/146/139 131/147/140 141/160/153
f 118/129/122 130/146/139 91/97/91
f 131/147/140 119/130/123 132/148/141 142/161/154
s 3
f 143/163/155 132/162/156 120/149/143 133/150/142
f 133/150/142 121/134/125 144/164/157 154/180/158
f 121/134/125 122/135/128 145/165/145 144/164/157
s 2
f 136/153/146 123/137/129 91/97/91
f 136/153/146 146/166/159 147/167/160 137/154/147
f 138/155/148 124/138/130 137/154/147 158/187/161
s 3
f 148/169/150 125/156/149 138/168/162 159/188/163
f 127/143/135 126/141/134 149/170/164 139/157/151
f 128/144/136 139/157/151 16/171/165 37/172/166
f 129/145/137 128/144/136 37/172/166 59/173/167
f 135/158/138 129/145/137 59/173/167 78/174/168
s 2
f 150/175/169 140/159/152 141/160/153 151/176/170
f 130/146/139 140/159/152 91/97/91
f 152/177/171 141/160/153 131/147/140 142/161/154
s 3
f 153/179/172 142/178/173 132/162/156 143/163/155
f 143/163/155 133/150/142 154/180/158 161/192/174
f 134/151/144 135/152/138 78/181/168 77/182/175
f 145/165/145 134/151/144 77/182/175 82/183/176
s 2
f 146/166/159 136/153/146 91/97/91
f 146/166/159 155/184/177 156/185/178 147/167/160
f 137/154/147 147/167/160 157/186/179 158/187/161
s 3
f 149/170/164 126/141/134 148/169/150 166/202/180
f 139/157/151 149/170/164 11/189/181 16/171/165
s 2
f 155/184/177 150/175/169 151/176/170 156/185/178
f 140/159/152 150/175/169 91/97/91
f 151/176/170 141/160/153 152/177/171 167/204/182
s 3
f 152/190/183 142/178/173 153/179/172 168/205/184
f 160/191/185 153/179/172 143/163/155 161/192/174
f 144/164/157 145/165/145 82/183/176 84/193/186 83/194/187
f 154/180/158 144/164/157 83/194/187 79/195/188
s 2
f 155/184/177 146/166/159 91/97/91
f 147/167/160 156/185/178 162/196/189 157/186/179
s 3
f 158/199/190 157/197/191 163/198/192 164/200/193
f 138/168/162 158/199/190 164/200/193 159/188/163
f 148/169/150 159/188/163 165/201/194 166/202/180
f 149/170/164 166/202/180 4/203/195 11/189/181
s 2
f 150/175/169 155/184/177 91/97/91
f 156/185/178 151/176/170 167/204/182 162/196/189
s 3
f 153/179/172 160/191/185 169/206/196 168/205/184
f 161/192/174 154/180/158 79/195/188 70/207/197
f 163/198/192 157/197/191 162/208/198 171/214/199
f 165/201/194 159/188/163 164/200/193 172/215/200
f 166/202/180 165/201/194 1/209/201 4/203/195
f 167/210/202 152/190/183 168/205/184 170/213/203
f 48/211/204 169/206/196 160/191/185 60/212/205
f 160/191/185 161/192/174 70/207/197 60/212/205
f 162/208/198 167/210/202 170/213/203 171/214/199
f 172/215/200 164/200/193 163/198/192 174/219/206
f 165/201/194 172/215/200 5/216/207 1/209/201
f 168/205/184 169/206/196 173/217/208 170/213/203
f 173/217/208 169/206/196 48/211/204 38/218/209
f 174/219/206 163/198/192 171/214/199 175/221/210
f 172/215/200 174/219/206 12/220/211 5/216/207
f 175/221/210 173/217/208 38/218/209 26/222/212
f 175/221/210 171/214/199 170/213/203 173/217/208
f 174/219/206 175/221/210 26/222/212 12/220/211
