# This file uses centimeters as units for non-parametric coordinates.

mtllib Mushroom 1.mtl
g default
v 0.332866 1.102458 -0.227318
v 0.262343 1.100881 -0.365207
v 0.152939 1.094154 -0.474636
v 0.015363 1.082937 -0.544894
v -0.136919 1.068328 -0.569103
v -0.288999 1.051757 -0.544894
v -0.425992 1.034846 -0.474636
v -0.534488 1.019249 -0.365207
v -0.603865 1.006495 -0.227318
v -0.627334 0.997832 -0.074467
v -0.602596 0.994106 0.078383
v -0.532073 0.995684 0.216272
v -0.422669 1.002411 0.325701
v -0.285093 1.013627 0.395959
v -0.132812 1.028236 0.420168
v 0.019269 1.044808 0.395959
v 0.156262 1.061719 0.325701
v 0.264757 1.077315 0.216272
v 0.334134 1.090069 0.078383
v 0.357603 1.098733 -0.074468
v -0.213187 1.762526 -0.047098
v 0.174906 1.462572 -0.152079
v 0.128329 1.449514 -0.259781
v 0.049371 1.433414 -0.348448
v -0.054899 1.415876 -0.407650
v -0.173747 1.398802 -0.429752
v -0.293984 1.384144 -0.411441
v -0.401894 1.373589 -0.354570
v -0.485412 1.368286 -0.265964
v -0.535934 1.368689 -0.156195
v -0.549299 1.374545 -0.037738
v -0.525808 1.385011 0.076935
v -0.469518 1.398850 0.176861
v -0.387179 1.414619 0.253470
v -0.287163 1.430843 0.300925
v -0.178594 1.446116 0.316087
v -0.070734 1.459179 0.298310
v 0.027447 1.468954 0.249248
v 0.107607 1.474592 0.172725
v 0.162415 1.475507 0.074687
v 0.186054 1.471448 -0.036864
v 0.039000 1.690247 -0.100146
v 0.009493 1.683554 -0.176434
v -0.043631 1.674210 -0.240689
v -0.115846 1.663124 -0.284401
v -0.199243 1.651578 -0.301025
v -0.283568 1.641019 -0.287679
v -0.358156 1.632784 -0.246058
v -0.414094 1.627821 -0.182090
v -0.445789 1.626543 -0.104455
v -0.451445 1.628832 -0.022651
v -0.432559 1.634172 0.054654
v -0.392900 1.641813 0.120572
v -0.337471 1.650919 0.170262
v -0.271732 1.660665 0.200749
v -0.201159 1.670280 0.210584
v -0.131083 1.679057 0.199533
v -0.066665 1.686347 0.168404
v -0.012925 1.691563 0.119056
v 0.025330 1.694188 0.054558
v 0.043756 1.693820 -0.020566
v 0.356178 1.226218 -0.224885
v 0.274459 1.223361 -0.377716
v 0.148996 1.215071 -0.495512
v -0.005696 1.202376 -0.566682
v -0.172698 1.186732 -0.585515
v -0.334992 1.169804 -0.552186
v -0.477314 1.153255 -0.471934
v -0.587340 1.138588 -0.353839
v -0.656282 1.127049 -0.209542
v -0.679041 1.119572 -0.052115
v -0.654146 1.116755 0.104829
v -0.583633 1.118847 0.247840
v -0.472978 1.125740 0.364276
v -0.331037 1.136939 0.443044
v -0.169881 1.151557 0.475525
v -0.004305 1.168320 0.456695
v 0.149181 1.185629 0.386272
v 0.274011 1.201692 0.269579
v 0.355744 1.214730 0.117699
v 0.384376 1.223236 -0.053407
v -0.375268 1.145449 -0.283328
v -0.432401 1.133523 -0.135036
v -0.099430 1.177615 -0.378756
v -0.429969 1.128351 -0.002652
v -0.010005 1.183962 -0.310047
v -0.383224 1.128450 0.111855
v 0.056544 1.186684 -0.210036
v -0.278875 1.136178 0.184199
v 0.113805 1.188176 -0.103227
v -0.168422 1.145309 0.237516
v 0.131521 1.185028 0.017970
v 0.028934 1.167083 0.199533
v -0.425383 1.034921 -0.474949
v -0.429469 1.056405 -0.427525
v 0.131198 1.083210 0.320492
v 0.041258 -0.188961 -0.082345
v -0.008283 -0.188961 -0.118339
v -0.069519 -0.188961 -0.118339
v -0.119060 -0.188961 -0.082345
v -0.137983 -0.188961 -0.024106
v -0.119060 -0.188961 0.034133
v -0.069519 -0.188961 0.070127
v -0.008283 -0.188961 0.070127
v 0.041258 -0.188961 0.034133
v 0.060181 -0.188961 -0.024106
v -0.122423 1.381780 -0.221387
v -0.161691 1.381780 -0.249917
v -0.210230 1.381780 -0.249917
v -0.249498 1.381780 -0.221387
v -0.264497 1.381780 -0.175224
v -0.249498 1.381780 -0.129061
v -0.210230 1.381780 -0.100530
v -0.161691 1.381780 -0.100530
v -0.122423 1.381780 -0.129061
v -0.107423 1.381780 -0.175224
v -0.080561 1.006555 -0.067339
v -0.119830 0.996552 -0.094058
v -0.168368 0.996552 -0.094058
v -0.207637 1.006555 -0.067339
v -0.222636 1.022740 -0.024106
v -0.207637 1.038925 0.019127
v -0.168368 1.048928 0.045846
v -0.119830 1.048928 0.045846
v -0.080561 1.038925 0.019127
v -0.065562 1.022740 -0.024106
v 0.024636 0.391881 -0.145067
v -0.014632 0.391881 -0.173597
v -0.063171 0.391881 -0.173597
v -0.102439 0.391881 -0.145067
v -0.117438 0.391881 -0.098904
v -0.102439 0.391881 -0.052741
v -0.063171 0.391881 -0.024211
v -0.014632 0.391881 -0.024211
v 0.024636 0.391881 -0.052741
v 0.039636 0.391881 -0.098904
vt 0.922023 0.162295
vt 0.893007 0.104556
vt 0.847682 0.058529
vt 0.789887 0.028649
vt 0.725054 0.018796
vt 0.662987 0.028723
vt 0.605124 0.056345
vt 0.558191 0.102335
vt 0.528530 0.159618
vt 0.517787 0.223669
vt 0.527507 0.287892
vt 0.556536 0.345870
vt 0.602240 0.392141
vt 0.660040 0.422028
vt 0.724532 0.432370
vt 0.787905 0.422624
vt 0.847355 0.393667
vt 0.892648 0.346213
vt 0.921622 0.289537
vt 0.931983 0.225185
vt 0.048403 0.683911
vt 0.095931 0.698920
vt 0.144068 0.714889
vt 0.191516 0.732698
vt 0.237685 0.752091
vt 0.282438 0.773024
vt 0.325727 0.795646
vt 0.368279 0.818360
vt 0.410383 0.841415
vt 0.452775 0.863747
vt 0.496076 0.884435
vt 0.540813 0.902486
vt 0.586994 0.917323
vt 0.634755 0.927975
vt 0.683685 0.933944
vt 0.733227 0.934842
vt 0.782667 0.930471
vt 0.831300 0.920829
vt 0.878598 0.906053
vt 0.924225 0.886488
vt 0.967212 0.862642
vt 0.662417 0.534216
vt 0.490027 0.412185
vt 0.837378 0.432523
vt 0.852300 0.472343
vt 0.862093 0.515197
vt 0.863640 0.560055
vt 0.855373 0.604656
vt 0.836140 0.646132
vt 0.808420 0.682104
vt 0.772817 0.709695
vt 0.731856 0.727686
vt 0.688439 0.735794
vt 0.645030 0.734107
vt 0.603763 0.723300
vt 0.566371 0.704385
vt 0.534162 0.678582
vt 0.508165 0.647085
vt 0.488649 0.611535
vt 0.477387 0.573061
vt 0.472183 0.532944
vt 0.473685 0.492239
vt 0.480552 0.451902
vt 0.586937 0.447864
vt 0.735685 0.452635
vt 0.749998 0.476752
vt 0.760579 0.503097
vt 0.765857 0.530992
vt 0.764440 0.559037
vt 0.757284 0.585764
vt 0.740898 0.607400
vt 0.720599 0.624552
vt 0.697194 0.635612
vt 0.672511 0.640542
vt 0.648124 0.639698
vt 0.625289 0.633498
vt 0.604941 0.622598
vt 0.587846 0.607729
vt 0.574656 0.589506
vt 0.567466 0.568094
vt 0.561782 0.545665
vt 0.561832 0.521631
vt 0.566572 0.497040
vt 0.575226 0.472421
vt 0.388125 0.367242
vt 0.944416 0.403700
vt 0.084018 0.734279
vt 0.133750 0.751295
vt 0.182047 0.769957
vt 0.228309 0.790341
vt 0.272470 0.812174
vt 0.314733 0.835450
vt 0.356063 0.858499
vt 0.396974 0.881672
vt 0.438382 0.904018
vt 0.481111 0.924775
vt 0.525694 0.943239
vt 0.572685 0.958310
vt 0.621914 0.969549
vt 0.673262 0.976097
vt 0.726192 0.977376
vt 0.779904 0.972960
vt 0.833481 0.962587
vt 0.886043 0.946143
vt 0.936849 0.923942
vt 0.636455 0.141554
vt 0.613466 0.198965
vt 0.744660 0.105189
vt 0.613932 0.250520
vt 0.779420 0.131574
vt 0.631855 0.295179
vt 0.805408 0.170554
vt 0.672354 0.323711
vt 0.827432 0.212419
vt 0.715430 0.344470
vt 0.833688 0.259533
vt 0.792760 0.330032
vt 0.325512 0.795661
vt 0.605409 0.056222
vt 0.606023 0.077853
vt 0.835006 0.387182
vt 0.070590 0.482589
vt 0.088849 0.482228
vt 0.084336 0.642988
vt 0.067313 0.636589
vt 0.106881 0.484909
vt 0.102177 0.646348
vt 0.124177 0.489818
vt 0.120227 0.645972
vt 0.141023 0.495317
vt 0.137822 0.642269
vt 0.158318 0.499219
vt 0.155200 0.637225
vt 0.176165 0.500240
vt 0.173208 0.633380
vt 0.193979 0.498252
vt 0.191856 0.632097
vt 0.211426 0.494285
vt 0.210302 0.633581
vt 0.228692 0.489865
vt 0.227794 0.638452
vt 0.246454 0.487075
vt 0.244468 0.645465
vt 0.079427 0.247868
vt 0.097636 0.249257
vt 0.115783 0.251071
vt 0.133964 0.252693
vt 0.152303 0.253593
vt 0.170847 0.253675
vt 0.189469 0.253323
vt 0.208089 0.253180
vt 0.226556 0.253707
vt 0.244854 0.255223
vt 0.262991 0.257830
vt 0.073602 0.031221
vt 0.096634 0.032756
vt 0.119721 0.033404
vt 0.142701 0.032971
vt 0.165587 0.031773
vt 0.188461 0.030694
vt 0.211380 0.030784
vt 0.234194 0.032805
vt 0.256755 0.036843
vt 0.279027 0.042437
vt 0.301162 0.048784
vt 0.985178 0.897391
vt 0.368309 0.426128
vt 0.356850 0.487761
vt 0.355249 0.551330
vt 0.365324 0.614700
vt 0.388900 0.674968
vt 0.424336 0.728701
vt 0.469871 0.773393
vt 0.523216 0.807148
vt 0.581844 0.828744
vt 0.643144 0.837646
vt 0.704602 0.833949
vt 0.763887 0.818019
vt 0.818735 0.790250
vt 0.867384 0.751934
vt 0.907140 0.703999
vt 0.936940 0.648966
vt 0.955573 0.588930
vt 0.962334 0.526580
vt 0.958128 0.464312
vt 0.032149 0.719819
vn -0.024844 -0.847139 -0.530790
vn -0.198130 -0.879627 -0.432436
vn -0.424309 -0.648124 -0.632374
vn 0.933633 -0.164080 -0.318444
vn 0.796170 -0.134526 -0.589929
vn 0.718589 0.413509 -0.559143
vn 0.866169 0.407337 -0.289529
vn 0.580335 -0.118126 -0.805765
vn 0.496366 0.406512 -0.767053
vn 0.308615 -0.118755 -0.943745
vn 0.224390 0.387007 -0.894357
vn 0.009087 -0.138348 -0.990342
vn -0.069302 0.356881 -0.931576
vn -0.287801 -0.175963 -0.941386
vn -0.356641 0.319329 -0.877973
vn -0.611987 0.277944 -0.740418
vn -0.446023 -0.200514 -0.872271
vn -0.679062 -0.256936 -0.687647
vn -0.758363 -0.285815 -0.585829
vn -0.812506 0.236298 -0.532914
vn -0.884634 -0.342937 -0.315938
vn -0.940849 0.199574 -0.273813
vn -0.920099 -0.391164 -0.020237
vn -0.985198 0.170903 0.013288
vn -0.863466 -0.425126 0.271467
vn -0.940874 0.152962 0.302255
vn -0.722454 -0.442370 0.531385
vn -0.810968 0.147352 0.566232
vn -0.511765 -0.443081 0.736054
vn -0.606420 0.154516 0.779987
vn -0.251276 -0.429290 0.867508
vn -0.345357 0.173725 0.922252
vn 0.035399 -0.403970 0.914087
vn -0.051769 0.203168 0.977774
vn 0.322327 -0.370267 0.871210
vn 0.246285 0.240103 0.938986
vn 0.583040 -0.330991 0.741964
vn 0.518901 0.281063 0.807307
vn 0.792594 -0.288456 0.537203
vn 0.737163 0.322118 0.593996
vn 0.929742 -0.244738 0.275105
vn 0.876664 0.359213 0.320042
vn 0.979142 -0.202209 -0.019819
vn 0.921288 0.388613 0.014432
vn 0.761452 0.601498 -0.241643
vn 0.638423 0.598298 -0.484207
vn 0.596028 0.670214 -0.442226
vn 0.698671 0.683147 -0.212529
vn 0.447000 0.584758 -0.676941
vn 0.423919 0.649413 -0.631312
vn 0.205491 0.562852 -0.800607
vn 0.196704 0.622967 -0.757112
vn -0.062302 0.535496 -0.842237
vn -0.062077 0.594064 -0.802019
vn -0.328984 0.505988 -0.797337
vn -0.321927 0.566347 -0.758692
vn -0.567085 0.477375 -0.671214
vn -0.551470 0.543106 -0.633180
vn -0.753111 0.451998 -0.478039
vn -0.725482 0.526539 -0.443208
vn -0.870180 0.431444 -0.237995
vn -0.828774 0.517587 -0.212692
vn -0.908623 0.416826 0.025689
vn -0.855785 0.516237 0.033629
vn -0.865635 0.409081 0.288667
vn -0.808086 0.521997 0.272976
vn -0.745129 0.409059 0.526739
vn -0.692342 0.534180 0.485092
vn -0.557841 0.417335 0.717388
vn -0.519574 0.551933 0.652236
vn -0.321011 0.433887 0.841840
vn -0.305097 0.574115 0.759808
vn -0.057130 0.457798 0.887219
vn -0.068113 0.599131 0.797749
vn 0.208132 0.487117 0.848174
vn 0.169622 0.624890 0.762063
vn 0.448466 0.518936 0.727725
vn 0.385958 0.648933 0.655685
vn 0.639663 0.549696 0.537275
vn 0.560748 0.668727 0.488227
vn 0.762342 0.575693 0.295655
vn 0.677775 0.682010 0.274743
vn 0.804235 0.593694 0.027095
vn 0.725757 0.687107 0.034075
vn -0.129872 0.990069 -0.053824
vn 0.044092 -0.838258 -0.543489
vn -0.114812 -0.936543 -0.331219
vn 0.200698 -0.837606 -0.508071
vn 0.130397 -0.937366 -0.323021
vn 0.201430 -0.958426 -0.202104
vn 0.359275 -0.824785 -0.436637
vn 0.262311 -0.950443 -0.166886
vn 0.471477 -0.819313 -0.326245
vn 0.294725 -0.951545 -0.087741
vn 0.552610 -0.816803 -0.165697
vn 0.344041 -0.938941 -0.004987
vn 0.567648 -0.823248 -0.006178
vn 0.326008 -0.917765 0.226772
vn 0.550151 -0.823839 0.136468
vn 0.378734 -0.830673 0.408096
vn 0.355061 -0.868532 0.345809
vn 0.519576 -0.816754 0.250907
vn 0.503107 -0.771194 0.390055
vn 0.017465 -0.902902 0.429492
vn 0.084321 -0.960375 0.265651
vn 0.184315 -0.874024 0.449567
vn -0.204997 -0.931664 0.299965
vn -0.024174 -0.994321 0.103641
vn -0.258706 -0.945014 0.200051
vn -0.035535 -0.998124 0.049851
vn -0.308637 -0.945472 0.104049
vn -0.084458 -0.996285 0.016810
vn -0.356586 -0.931573 -0.070842
vn -0.172663 -0.980224 -0.096685
vn -0.353670 -0.906769 -0.229538
vn 0.227837 -0.890376 0.394109
vn -0.322399 -0.898987 -0.296449
vn 0.573599 0.019511 -0.818904
vn 0.573106 0.024542 -0.819114
vn 0.578031 -0.252580 -0.775941
vn 0.578031 -0.252580 -0.775941
vn 0.000000 -0.055885 -0.998437
vn 0.000000 -0.099559 -0.995032
vn 0.000000 -0.375055 -0.927003
vn 0.000000 -0.375055 -0.927003
vn -0.581437 -0.123124 -0.804221
vn -0.581194 -0.180670 -0.793456
vn -0.566511 -0.363716 -0.739443
vn -0.566511 -0.363716 -0.739443
vn -0.944608 -0.156053 -0.288729
vn -0.942948 -0.171491 -0.285377
vn -0.936027 -0.220668 -0.274151
vn -0.936027 -0.220668 -0.274151
vn -0.934137 -0.121740 0.335510
vn -0.937437 -0.101663 0.332982
vn -0.948976 0.020979 0.314650
vn -0.948976 0.020979 0.314650
vn -0.573270 -0.022889 0.819047
vn -0.573407 -0.021487 0.818988
vn -0.577138 0.265200 0.772386
vn -0.577138 0.265200 0.772386
vn 0.000000 0.098701 0.995117
vn 0.000000 0.056708 0.998391
vn 0.000000 0.402557 0.915395
vn 0.000000 0.402557 0.915395
vn 0.581222 0.179310 0.793743
vn 0.581455 0.124490 0.803998
vn 0.562858 0.387916 0.729871
vn 0.562858 0.387916 0.729871
vn 0.942900 0.171912 0.285284
vn 0.944632 0.155803 0.288782
vn 0.934832 0.227699 0.272477
vn 0.934832 0.227699 0.272477
vn 0.937623 0.100452 -0.332825
vn 0.933976 0.122666 -0.335623
vn 0.949025 -0.022456 -0.314399
vn 0.949025 -0.022456 -0.314399
vn 0.573377 0.054535 -0.817474
vn 0.571665 0.066413 -0.817795
vn -0.000000 0.006641 -0.999978
vn -0.000000 0.018971 -0.999820
vn -0.581634 -0.036153 -0.812647
vn -0.581132 -0.032774 -0.813149
vn -0.950965 -0.060833 -0.303259
vn -0.950916 -0.062544 -0.303063
vn -0.942706 -0.058266 0.328499
vn -0.943274 -0.052875 0.327778
vn -0.573215 -0.027014 0.818960
vn -0.574617 -0.012865 0.818322
vn 0.000000 0.021890 0.999760
vn 0.000000 0.035427 0.999372
vn 0.580269 0.069939 0.811416
vn 0.580512 0.074965 0.810793
vn 0.948277 0.096844 0.302312
vn 0.948289 0.096261 0.302460
vn 0.940658 0.090107 -0.327175
vn 0.940062 0.093884 -0.327826
vn 0.586328 -0.070366 -0.807012
vn 0.586328 -0.070366 -0.807012
vn -0.000000 -0.094707 -0.995505
vn -0.000000 -0.094707 -0.995505
vn -0.586328 -0.070366 -0.807012
vn -0.586328 -0.070366 -0.807012
vn -0.951039 -0.006154 -0.309011
vn -0.951039 -0.006154 -0.309011
vn -0.948503 0.073236 0.308187
vn -0.948503 0.073236 0.308187
vn -0.582281 0.136530 0.801441
vn -0.582281 0.136530 0.801441
vn 0.000000 0.160314 0.987066
vn 0.000000 0.160314 0.987066
vn 0.582281 0.136530 0.801441
vn 0.582281 0.136530 0.801441
vn 0.948503 0.073236 0.308187
vn 0.948503 0.073236 0.308187
vn 0.951039 -0.006154 -0.309011
vn 0.951039 -0.006154 -0.309011
s 1
g Mushroom_1
usemtl initialShadingGroup
f 16/16/1 96/121/2 17/17/3
s 2
f 1/21/4 2/22/5 63/87/6 62/186/7
f 2/22/5 3/23/8 64/88/9 63/87/6
f 3/23/8 4/24/10 65/89/11 64/88/9
f 4/24/10 5/25/12 66/90/13 65/89/11
f 5/25/12 6/26/14 67/91/15 66/90/13
f 68/92/16 94/118/17 7/27/18
f 7/27/18 8/28/19 69/93/20 68/92/16
f 8/28/19 9/29/21 70/94/22 69/93/20
f 9/29/21 10/30/23 71/95/24 70/94/22
f 10/30/23 11/31/25 72/96/26 71/95/24
f 11/31/25 12/32/27 73/97/28 72/96/26
f 12/32/27 13/33/29 74/98/30 73/97/28
f 13/33/29 14/34/31 75/99/32 74/98/30
f 14/34/31 15/35/33 76/100/34 75/99/32
f 15/35/33 16/36/35 77/101/36 76/100/34
f 16/36/35 17/37/37 78/102/38 77/101/36
f 17/37/37 18/38/39 79/103/40 78/102/38
f 18/38/39 19/39/41 80/104/42 79/103/40
f 19/39/41 20/40/43 81/105/44 80/104/42
f 20/40/43 1/41/4 62/166/7 81/105/44
f 22/44/45 23/45/46 43/66/47 42/65/48
f 23/45/46 24/46/49 44/67/50 43/66/47
f 24/46/49 25/47/51 45/68/52 44/67/50
f 25/47/51 26/48/53 46/69/54 45/68/52
f 26/48/53 27/49/55 47/70/56 46/69/54
f 27/49/55 28/50/57 48/71/58 47/70/56
f 28/50/57 29/51/59 49/72/60 48/71/58
f 29/51/59 30/52/61 50/73/62 49/72/60
f 30/52/61 31/53/63 51/74/64 50/73/62
f 31/53/63 32/54/65 52/75/66 51/74/64
f 32/54/65 33/55/67 53/76/68 52/75/66
f 33/55/67 34/56/69 54/77/70 53/76/68
f 34/56/69 35/57/71 55/78/72 54/77/70
f 35/57/71 36/58/73 56/79/74 55/78/72
f 36/58/73 37/59/75 57/80/76 56/79/74
f 37/59/75 38/60/77 58/81/78 57/80/76
f 38/60/77 39/61/79 59/82/80 58/81/78
f 39/61/79 40/62/81 60/83/82 59/82/80
f 40/62/81 41/63/83 61/84/84 60/83/82
f 41/63/83 22/43/45 42/64/48 61/84/84
f 42/65/48 43/66/47 21/42/85
f 43/66/47 44/67/50 21/42/85
f 44/67/50 45/68/52 21/42/85
f 45/68/52 46/69/54 21/42/85
f 46/69/54 47/70/56 21/42/85
f 47/70/56 48/71/58 21/42/85
f 48/71/58 49/72/60 21/42/85
f 49/72/60 50/73/62 21/42/85
f 50/73/62 51/74/64 21/42/85
f 51/74/64 52/75/66 21/42/85
f 52/75/66 53/76/68 21/42/85
f 53/76/68 54/77/70 21/42/85
f 54/77/70 55/78/72 21/42/85
f 55/78/72 56/79/74 21/42/85
f 56/79/74 57/80/76 21/42/85
f 57/80/76 58/81/78 21/42/85
f 58/81/78 59/82/80 21/42/85
f 59/82/80 60/83/82 21/42/85
f 60/83/82 61/84/84 21/42/85
f 61/84/84 42/64/48 21/42/85
f 62/86/7 63/185/6 23/45/46 22/44/45
f 63/185/6 64/184/9 24/46/49 23/45/46
f 64/184/9 65/183/11 25/47/51 24/46/49
f 65/183/11 66/182/13 26/48/53 25/47/51
f 66/182/13 67/181/15 27/49/55 26/48/53
f 67/181/15 68/180/16 28/50/57 27/49/55
f 68/180/16 69/179/20 29/51/59 28/50/57
f 69/179/20 70/178/22 30/52/61 29/51/59
f 70/178/22 71/177/24 31/53/63 30/52/61
f 71/177/24 72/176/26 32/54/65 31/53/63
f 72/176/26 73/175/28 33/55/67 32/54/65
f 73/175/28 74/174/30 34/56/69 33/55/67
f 74/174/30 75/173/32 35/57/71 34/56/69
f 75/173/32 76/172/34 36/58/73 35/57/71
f 76/172/34 77/171/36 37/59/75 36/58/73
f 77/171/36 78/170/38 38/60/77 37/59/75
f 78/170/38 79/169/40 39/61/79 38/60/77
f 79/169/40 80/168/42 40/62/81 39/61/79
f 80/168/42 81/167/44 41/63/83 40/62/81
f 81/167/44 62/85/7 22/43/45 41/63/83
s 1
f 15/15/86 93/117/87 96/121/2 16/16/1
f 14/14/88 91/115/89 93/117/87 15/15/86
f 89/113/90 91/115/89 14/14/88 13/13/91
f 87/111/92 89/113/90 13/13/91 12/12/93
f 85/109/94 87/111/92 12/12/93 11/11/95
f 83/107/96 85/109/94 11/11/95 10/10/97
f 82/106/98 83/107/96 10/10/97 9/9/99
f 94/119/100 95/120/101 8/8/102 7/7/103
f 95/120/101 82/106/98 9/9/99 8/8/102
f 4/4/104 84/108/105 82/106/98 5/5/106
f 3/3/107 86/110/108 84/108/105 4/4/104
f 2/2/109 88/112/110 86/110/108 3/3/107
f 1/1/111 90/114/112 88/112/110 2/2/109
f 1/1/111 20/20/113 92/116/114 90/114/112
f 93/117/87 92/116/114 20/20/113 19/19/115
f 93/117/87 91/115/89 92/116/114
f 90/114/112 92/116/114 91/115/89 89/113/90
f 88/112/110 90/114/112 89/113/90 87/111/92
f 86/110/108 88/112/110 87/111/92 85/109/94
f 84/108/105 86/110/108 85/109/94 83/107/96
f 82/106/98 84/108/105 83/107/96
s 2
f 6/26/14 94/118/17 68/92/16 67/91/15
s 1
f 6/6/116 95/120/101 94/119/100
f 5/5/106 82/106/98 95/120/101 6/6/116
f 96/121/2 93/117/87 19/19/115 18/18/117
f 17/17/3 96/121/2 18/18/117
s 5
f 117/122/118 118/123/119 108/124/120 107/125/121
s 6
f 118/123/122 119/126/123 109/127/124 108/124/125
s 7
f 119/126/126 120/128/127 110/129/128 109/127/129
s 8
f 120/128/130 121/130/131 111/131/132 110/129/133
s 9
f 121/130/134 122/132/135 112/133/136 111/131/137
s 10
f 122/132/138 123/134/139 113/135/140 112/133/141
s 11
f 123/134/142 124/136/143 114/137/144 113/135/145
s 12
f 124/136/146 125/138/147 115/139/148 114/137/149
s 13
f 125/138/150 126/140/151 116/141/152 115/139/153
s 14
f 126/140/154 117/142/155 107/143/156 116/141/157
s 5
f 127/144/158 128/145/159 118/123/119 117/122/118
s 6
f 128/145/160 129/146/161 119/126/123 118/123/122
s 7
f 129/146/162 130/147/163 120/128/127 119/126/126
s 8
f 130/147/164 131/148/165 121/130/131 120/128/130
s 9
f 131/148/166 132/149/167 122/132/135 121/130/134
s 10
f 132/149/168 133/150/169 123/134/139 122/132/138
s 11
f 133/150/170 134/151/171 124/136/143 123/134/142
s 12
f 134/151/172 135/152/173 125/138/147 124/136/146
s 13
f 135/152/174 136/153/175 126/140/151 125/138/150
s 14
f 136/153/176 127/154/177 117/142/155 126/140/154
s 5
f 97/155/178 98/156/179 128/145/159 127/144/158
s 6
f 98/156/180 99/157/181 129/146/161 128/145/160
s 7
f 99/157/182 100/158/183 130/147/163 129/146/162
s 8
f 100/158/184 101/159/185 131/148/165 130/147/164
s 9
f 101/159/186 102/160/187 132/149/167 131/148/166
s 10
f 102/160/188 103/161/189 133/150/169 132/149/168
s 11
f 103/161/190 104/162/191 134/151/171 133/150/170
s 12
f 104/162/192 105/163/193 135/152/173 134/151/172
s 13
f 105/163/194 106/164/195 136/153/175 135/152/174
s 14
f 106/164/196 97/165/197 127/154/177 136/153/176
