# This file uses centimeters as units for non-parametric coordinates.

mtllib blokkendoos (mijn schaduw is raar).mtl
g default
v 0.457423 -0.325802 -0.104862
v 0.410114 -0.325802 -0.202578
v 0.334857 -0.325802 -0.286489
v 0.236780 -0.325802 -0.350876
v 0.122566 -0.325802 -0.391351
v 0.000000 -0.325802 -0.405156
v -0.000000 -0.325802 0.405156
v 0.122566 -0.325802 0.391351
v 0.236780 -0.325802 0.350876
v 0.334857 -0.325802 0.286489
v 0.410115 -0.325802 0.202578
v 0.457423 -0.325802 0.104862
v 0.473560 -0.325802 0.000000
v 0.457423 0.325802 -0.104862
v 0.410114 0.325802 -0.202578
v 0.334857 0.325802 -0.286489
v 0.236780 0.325802 -0.350876
v 0.122566 0.325802 -0.391351
v 0.000000 0.325802 -0.405156
v -0.000000 0.325802 0.405156
v 0.122566 0.325802 0.391351
v 0.236780 0.325802 0.350876
v 0.334857 0.325802 0.286489
v 0.410115 0.325802 0.202578
v 0.457423 0.325802 0.104862
v 0.473560 0.325802 0.000000
v 0.015517 -0.325803 0.000000
v -0.000000 0.325802 0.000000
vt 0.266440 0.746321
vt 0.263346 0.738850
vt 0.258423 0.732435
vt 0.252008 0.727512
vt 0.244537 0.724418
vt 0.236520 0.723362
vt 0.236520 0.785314
vt 0.244537 0.784258
vt 0.252008 0.781164
vt 0.258423 0.776241
vt 0.263346 0.769826
vt 0.266440 0.762355
vt 0.267496 0.754338
vt 0.159629 0.785314
vt 0.166036 0.785314
vt 0.172444 0.785314
vt 0.178851 0.785314
vt 0.185259 0.785314
vt 0.191667 0.785314
vt 0.268558 0.785314
vt 0.274966 0.785314
vt 0.281373 0.785314
vt 0.287781 0.785314
vt 0.294188 0.785314
vt 0.300596 0.785314
vt 0.307004 0.785314
vt 0.313411 0.785314
vt 0.159629 0.859842
vt 0.166036 0.859842
vt 0.172444 0.859842
vt 0.178851 0.859842
vt 0.185259 0.859842
vt 0.191667 0.859842
vt 0.268558 0.859842
vt 0.274966 0.859842
vt 0.281373 0.859842
vt 0.287781 0.859842
vt 0.294188 0.859842
vt 0.300596 0.859842
vt 0.307004 0.859842
vt 0.313411 0.859842
vt 0.266440 0.882614
vt 0.263346 0.875143
vt 0.258423 0.868728
vt 0.252008 0.863805
vt 0.244537 0.860711
vt 0.236520 0.859655
vt 0.236520 0.921607
vt 0.244537 0.920551
vt 0.252008 0.917457
vt 0.258423 0.912534
vt 0.263346 0.906119
vt 0.266440 0.898648
vt 0.267496 0.890631
vt 0.236520 0.753099
vt 0.236520 0.889392
vn 0.954293 0.000000 -0.298874
vn 0.828916 0.000000 -0.559373
vn 0.828916 0.000000 -0.559373
vn 0.954293 0.000000 -0.298874
vn 0.650096 0.000000 -0.759852
vn 0.650096 0.000000 -0.759852
vn 0.442873 0.000000 -0.896585
vn 0.442873 0.000000 -0.896585
vn 0.223449 0.000000 -0.974716
vn 0.223449 0.000000 -0.974716
vn -0.955246 -0.094735 -0.280233
vn -0.956958 0.073615 -0.280735
vn -0.955246 -0.094735 0.280233
vn 0.223449 0.000000 0.974716
vn 0.223449 0.000000 0.974716
vn -0.956958 0.073615 0.280735
vn 0.442872 0.000000 0.896585
vn 0.442872 0.000000 0.896585
vn 0.650096 0.000000 0.759852
vn 0.650096 0.000000 0.759852
vn 0.828916 0.000000 0.559373
vn 0.828916 0.000000 0.559373
vn 0.954293 0.000000 0.298873
vn 0.954293 0.000000 0.298873
vn 1.000000 0.000000 -0.000001
vn 1.000000 0.000000 -0.000001
vn 0.000000 -1.000000 -0.000000
vn 0.000000 -1.000000 -0.000000
vn -0.994438 -0.105325 -0.000000
vn 0.000000 -1.000000 -0.000000
vn 0.000000 -1.000000 -0.000000
vn 0.000000 -1.000000 -0.000000
vn 0.000000 -1.000000 0.000000
vn 0.000000 -1.000000 0.000000
vn 0.000000 -1.000000 0.000000
vn 0.000000 -1.000000 0.000000
vn 0.000000 -1.000000 0.000000
vn 0.000000 -1.000000 0.000000
vn -0.000000 1.000000 0.000000
vn -0.000000 1.000000 0.000000
vn -0.996643 0.081867 -0.000000
vn -0.000000 1.000000 0.000000
vn -0.000000 1.000000 0.000000
vn -0.000000 1.000000 0.000000
vn -0.000000 1.000000 -0.000000
vn -0.000000 1.000000 -0.000000
vn -0.000000 1.000000 -0.000000
vn -0.000000 1.000000 -0.000000
vn -0.000000 1.000000 0.000000
vn -0.000000 1.000000 0.000000
s 1
g pCylinder5 group1
usemtl lambert2SG
f 1/14/1 2/15/2 15/29/3 14/28/4
f 2/15/2 3/16/5 16/30/6 15/29/3
f 3/16/5 4/17/7 17/31/8 16/30/6
f 4/17/7 5/18/9 18/32/10 17/31/8
f 5/18/9 6/19/11 19/33/12 18/32/10
f 7/20/13 8/21/14 21/35/15 20/34/16
f 8/21/14 9/22/17 22/36/18 21/35/15
f 9/22/17 10/23/19 23/37/20 22/36/18
f 10/23/19 11/24/21 24/38/22 23/37/20
f 11/24/21 12/25/23 25/39/24 24/38/22
f 12/25/23 13/26/25 26/40/26 25/39/24
f 13/26/25 1/27/1 14/41/4 26/40/26
f 2/2/27 1/1/28 27/55/29
f 3/3/30 2/2/27 27/55/29
f 4/4/31 3/3/30 27/55/29
f 5/5/32 4/4/31 27/55/29
f 6/6/11 5/5/32 27/55/29
f 8/8/33 7/7/13 27/55/29
f 9/9/34 8/8/33 27/55/29
f 10/10/35 9/9/34 27/55/29
f 11/11/36 10/10/35 27/55/29
f 12/12/37 11/11/36 27/55/29
f 13/13/38 12/12/37 27/55/29
f 1/1/28 13/13/38 27/55/29
f 14/53/39 15/52/40 28/56/41
f 15/52/40 16/51/42 28/56/41
f 16/51/42 17/50/43 28/56/41
f 17/50/43 18/49/44 28/56/41
f 18/49/44 19/48/12 28/56/41
f 28/56/41 27/55/29 7/20/13 20/47/16
f 20/47/16 21/46/45 28/56/41
f 21/46/45 22/45/46 28/56/41
f 22/45/46 23/44/47 28/56/41
f 23/44/47 24/43/48 28/56/41
f 24/43/48 25/42/49 28/56/41
f 25/42/49 26/54/50 28/56/41
f 26/54/50 14/53/39 28/56/41
f 28/56/41 19/33/12 6/6/11 27/55/29
