# This file uses centimeters as units for non-parametric coordinates.

mtllib lucifer doosje wrap pivot goed.mtl
g default
v -0.481975 -0.313170 0.846941
v 0.481975 -0.313170 0.846941
v -0.481975 -0.151853 0.846941
v 0.481975 -0.151853 0.846941
v -0.481975 0.009463 0.846941
v 0.481975 0.009463 0.846941
v -0.481975 0.170780 0.846941
v 0.481975 0.170780 0.846941
v -0.481975 0.170780 0.283617
v 0.481975 0.170780 0.283617
v -0.481975 0.170780 -0.279706
v 0.481975 0.170780 -0.279706
v -0.481975 0.170780 -0.843029
v 0.481975 0.170780 -0.843029
v -0.481975 0.009463 -0.843029
v 0.481975 0.009463 -0.843029
v -0.481975 -0.151853 -0.843029
v 0.481975 -0.151853 -0.843029
v -0.481975 -0.313170 -0.843029
v 0.481975 -0.313170 -0.843029
v -0.481975 -0.313170 -0.279706
v 0.481975 -0.313170 -0.279706
v -0.481975 -0.313170 0.283617
v 0.481975 -0.313170 0.283617
v -1.349146 -0.313170 0.846941
v -1.344537 -0.292973 0.831219
v -1.349146 -0.151853 0.846941
v -1.344537 -0.182078 0.831219
v 1.344537 -0.292973 0.831219
v 1.349146 -0.313170 0.846941
v 1.349146 -0.151853 0.846941
v 1.344537 -0.182078 0.831219
v -1.349146 0.009463 0.846941
v -1.344537 0.039688 0.831219
v 1.349146 0.009463 0.846941
v 1.344537 0.039688 0.831219
v -1.344537 0.150583 0.831219
v -1.349146 0.170780 0.846941
v 1.349146 0.170780 0.846941
v 1.344537 0.150583 0.831219
v -1.349146 0.170780 0.283617
v -1.344537 0.150583 0.311613
v 1.349146 0.170780 0.283617
v 1.344537 0.150583 0.311613
v -1.349146 0.170780 -0.279706
v -1.344537 0.150583 -0.307702
v 1.349146 0.170780 -0.279706
v 1.344537 0.150583 -0.307702
v -1.344537 0.150583 -0.827308
v -1.349146 0.170780 -0.843029
v 1.349146 0.170780 -0.843029
v 1.344537 0.150583 -0.827308
v -1.349146 0.009463 -0.843029
v -1.344537 0.039688 -0.827308
v 1.349146 0.009463 -0.843029
v 1.344537 0.039688 -0.827308
v -1.349146 -0.151853 -0.843029
v -1.344537 -0.182078 -0.827308
v 1.349146 -0.151853 -0.843029
v 1.344537 -0.182078 -0.827308
v -1.344537 -0.292973 -0.827308
v -1.349146 -0.313170 -0.843029
v 1.349146 -0.313170 -0.843029
v 1.344537 -0.292973 -0.827308
v -1.349146 -0.313170 -0.279706
v -1.344537 -0.292973 -0.307702
v 1.349146 -0.313170 -0.279706
v 1.344537 -0.292973 -0.307702
v -1.349146 -0.313170 0.283617
v -1.344537 -0.292973 0.311613
v 1.349146 -0.313170 0.283617
v 1.344537 -0.292973 0.311613
vt 0.614806 0.136665
vt 0.787877 0.902815
vt 0.463758 0.902815
vt 0.026502 0.514123
vt 0.289918 0.514123
vt 0.283210 0.916667
vt 0.935845 0.136665
vt 0.289918 0.235877
vt 0.026502 0.235877
vt 0.033210 0.333333
vt 0.033210 0.416667
vt 0.283210 0.333333
vt 0.033210 0.514123
vt 0.283210 0.416667
vt 0.283210 0.514123
vt 0.033210 0.583333
vt 0.033210 0.666667
vt 0.283210 0.583333
vt 0.033210 0.735877
vt 0.283210 0.666667
vt 0.283210 0.735877
vt 0.033210 0.833333
vt 0.033210 0.916667
vt 0.283210 0.833333
vt 0.342658 0.017573
vt 0.614806 0.181146
vt 0.783810 0.136665
vt 0.935845 0.181146
vt 0.462770 0.181146
vt 0.614806 0.225627
vt 0.783810 0.181146
vt 0.935845 0.225627
vt 0.462770 0.225627
vt 0.617881 0.311667
vt 0.783810 0.225627
vt 0.940386 0.311667
vt 0.462770 0.270107
vt 0.617881 0.407006
vt 0.783810 0.270107
vt 0.940386 0.407006
vt 0.465151 0.407006
vt 0.617881 0.502345
vt 0.787656 0.407006
vt 0.940386 0.502345
vt 0.465151 0.502345
vt 0.614478 0.136684
vt 0.787656 0.502345
vt 0.937451 0.136684
vt 0.465151 0.597684
vt 0.614478 0.181165
vt 0.787656 0.597684
vt 0.937451 0.181165
vt 0.461526 0.181165
vt 0.614478 0.225645
vt 0.784500 0.181165
vt 0.937451 0.225645
vt 0.461526 0.225645
vt 0.617252 0.620119
vt 0.784500 0.225645
vt 0.941372 0.620119
vt 0.461526 0.270126
vt 0.617252 0.714351
vt 0.784500 0.270126
vt 0.941372 0.714351
vt 0.463758 0.714351
vt 0.617252 0.808583
vt 0.787877 0.714351
vt 0.941372 0.808583
vt 0.463758 0.808583
vt 0.617252 0.902815
vt 0.787877 0.808583
vt 0.373056 0.982427
vt 0.296627 0.083333
vt 0.296627 0.166667
vt 0.019793 0.083333
vt 0.019793 0.166667
vt 0.373056 0.902023
vt 0.941372 0.808583
vt 0.787877 0.808583
vt 0.787877 0.808583
vt 0.787877 0.808583
vt 0.617252 0.808583
vt 0.617252 0.808583
vt 0.617252 0.808583
vt 0.342658 0.902023
vt 0.463758 0.808583
vt 0.373056 0.821618
vt 0.941372 0.714351
vt 0.787877 0.714351
vt 0.787877 0.714351
vt 0.787877 0.714351
vt 0.617252 0.714351
vt 0.617252 0.714351
vt 0.617252 0.714351
vt 0.342658 0.821618
vt 0.463758 0.714351
vt 0.373056 0.741214
vt 0.937451 0.270126
vt 0.784500 0.270126
vt 0.787877 0.620119
vt 0.787877 0.620119
vt 0.617252 0.620119
vt 0.614478 0.270126
vt 0.614478 0.270126
vt 0.342658 0.741214
vt 0.463758 0.620119
vt 0.373056 0.660809
vt 0.937451 0.225645
vt 0.784500 0.225645
vt 0.784500 0.225645
vt 0.784500 0.225645
vt 0.614478 0.225645
vt 0.614478 0.225645
vt 0.614478 0.225645
vt 0.342658 0.660809
vt 0.461526 0.225645
vt 0.373056 0.580405
vt 0.937451 0.181165
vt 0.784500 0.181165
vt 0.784500 0.181165
vt 0.784500 0.181165
vt 0.614478 0.181165
vt 0.614478 0.181165
vt 0.614478 0.181165
vt 0.342658 0.580405
vt 0.461526 0.181165
vt 0.373056 0.500000
vt 0.940386 0.597684
vt 0.787656 0.597684
vt 0.784500 0.136684
vt 0.784500 0.136684
vt 0.614478 0.136684
vt 0.617881 0.597684
vt 0.617881 0.597684
vt 0.342658 0.500000
vt 0.461526 0.136684
vt 0.373056 0.419595
vt 0.940386 0.502345
vt 0.787656 0.502345
vt 0.787656 0.502345
vt 0.787656 0.502345
vt 0.617881 0.502345
vt 0.617881 0.502345
vt 0.617881 0.502345
vt 0.342658 0.419595
vt 0.465151 0.502345
vt 0.373056 0.339191
vt 0.940386 0.407006
vt 0.787656 0.407006
vt 0.787656 0.407006
vt 0.787656 0.407006
vt 0.617881 0.407006
vt 0.617881 0.407006
vt 0.617881 0.407006
vt 0.342658 0.339191
vt 0.465151 0.407006
vt 0.373056 0.258786
vt 0.935845 0.270107
vt 0.783810 0.270107
vt 0.787656 0.311667
vt 0.787656 0.311667
vt 0.617881 0.311667
vt 0.614806 0.270107
vt 0.614806 0.270107
vt 0.342658 0.258786
vt 0.465151 0.311667
vt 0.373056 0.178382
vt 0.935845 0.225627
vt 0.783810 0.225627
vt 0.783810 0.225627
vt 0.783810 0.225627
vt 0.614806 0.225627
vt 0.614806 0.225627
vt 0.614806 0.225627
vt 0.342658 0.178382
vt 0.462770 0.225627
vt 0.373056 0.097977
vt 0.935845 0.181146
vt 0.783810 0.181146
vt 0.783810 0.181146
vt 0.783810 0.181146
vt 0.787877 0.902815
vt 0.783810 0.136665
vt 0.373056 0.017573
vt 0.941372 0.902815
vt 0.614806 0.181146
vt 0.614806 0.181146
vt 0.614806 0.181146
vt 0.342658 0.097977
vt 0.462770 0.181146
vt 0.342658 0.982427
vt 0.462770 0.136665
vt 0.614806 0.136665
vt 0.617252 0.902815
vt 0.373056 0.902023
vt 0.373056 0.821618
vt 0.381423 0.821618
vt 0.381423 0.821618
vt 0.381423 0.902023
vt 0.381423 0.902023
vt 0.334291 0.902023
vt 0.334291 0.902023
vt 0.334291 0.821618
vt 0.334291 0.821618
vt 0.342658 0.821618
vt 0.342658 0.902023
vt 0.373056 0.741214
vt 0.381423 0.727587
vt 0.381423 0.727587
vt 0.334291 0.727587
vt 0.334291 0.727587
vt 0.342658 0.741214
vt 0.373056 0.660809
vt 0.381423 0.660809
vt 0.381423 0.660809
vt 0.334291 0.660809
vt 0.334291 0.660809
vt 0.342658 0.660809
vt 0.373056 0.580405
vt 0.381423 0.580405
vt 0.381423 0.580405
vt 0.334291 0.580405
vt 0.334291 0.580405
vt 0.342658 0.580405
vt 0.373056 0.500000
vt 0.381423 0.513627
vt 0.381423 0.513627
vt 0.334291 0.513627
vt 0.334291 0.513627
vt 0.342658 0.500000
vt 0.373056 0.419595
vt 0.381423 0.419595
vt 0.381423 0.419595
vt 0.334291 0.419595
vt 0.334291 0.419595
vt 0.342658 0.419595
vt 0.373056 0.339191
vt 0.381423 0.339191
vt 0.381423 0.339191
vt 0.334291 0.339191
vt 0.334291 0.339191
vt 0.342658 0.339191
vt 0.373056 0.258786
vt 0.388131 0.245160
vt 0.388131 0.245160
vt 0.327583 0.245160
vt 0.327583 0.245160
vt 0.342658 0.258786
vt 0.373056 0.178382
vt 0.394839 0.178382
vt 0.394839 0.178382
vt 0.320875 0.178382
vt 0.320875 0.178382
vt 0.342658 0.178382
vt 0.373056 0.097977
vt 0.394839 0.097977
vt 0.394839 0.097977
vt 0.388131 0.513626
vt 0.388131 0.513626
vt 0.320875 0.097977
vt 0.320875 0.097977
vt 0.342658 0.097977
vt 0.327583 0.513626
vt 0.327583 0.513626
vt 0.033210 0.916667
vt 0.283210 0.916667
vt 0.033210 0.833333
vt 0.283210 0.833333
vt 0.033210 0.666667
vt 0.283210 0.666667
vt 0.033210 0.583333
vt 0.283210 0.583333
vt 0.033210 0.735877
vt 0.283210 0.735877
vt 0.033210 0.416667
vt 0.283210 0.416667
vt 0.033210 0.333333
vt 0.283210 0.333333
vt 0.033210 0.514123
vt 0.283210 0.514123
vt 0.019793 0.166667
vt 0.296627 0.166667
vt 0.019793 0.083333
vt 0.296627 0.083333
vt 0.026502 0.514123
vt 0.289918 0.514123
vt 0.026502 0.235877
vt 0.289918 0.235877
vn 0.000000 0.000000 1.000000
vn 0.000000 0.000000 1.000000
vn 0.000000 0.000000 1.000000
vn 0.000000 0.000000 1.000000
vn 0.000000 0.000000 1.000000
vn 0.000000 0.000000 1.000000
vn 0.000000 0.000000 1.000000
vn 0.000000 0.000000 1.000000
vn 0.000000 1.000000 0.000000
vn 0.000000 1.000000 0.000000
vn 0.000000 1.000000 0.000000
vn 0.000000 1.000000 0.000000
vn 0.000000 1.000000 0.000000
vn 0.000000 1.000000 0.000000
vn 0.000000 1.000000 0.000000
vn 0.000000 1.000000 0.000000
vn 0.000000 0.000000 -1.000000
vn 0.000000 0.000000 -1.000000
vn 0.000000 0.000000 -1.000000
vn 0.000000 0.000000 -1.000000
vn 0.000000 0.000000 -1.000000
vn 0.000000 0.000000 -1.000000
vn 0.000000 0.000000 -1.000000
vn 0.000000 0.000000 -1.000000
vn 0.000000 -1.000000 0.000000
vn 0.000000 -1.000000 0.000000
vn 0.000000 -1.000000 0.000000
vn 0.000000 -1.000000 0.000000
vn 0.000000 -1.000000 0.000000
vn 0.000000 -1.000000 0.000000
vn 0.000000 -1.000000 0.000000
vn 0.000000 -1.000000 0.000000
vn -0.974946 0.222444 0.000000
vn -0.974946 0.222444 0.000000
vn -0.974945 0.222444 0.000000
vn -0.974945 0.222444 0.000000
vn -0.959625 0.000000 -0.281283
vn -0.959625 0.000000 -0.281283
vn -0.959625 0.000000 -0.281281
vn -0.959625 0.000000 -0.281283
vn -0.959625 0.000000 -0.281281
vn -0.959625 0.000000 -0.281283
vn 0.974946 0.222444 0.000000
vn 0.974946 0.222444 0.000000
vn 0.974945 0.222444 0.000000
vn 0.974945 0.222444 0.000000
vn 0.959625 0.000000 -0.281283
vn 0.959625 0.000000 -0.281283
vn 0.959625 0.000000 -0.281283
vn 0.959625 0.000000 -0.281281
vn 0.959625 0.000000 -0.281283
vn 0.959625 0.000000 -0.281281
vn -0.959625 0.000000 -0.281283
vn -0.959625 0.000000 -0.281283
vn 0.959625 0.000000 -0.281283
vn 0.959625 0.000000 -0.281283
vn -0.974945 -0.222444 0.000000
vn -0.974945 -0.222444 0.000000
vn -0.974945 -0.222445 0.000000
vn -0.974945 -0.222445 0.000000
vn 0.974945 -0.222444 0.000000
vn 0.974945 -0.222444 0.000000
vn 0.974945 -0.222445 0.000000
vn 0.974945 -0.222445 0.000000
vn -0.974945 -0.222445 0.000000
vn -0.974945 -0.222445 0.000000
vn 0.974945 -0.222445 0.000000
vn 0.974945 -0.222445 0.000000
vn -0.974945 -0.222444 0.000000
vn -0.974945 -0.222444 0.000000
vn 0.974945 -0.222444 0.000000
vn 0.974945 -0.222444 0.000000
vn -0.959626 0.000000 0.281281
vn -0.959626 0.000000 0.281281
vn -0.959625 0.000000 0.281282
vn -0.959626 0.000000 0.281281
vn 0.959625 0.000000 0.281281
vn 0.959625 0.000000 0.281281
vn 0.959625 0.000000 0.281282
vn 0.959625 0.000000 0.281282
vn -0.959625 0.000000 0.281282
vn -0.959625 0.000000 0.281281
vn 0.959625 0.000000 0.281282
vn 0.959625 0.000000 0.281282
vn -0.959626 0.000000 0.281281
vn -0.959626 0.000000 0.281281
vn 0.959625 0.000000 0.281282
vn 0.959625 0.000000 0.281281
vn -0.974946 0.222444 0.000000
vn -0.974946 0.222444 0.000000
vn -0.974945 0.222444 0.000000
vn -0.974945 0.222444 0.000000
vn 0.974946 0.222444 0.000000
vn 0.974946 0.222444 0.000000
vn 0.974945 0.222444 0.000000
vn 0.974945 0.222444 0.000000
vn 0.000000 0.000000 1.000000
vn 0.000000 0.000000 1.000000
vn 0.000000 0.000000 1.000000
vn 0.000000 0.000000 1.000000
vn 0.000000 0.000000 1.000000
vn 0.000000 0.000000 1.000000
vn 0.000000 0.000000 1.000000
vn 0.000000 0.000000 1.000000
vn 0.000000 1.000000 0.000000
vn 0.000000 1.000000 0.000000
vn 0.000000 1.000000 0.000000
vn 0.000000 1.000000 0.000000
vn 0.000000 1.000000 0.000000
vn 0.000000 1.000000 0.000000
vn 0.000000 1.000000 0.000000
vn 0.000000 1.000000 0.000000
vn 0.000000 0.000000 -1.000000
vn 0.000000 0.000000 -1.000000
vn 0.000000 0.000000 -1.000000
vn 0.000000 0.000000 -1.000000
vn 0.000000 0.000000 -1.000000
vn 0.000000 0.000000 -1.000000
vn 0.000000 0.000000 -1.000000
vn 0.000000 0.000000 -1.000000
vn 0.000000 -1.000000 0.000000
vn 0.000000 -1.000000 0.000000
vn 0.000000 -1.000000 0.000000
vn 0.000000 -1.000000 0.000000
vn 0.000000 -1.000000 0.000000
vn 0.000000 -1.000000 0.000000
vn 0.000000 -1.000000 0.000000
vn 0.000000 -1.000000 0.000000
vn 0.000000 0.000000 -1.000000
vn 0.000000 0.000000 -1.000000
vn 0.000000 0.000000 -1.000000
vn 0.000000 0.000000 -1.000000
vn 0.000000 0.000000 -1.000000
vn 0.000000 0.000000 -1.000000
vn 0.000000 0.000000 -1.000000
vn 0.000000 0.000000 -1.000000
vn 0.000000 0.000000 -1.000000
vn 0.000000 0.000000 -1.000000
vn 0.000000 0.000000 -1.000000
vn 0.000000 0.000000 -1.000000
vn 0.000000 -1.000000 0.000000
vn 0.000000 -1.000000 0.000000
vn 0.000000 -1.000000 0.000000
vn 0.000000 -1.000000 0.000000
vn 0.000000 -1.000000 0.000000
vn 0.000000 -1.000000 0.000000
vn 0.000000 -1.000000 0.000000
vn 0.000000 -1.000000 0.000000
vn 0.000000 -1.000000 0.000000
vn 0.000000 -1.000000 0.000000
vn 0.000000 -1.000000 0.000000
vn 0.000000 -1.000000 0.000000
vn 0.000000 0.000000 1.000000
vn 0.000000 0.000000 1.000000
vn 0.000000 0.000000 1.000000
vn 0.000000 0.000000 1.000000
vn 0.000000 0.000000 1.000000
vn 0.000000 0.000000 1.000000
vn 0.000000 0.000000 1.000000
vn 0.000000 0.000000 1.000000
vn 0.000000 0.000000 1.000000
vn 0.000000 0.000000 1.000000
vn 0.000000 0.000000 1.000000
vn 0.000000 0.000000 1.000000
vn 0.000000 1.000000 0.000000
vn 0.000000 1.000000 0.000000
vn 0.000000 1.000000 0.000000
vn 0.000000 1.000000 0.000000
vn 0.000000 1.000000 0.000000
vn 0.000000 1.000000 0.000000
vn 0.000000 1.000000 0.000000
vn 0.000000 1.000000 0.000000
vn 0.000000 1.000000 0.000000
vn 0.000000 1.000000 0.000000
vn 0.000000 1.000000 0.000000
vn 0.000000 1.000000 0.000000
s 1
g pCube2
usemtl lambert5SG
f 1/193/1 2/27/2 4/179/3 3/187/4
f 3/186/4 4/180/3 6/169/5 5/173/6
f 5/172/6 6/170/5 8/159/7 7/163/8
s 2
f 7/162/9 8/160/10 10/149/11 9/153/12
f 9/152/12 10/150/11 12/139/13 11/143/14
f 11/142/14 12/140/13 14/129/15 13/133/16
s 3
f 13/132/17 14/130/18 16/119/19 15/123/20
f 15/122/20 16/120/19 18/109/21 17/113/22
f 17/112/22 18/110/21 20/99/23 19/103/24
s 4
f 19/102/25 20/100/26 22/89/27 21/93/28
f 21/92/28 22/90/27 24/79/29 23/83/30
f 23/82/30 24/80/29 2/182/31 1/70/32
s 5
f 25/191/33 26/264/34 70/201/35 69/206/36
s 6
f 26/263/37 25/25/38 27/189/39 28/261/40
f 28/260/40 27/262/39 33/175/41 34/253/42
s 7
f 29/258/43 30/72/44 71/77/45 72/200/46
s 8
f 30/184/47 29/259/48 32/256/49 31/255/50
f 31/177/50 32/257/49 36/250/51 35/249/52
s 6
f 34/252/42 33/254/41 38/165/53 37/247/54
s 8
f 35/167/52 36/251/51 40/244/55 39/243/56
s 9
f 37/246/57 38/248/58 41/155/59 42/241/60
s 10
f 39/157/61 40/245/62 44/238/63 43/237/64
s 9
f 42/240/60 41/242/59 45/145/65 46/235/66
s 10
f 43/147/64 44/239/63 48/232/67 47/231/68
s 9
f 46/234/66 45/236/65 50/135/69 49/229/70
s 10
f 47/137/68 48/233/67 52/226/71 51/225/72
s 11
f 49/228/73 50/230/74 53/125/75 54/223/76
s 12
f 51/127/77 52/227/78 56/220/79 55/219/80
s 11
f 54/222/76 53/224/75 57/115/81 58/217/82
s 12
f 55/117/80 56/221/79 60/214/83 59/213/84
s 11
f 58/216/82 57/218/81 62/105/85 61/211/86
s 12
f 59/107/84 60/215/83 64/208/87 63/207/88
s 5
f 61/210/89 62/212/90 65/95/91 66/204/92
s 7
f 63/97/93 64/209/94 68/197/95 67/196/96
s 5
f 66/203/92 65/205/91 69/85/36 70/202/35
s 7
f 67/87/96 68/198/95 72/199/46 71/195/45
s 1
f 25/192/97 1/1/1 3/188/4 27/29/98
f 2/183/2 30/7/99 31/178/100 4/31/3
f 27/190/98 3/26/4 5/174/6 33/33/101
f 4/181/3 31/28/100 35/168/102 6/35/5
f 33/176/101 5/30/6 7/164/8 38/37/103
f 6/171/5 35/32/102 39/158/104 8/39/7
s 2
f 38/166/105 7/34/9 9/154/12 41/41/106
f 8/161/10 39/36/107 43/148/108 10/43/11
f 41/156/106 9/38/12 11/144/14 45/45/109
f 10/151/11 43/40/108 47/138/110 12/47/13
f 45/146/109 11/42/14 13/134/16 50/49/111
f 12/141/13 47/44/110 51/128/112 14/51/15
s 3
f 50/136/113 13/46/17 15/124/20 53/53/114
f 14/131/18 51/48/115 55/118/116 16/55/19
f 53/126/114 15/50/20 17/114/22 57/57/117
f 16/121/19 55/52/116 59/108/118 18/59/21
f 57/116/117 17/54/22 19/104/24 62/61/119
f 18/111/21 59/56/118 63/98/120 20/63/23
s 4
f 62/106/121 19/58/25 21/94/28 65/65/122
f 20/101/26 63/60/123 67/88/124 22/67/27
f 65/96/122 21/62/28 23/84/30 69/69/125
f 22/91/27 67/64/124 71/78/126 24/71/29
f 69/86/125 23/66/30 1/194/32 25/3/127
f 24/81/29 71/68/126 30/185/128 2/2/31
s off
f 26/4/129 28/283/130 32/73/131 29/286/132
f 28/75/133 34/281/134 36/74/135 32/284/136
f 34/76/137 37/287/138 40/8/139 36/282/140
f 37/9/141 42/277/142 44/12/143 40/288/144
f 42/10/145 46/275/146 48/14/147 44/278/148
f 46/11/149 49/279/150 52/15/151 48/276/152
f 49/13/153 54/271/154 56/18/155 52/280/156
f 54/16/157 58/269/158 60/20/159 56/272/160
f 58/17/161 61/273/162 64/21/163 60/270/164
f 61/19/165 66/267/166 68/24/167 64/274/168
f 66/22/169 70/265/170 72/6/171 68/268/172
f 70/23/173 26/285/174 29/5/175 72/266/176
