# This file uses centimeters as units for non-parametric coordinates.

mtllib Nest Onder klein.mtl
g default
v 0.508901 0.104551 -1.288326
v 0.008915 0.093087 -1.292048
v -0.491075 0.104551 -1.295226
v 0.505935 0.046761 -0.858408
v 0.005949 0.031532 -0.862219
v -0.494041 0.046761 -0.865308
v 0.502967 0.001037 -0.428204
v 0.002981 -0.016740 -0.432075
v -0.497010 0.001037 -0.435103
v 0.499994 -0.022282 0.002532
v 0.000009 -0.040961 -0.001361
v -0.499982 -0.022282 -0.004368
v 0.497018 -0.019389 0.433888
v -0.002967 -0.037167 0.430017
v -0.502958 -0.019389 0.426988
v 0.494038 0.005907 0.865775
v -0.005948 -0.009322 0.861964
v -0.505938 0.005907 0.858875
v 0.491056 0.043271 1.297948
v -0.008930 0.031807 1.294226
v -0.508920 0.043271 1.291048
vt 0.000000 0.000000
vt 0.193269 0.000000
vt 0.386539 0.000000
vt 0.000000 0.166667
vt 0.193269 0.166667
vt 0.386539 0.166667
vt 0.000000 0.333333
vt 0.193269 0.333333
vt 0.386539 0.333333
vt 0.000000 0.500000
vt 0.193269 0.500000
vt 0.386539 0.500000
vt 0.000000 0.666667
vt 0.193269 0.666667
vt 0.386539 0.666667
vt 0.000000 0.833333
vt 0.193269 0.833333
vt 0.386539 0.833333
vt 0.000000 1.000000
vt 0.193269 1.000000
vt 0.386539 1.000000
vn -0.027465 0.990155 0.137258
vn -0.000949 0.990503 0.137489
vn -0.000849 0.992400 0.123050
vn -0.030539 0.991956 0.122847
vn 0.025568 0.990155 0.137624
vn 0.028841 0.991956 0.123257
vn -0.000565 0.996642 0.081886
vn -0.035223 0.996037 0.081668
vn 0.034093 0.996037 0.082146
vn -0.000163 0.999719 0.023687
vn -0.036605 0.999055 0.023419
vn 0.036278 0.999055 0.023922
vn 0.000239 0.999402 -0.034593
vn -0.034419 0.998799 -0.034882
vn 0.034897 0.998799 -0.034404
vn 0.000524 0.997114 -0.075912
vn -0.029166 0.996670 -0.076140
vn 0.030214 0.996670 -0.075730
vn 0.000624 0.995903 -0.090425
vn -0.025893 0.995553 -0.090576
vn 0.027140 0.995553 -0.090210
s 1
g pPlane26
usemtl aiStandardSurface1SG
f 1/1/1 2/2/2 5/5/3 4/4/4
f 2/2/2 3/3/5 6/6/6 5/5/3
f 4/4/4 5/5/3 8/8/7 7/7/8
f 5/5/3 6/6/6 9/9/9 8/8/7
f 7/7/8 8/8/7 11/11/10 10/10/11
f 8/8/7 9/9/9 12/12/12 11/11/10
f 10/10/11 11/11/10 14/14/13 13/13/14
f 11/11/10 12/12/12 15/15/15 14/14/13
f 13/13/14 14/14/13 17/17/16 16/16/17
f 14/14/13 15/15/15 18/18/18 17/17/16
f 16/16/17 17/17/16 20/20/19 19/19/20
f 17/17/16 18/18/18 21/21/21 20/20/19
