# This file uses centimeters as units for non-parametric coordinates.

mtllib Nest onder Groot.mtl
g default
v -3.018175 0.951616 3.051864
v -2.421516 0.854032 3.051864
v -1.824857 0.709248 3.051864
v -1.228197 0.562729 3.051864
v -0.631538 0.455652 3.051864
v -0.034878 0.416562 3.051864
v 0.561781 0.455652 3.051864
v 1.158440 0.562729 3.051864
v 1.755100 0.709248 3.051864
v 2.351759 0.854032 3.051864
v 2.948418 0.951616 3.051864
v -3.018175 0.854032 2.455205
v -2.421516 0.655233 2.455205
v -1.824857 0.416562 2.455205
v -1.228197 0.194032 2.455205
v -0.631538 0.037518 2.455205
v -0.034878 -0.018715 2.455205
v 0.561781 0.037518 2.455205
v 1.158440 0.194032 2.455205
v 1.755100 0.416562 2.455205
v 2.351759 0.655233 2.455205
v 2.948418 0.854032 2.455205
v -3.018175 0.709248 1.858545
v -2.421516 0.416562 1.858545
v -1.824857 0.091695 1.858545
v -1.228197 -0.197979 1.858545
v -0.631538 -0.375529 1.858545
v -0.034878 -0.432751 1.858545
v 0.561781 -0.375529 1.858545
v 1.158440 -0.197979 1.858545
v 1.755100 0.091695 1.858545
v 2.351759 0.416562 1.858545
v 2.948418 0.709248 1.858545
v -3.018175 0.562729 1.261886
v -2.421516 0.194032 1.261886
v -1.824857 -0.197979 1.261886
v -1.228197 -0.488782 1.261886
v -0.631538 -0.649311 1.261886
v -0.034878 -0.700472 1.261886
v 0.561781 -0.649311 1.261886
v 1.158440 -0.488782 1.261886
v 1.755100 -0.197979 1.261886
v 2.351759 0.194032 1.261886
v 2.948418 0.562729 1.261886
v -3.018175 0.455652 0.665227
v -2.421516 0.037518 0.665227
v -1.824857 -0.375529 0.665227
v -1.228197 -0.649311 0.665227
v -0.631538 -0.800403 0.665227
v -0.034878 -0.849877 0.665227
v 0.561781 -0.800403 0.665227
v 1.158440 -0.649311 0.665227
v 1.755100 -0.375529 0.665227
v 2.351759 0.037518 0.665227
v 2.948418 0.455652 0.665227
v -3.018175 0.416562 0.068567
v -2.421516 -0.018715 0.068567
v -1.824857 -0.432751 0.068567
v -1.228197 -0.700472 0.068567
v -0.631538 -0.849877 0.068567
v -0.034878 -0.899672 0.068567
v 0.561781 -0.849877 0.068567
v 1.158440 -0.700472 0.068567
v 1.755100 -0.432751 0.068567
v 2.351759 -0.018715 0.068567
v 2.948418 0.416562 0.068567
v -3.018175 0.455652 -0.528092
v -2.421516 0.037518 -0.528092
v -1.824857 -0.375529 -0.528092
v -1.228197 -0.649311 -0.528092
v -0.631538 -0.800403 -0.528092
v -0.034878 -0.849877 -0.528092
v 0.561781 -0.800403 -0.528092
v 1.158440 -0.649311 -0.528092
v 1.755100 -0.375529 -0.528092
v 2.351759 0.037518 -0.528092
v 2.948418 0.455652 -0.528092
v -3.018175 0.562729 -1.124751
v -2.421516 0.194032 -1.124751
v -1.824857 -0.197979 -1.124751
v -1.228197 -0.488782 -1.124751
v -0.631538 -0.649311 -1.124751
v -0.034878 -0.700472 -1.124751
v 0.561781 -0.649311 -1.124751
v 1.158440 -0.488782 -1.124751
v 1.755100 -0.197979 -1.124751
v 2.351759 0.194032 -1.124751
v 2.948418 0.562729 -1.124751
v -3.018175 0.709248 -1.721411
v -2.421516 0.416562 -1.721411
v -1.824857 0.091695 -1.721411
v -1.228197 -0.197979 -1.721411
v -0.631538 -0.375529 -1.721411
v -0.034878 -0.432751 -1.721411
v 0.561781 -0.375529 -1.721411
v 1.158440 -0.197979 -1.721411
v 1.755100 0.091695 -1.721411
v 2.351759 0.416562 -1.721411
v 2.948418 0.709248 -1.721411
v -3.018175 0.854032 -2.318070
v -2.421516 0.655233 -2.318070
v -1.824857 0.416562 -2.318070
v -1.228197 0.194032 -2.318070
v -0.631538 0.037518 -2.318070
v -0.034878 -0.018715 -2.318070
v 0.561781 0.037518 -2.318070
v 1.158440 0.194032 -2.318070
v 1.755100 0.416562 -2.318070
v 2.351759 0.655233 -2.318070
v 2.948418 0.854032 -2.318070
v -3.018175 0.951616 -2.914729
v -2.421516 0.854032 -2.914729
v -1.824857 0.709248 -2.914729
v -1.228197 0.562729 -2.914729
v -0.631538 0.455652 -2.914729
v -0.034878 0.416562 -2.914729
v 0.561781 0.455652 -2.914729
v 1.158440 0.562729 -2.914729
v 1.755100 0.709248 -2.914729
v 2.351759 0.854032 -2.914729
v 2.948418 0.951616 -2.914729
vt 0.024549 0.024591
vt 0.119692 0.024591
vt 0.217327 0.027467
vt 0.314529 0.031852
vt 0.409849 0.035783
vt 0.503318 0.037353
vt 0.596665 0.035792
vt 0.691507 0.031793
vt 0.787749 0.026956
vt 0.884090 0.022820
vt 0.979156 0.020213
vt 0.026430 0.119638
vt 0.125062 0.123800
vt 0.224969 0.131296
vt 0.322132 0.140075
vt 0.414582 0.147083
vt 0.503454 0.149692
vt 0.592279 0.146872
vt 0.684511 0.139559
vt 0.781289 0.130119
vt 0.880731 0.121412
vt 0.979295 0.115341
vt 0.029717 0.216155
vt 0.132899 0.223544
vt 0.235451 0.234011
vt 0.331950 0.244991
vt 0.420009 0.251799
vt 0.503674 0.253880
vt 0.587349 0.251590
vt 0.675399 0.244438
vt 0.771892 0.232831
vt 0.874486 0.221208
vt 0.977901 0.212102
vt 0.033817 0.312578
vt 0.141524 0.320463
vt 0.246221 0.330534
vt 0.339261 0.338107
vt 0.423341 0.341984
vt 0.503856 0.343154
vt 0.584385 0.341872
vt 0.668643 0.337778
vt 0.761956 0.329718
vt 0.867131 0.318686
vt 0.975574 0.309202
vt 0.037138 0.407509
vt 0.148164 0.412782
vt 0.252735 0.418592
vt 0.342848 0.422242
vt 0.425003 0.424175
vt 0.503927 0.424817
vt 0.582960 0.424217
vt 0.665366 0.422261
vt 0.755996 0.418364
vt 0.861466 0.411857
vt 0.973773 0.405259
vt 0.038098 0.500896
vt 0.150354 0.501621
vt 0.254483 0.502287
vt 0.343741 0.502798
vt 0.425381 0.503146
vt 0.503917 0.503370
vt 0.582562 0.503420
vt 0.664589 0.503262
vt 0.754557 0.502809
vt 0.859945 0.501835
vt 0.974099 0.500166
vt 0.036000 0.594223
vt 0.147090 0.590457
vt 0.251851 0.586003
vt 0.342163 0.583389
vt 0.424540 0.582231
vt 0.503763 0.582046
vt 0.583141 0.582790
vt 0.665980 0.584466
vt 0.757246 0.587505
vt 0.863639 0.592162
vt 0.977227 0.595575
vt 0.031370 0.689047
vt 0.139273 0.682724
vt 0.244299 0.674129
vt 0.337767 0.667729
vt 0.422345 0.664716
vt 0.503425 0.664126
vt 0.584682 0.665657
vt 0.669877 0.669634
vt 0.764468 0.676976
vt 0.871540 0.686433
vt 0.982393 0.693206
vt 0.025794 0.785423
vt 0.129240 0.779634
vt 0.232228 0.770754
vt 0.329356 0.761187
vt 0.418200 0.755473
vt 0.502803 0.754208
vt 0.587629 0.756998
vt 0.677182 0.764262
vt 0.775762 0.775514
vt 0.881060 0.785942
vt 0.987742 0.792953
vt 0.020954 0.882053
vt 0.119907 0.879331
vt 0.220078 0.873606
vt 0.317923 0.866617
vt 0.411416 0.861196
vt 0.501675 0.859819
vt 0.592238 0.863573
vt 0.686698 0.871448
vt 0.786328 0.880848
vt 0.889205 0.888763
vt 0.991543 0.893228
vt 0.017685 0.977470
vt 0.113203 0.978259
vt 0.210430 0.977416
vt 0.308023 0.975479
vt 0.404549 0.973920
vt 0.499896 0.974371
vt 0.595702 0.977486
vt 0.693632 0.982515
vt 0.793587 0.987648
vt 0.894003 0.991135
vt 0.993138 0.992330
vn 0.234334 0.943491 -0.234334
vn 0.260091 0.917811 -0.299961
vn 0.322939 0.889619 -0.322939
vn 0.299961 0.917811 -0.260091
vn 0.273908 0.867617 -0.414988
vn 0.323764 0.842877 -0.429808
vn 0.223767 0.834576 -0.503400
vn 0.256187 0.820358 -0.511254
vn 0.125529 0.818077 -0.561242
vn 0.138953 0.816577 -0.560262
vn 0.000000 0.813398 -0.581708
vn 0.000000 0.817791 -0.575515
vn -0.125529 0.818077 -0.561242
vn -0.138953 0.816577 -0.560262
vn -0.223767 0.834576 -0.503400
vn -0.256187 0.820358 -0.511255
vn -0.273908 0.867617 -0.414988
vn -0.323763 0.842878 -0.429808
vn -0.260091 0.917811 -0.299961
vn -0.322939 0.889619 -0.322939
vn -0.234334 0.943491 -0.234334
vn -0.299961 0.917811 -0.260091
vn 0.429808 0.842877 -0.323763
vn 0.414988 0.867617 -0.273908
vn 0.408030 0.816714 -0.408030
vn 0.307643 0.830364 -0.464598
vn 0.159894 0.857264 -0.489421
vn 0.000000 0.868831 -0.495109
vn -0.159894 0.857264 -0.489421
vn -0.307643 0.830364 -0.464598
vn -0.408030 0.816714 -0.408030
vn -0.429808 0.842877 -0.323764
vn -0.414988 0.867617 -0.273908
vn 0.511254 0.820358 -0.256187
vn 0.503400 0.834576 -0.223767
vn 0.464598 0.830364 -0.307643
vn 0.330544 0.884015 -0.330544
vn 0.165961 0.928463 -0.332286
vn -0.000000 0.943564 -0.331189
vn -0.165961 0.928463 -0.332286
vn -0.330544 0.884015 -0.330544
vn -0.464598 0.830364 -0.307643
vn -0.511254 0.820358 -0.256187
vn -0.503400 0.834576 -0.223766
vn 0.560262 0.816577 -0.138953
vn 0.561242 0.818077 -0.125529
vn 0.489421 0.857264 -0.159894
vn 0.332286 0.928463 -0.165961
vn 0.164668 0.972507 -0.164668
vn -0.000000 0.986376 -0.164504
vn -0.164668 0.972507 -0.164668
vn -0.332286 0.928463 -0.165961
vn -0.489421 0.857264 -0.159894
vn -0.560262 0.816577 -0.138953
vn -0.561242 0.818077 -0.125529
vn 0.575515 0.817791 0.000000
vn 0.581708 0.813398 0.000000
vn 0.495109 0.868831 0.000000
vn 0.331189 0.943564 0.000000
vn 0.164503 0.986376 0.000000
vn 0.000000 1.000000 -0.000000
vn -0.164504 0.986376 0.000000
vn -0.331189 0.943564 0.000000
vn -0.495109 0.868831 -0.000000
vn -0.575515 0.817791 0.000000
vn -0.581708 0.813398 0.000000
vn 0.560262 0.816577 0.138953
vn 0.561242 0.818077 0.125529
vn 0.489421 0.857264 0.159894
vn 0.332286 0.928463 0.165961
vn 0.164668 0.972507 0.164668
vn 0.000000 0.986376 0.164504
vn -0.164668 0.972507 0.164668
vn -0.332286 0.928463 0.165961
vn -0.489421 0.857264 0.159894
vn -0.560262 0.816577 0.138953
vn -0.561242 0.818077 0.125529
vn 0.511254 0.820358 0.256187
vn 0.503400 0.834576 0.223767
vn 0.464598 0.830364 0.307643
vn 0.330544 0.884015 0.330544
vn 0.165961 0.928463 0.332286
vn -0.000000 0.943564 0.331189
vn -0.165961 0.928463 0.332286
vn -0.330544 0.884015 0.330544
vn -0.464598 0.830364 0.307643
vn -0.511254 0.820358 0.256187
vn -0.503400 0.834576 0.223766
vn 0.429808 0.842877 0.323763
vn 0.414988 0.867617 0.273908
vn 0.408030 0.816714 0.408030
vn 0.307643 0.830364 0.464598
vn 0.159894 0.857264 0.489421
vn 0.000000 0.868831 0.495109
vn -0.159894 0.857264 0.489421
vn -0.307643 0.830364 0.464598
vn -0.408030 0.816714 0.408030
vn -0.429808 0.842877 0.323763
vn -0.414988 0.867617 0.273908
vn 0.322939 0.889619 0.322939
vn 0.299961 0.917811 0.260091
vn 0.323764 0.842877 0.429808
vn 0.256187 0.820358 0.511255
vn 0.138953 0.816577 0.560262
vn 0.000000 0.817791 0.575515
vn -0.138953 0.816577 0.560262
vn -0.256187 0.820358 0.511254
vn -0.323764 0.842877 0.429808
vn -0.322939 0.889618 0.322939
vn -0.299961 0.917811 0.260091
vn 0.260091 0.917811 0.299961
vn 0.234334 0.943491 0.234334
vn 0.273908 0.867617 0.414988
vn 0.223766 0.834576 0.503400
vn 0.125529 0.818077 0.561242
vn 0.000000 0.813398 0.581708
vn -0.125529 0.818077 0.561242
vn -0.223766 0.834576 0.503400
vn -0.273908 0.867617 0.414988
vn -0.260091 0.917811 0.299961
vn -0.234334 0.943491 0.234334
s 1
g pPlane17
usemtl aiStandardSurface2SG
f 1/1/1 2/2/2 13/13/3 12/12/4
f 2/2/2 3/3/5 14/14/6 13/13/3
f 3/3/5 4/4/7 15/15/8 14/14/6
f 4/4/7 5/5/9 16/16/10 15/15/8
f 5/5/9 6/6/11 17/17/12 16/16/10
f 6/6/11 7/7/13 18/18/14 17/17/12
f 7/7/13 8/8/15 19/19/16 18/18/14
f 8/8/15 9/9/17 20/20/18 19/19/16
f 9/9/17 10/10/19 21/21/20 20/20/18
f 10/10/19 11/11/21 22/22/22 21/21/20
f 12/12/4 13/13/3 24/24/23 23/23/24
f 13/13/3 14/14/6 25/25/25 24/24/23
f 14/14/6 15/15/8 26/26/26 25/25/25
f 15/15/8 16/16/10 27/27/27 26/26/26
f 16/16/10 17/17/12 28/28/28 27/27/27
f 17/17/12 18/18/14 29/29/29 28/28/28
f 18/18/14 19/19/16 30/30/30 29/29/29
f 19/19/16 20/20/18 31/31/31 30/30/30
f 20/20/18 21/21/20 32/32/32 31/31/31
f 21/21/20 22/22/22 33/33/33 32/32/32
f 23/23/24 24/24/23 35/35/34 34/34/35
f 24/24/23 25/25/25 36/36/36 35/35/34
f 25/25/25 26/26/26 37/37/37 36/36/36
f 26/26/26 27/27/27 38/38/38 37/37/37
f 27/27/27 28/28/28 39/39/39 38/38/38
f 28/28/28 29/29/29 40/40/40 39/39/39
f 29/29/29 30/30/30 41/41/41 40/40/40
f 30/30/30 31/31/31 42/42/42 41/41/41
f 31/31/31 32/32/32 43/43/43 42/42/42
f 32/32/32 33/33/33 44/44/44 43/43/43
f 34/34/35 35/35/34 46/46/45 45/45/46
f 35/35/34 36/36/36 47/47/47 46/46/45
f 36/36/36 37/37/37 48/48/48 47/47/47
f 37/37/37 38/38/38 49/49/49 48/48/48
f 38/38/38 39/39/39 50/50/50 49/49/49
f 39/39/39 40/40/40 51/51/51 50/50/50
f 40/40/40 41/41/41 52/52/52 51/51/51
f 41/41/41 42/42/42 53/53/53 52/52/52
f 42/42/42 43/43/43 54/54/54 53/53/53
f 43/43/43 44/44/44 55/55/55 54/54/54
f 45/45/46 46/46/45 57/57/56 56/56/57
f 46/46/45 47/47/47 58/58/58 57/57/56
f 47/47/47 48/48/48 59/59/59 58/58/58
f 48/48/48 49/49/49 60/60/60 59/59/59
f 49/49/49 50/50/50 61/61/61 60/60/60
f 50/50/50 51/51/51 62/62/62 61/61/61
f 51/51/51 52/52/52 63/63/63 62/62/62
f 52/52/52 53/53/53 64/64/64 63/63/63
f 53/53/53 54/54/54 65/65/65 64/64/64
f 54/54/54 55/55/55 66/66/66 65/65/65
f 56/56/57 57/57/56 68/68/67 67/67/68
f 57/57/56 58/58/58 69/69/69 68/68/67
f 58/58/58 59/59/59 70/70/70 69/69/69
f 59/59/59 60/60/60 71/71/71 70/70/70
f 60/60/60 61/61/61 72/72/72 71/71/71
f 61/61/61 62/62/62 73/73/73 72/72/72
f 62/62/62 63/63/63 74/74/74 73/73/73
f 63/63/63 64/64/64 75/75/75 74/74/74
f 64/64/64 65/65/65 76/76/76 75/75/75
f 65/65/65 66/66/66 77/77/77 76/76/76
f 67/67/68 68/68/67 79/79/78 78/78/79
f 68/68/67 69/69/69 80/80/80 79/79/78
f 69/69/69 70/70/70 81/81/81 80/80/80
f 70/70/70 71/71/71 82/82/82 81/81/81
f 71/71/71 72/72/72 83/83/83 82/82/82
f 72/72/72 73/73/73 84/84/84 83/83/83
f 73/73/73 74/74/74 85/85/85 84/84/84
f 74/74/74 75/75/75 86/86/86 85/85/85
f 75/75/75 76/76/76 87/87/87 86/86/86
f 76/76/76 77/77/77 88/88/88 87/87/87
f 78/78/79 79/79/78 90/90/89 89/89/90
f 79/79/78 80/80/80 91/91/91 90/90/89
f 80/80/80 81/81/81 92/92/92 91/91/91
f 81/81/81 82/82/82 93/93/93 92/92/92
f 82/82/82 83/83/83 94/94/94 93/93/93
f 83/83/83 84/84/84 95/95/95 94/94/94
f 84/84/84 85/85/85 96/96/96 95/95/95
f 85/85/85 86/86/86 97/97/97 96/96/96
f 86/86/86 87/87/87 98/98/98 97/97/97
f 87/87/87 88/88/88 99/99/99 98/98/98
f 89/89/90 90/90/89 101/101/100 100/100/101
f 90/90/89 91/91/91 102/102/102 101/101/100
f 91/91/91 92/92/92 103/103/103 102/102/102
f 92/92/92 93/93/93 104/104/104 103/103/103
f 93/93/93 94/94/94 105/105/105 104/104/104
f 94/94/94 95/95/95 106/106/106 105/105/105
f 95/95/95 96/96/96 107/107/107 106/106/106
f 96/96/96 97/97/97 108/108/108 107/107/107
f 97/97/97 98/98/98 109/109/109 108/108/108
f 98/98/98 99/99/99 110/110/110 109/109/109
f 100/100/101 101/101/100 112/112/111 111/111/112
f 101/101/100 102/102/102 113/113/113 112/112/111
f 102/102/102 103/103/103 114/114/114 113/113/113
f 103/103/103 104/104/104 115/115/115 114/114/114
f 104/104/104 105/105/105 116/116/116 115/115/115
f 105/105/105 106/106/106 117/117/117 116/116/116
f 106/106/106 107/107/107 118/118/118 117/117/117
f 107/107/107 108/108/108 119/119/119 118/118/118
f 108/108/108 109/109/109 120/120/120 119/119/119
f 109/109/109 110/110/110 121/121/121 120/120/120
