# This file uses centimeters as units for non-parametric coordinates.

mtllib Rock 10.mtl
g default
v -0.388019 -0.200439 0.451413
v -0.387904 -0.173736 0.487164
v -0.223630 -0.258166 0.489800
v -0.226850 -0.237870 0.528971
v -0.018532 -0.285622 0.491279
v -0.020973 -0.275016 0.534148
v 0.115487 -0.247803 0.561033
v 0.123650 -0.220212 0.606715
v 0.298947 -0.238565 0.556385
v 0.319448 -0.204574 0.607001
v 0.482385 -0.233598 0.377682
v 0.457821 -0.230357 0.338215
v -0.376758 -0.037820 0.553239
v -0.349045 -0.000689 0.569821
v -0.200075 -0.032142 0.654265
v -0.225318 -0.075393 0.642167
v -0.009660 -0.036187 0.745419
v -0.015191 -0.079415 0.741833
v 0.119637 -0.069940 0.614401
v 0.111833 -0.110940 0.628253
v 0.478718 -0.146426 0.577647
v 0.459578 -0.181704 0.589279
v 0.552363 -0.174245 0.466363
v 0.544298 -0.217561 0.441145
v -0.217165 0.397560 0.595751
v -0.041183 0.410659 0.623450
v 0.031367 0.456519 0.573332
v 0.089882 0.035924 0.468010
v 0.359393 0.056705 0.460291
v 0.475416 0.006644 0.460820
v -0.399789 0.393150 0.223889
v -0.111122 0.485952 0.223797
v 0.106759 0.128857 0.223553
v 0.141817 0.158798 0.177886
v 0.343106 0.175811 0.053537
v 0.489892 0.082520 0.053941
v -0.257312 0.357990 -0.151494
v -0.101738 0.396092 -0.145588
v 0.057920 0.017859 -0.145759
v 0.279239 0.125972 -0.151843
v 0.492320 0.103995 -0.161489
v 0.571320 0.089797 -0.166175
v -0.125735 0.396654 -0.433381
v 0.006972 0.010670 -0.415495
v 0.104812 -0.011380 -0.413758
v 0.317073 -0.052725 -0.417985
v 0.490098 0.085222 -0.298233
v 0.515626 0.094909 -0.263676
v -0.308096 0.289346 -0.662145
v -0.258034 0.090648 -0.671630
v -0.300750 -0.162912 -0.678335
v -0.378755 0.056929 -0.598226
v -0.028106 -0.205670 -0.667730
v -0.014080 -0.136066 -0.669602
v 0.017004 -0.210395 -0.640930
v 0.009562 -0.148643 -0.646416
v 0.295980 -0.138681 -0.496927
v 0.313779 -0.086037 -0.470085
v 0.463381 -0.073382 -0.515771
v 0.460826 -0.032858 -0.415381
v 0.673771 0.011871 -0.436838
v 0.625492 0.021192 -0.468078
v 0.621915 0.058887 -0.442174
v 0.651116 0.047543 -0.411686
v -0.500930 -0.204990 -0.425896
v -0.451209 -0.215047 -0.455832
v -0.047600 -0.194638 -0.455130
v 0.135216 -0.239141 -0.458871
v 0.309821 -0.195790 -0.452403
v 0.482909 -0.136584 -0.483219
v 0.539918 -0.178435 -0.481442
v 0.562305 -0.176760 -0.453198
v -0.569365 -0.222721 -0.168251
v -0.518821 -0.254538 -0.145439
v -0.090824 -0.238481 -0.144825
v 0.083406 -0.229336 -0.144888
v 0.253809 -0.255809 -0.164914
v 0.394601 -0.221501 -0.273269
v 0.486621 -0.198847 -0.310389
v 0.458567 -0.205412 -0.300037
v -0.386279 -0.224756 0.137554
v -0.344479 -0.240400 0.125212
v -0.169867 -0.234092 0.125517
v -0.015394 -0.233777 0.125227
v 0.168665 -0.231130 0.107428
v 0.366711 -0.225800 0.020870
v 0.533081 -0.248745 -0.026147
v 0.434456 -0.233107 -0.028932
v 0.750866 -0.054273 -0.256000
v 0.739653 -0.095386 -0.271113
v 0.603313 -0.210563 0.046889
v 0.582843 -0.210137 0.033640
v -0.555344 0.189573 -0.226377
v -0.579802 -0.055980 -0.214229
v -0.530681 -0.045772 0.216005
v -0.531997 -0.092109 0.202240
vt 0.200098 0.618826
vt 0.195062 0.603904
vt 0.314809 0.646076
vt 0.316627 0.660937
vt 0.202489 0.470227
vt 0.329990 0.504258
vt 0.455341 0.597075
vt 0.445176 0.668974
vt 0.311310 0.726248
vt 0.211713 0.667153
vt 0.456328 0.492162
vt 0.603054 0.558813
vt 0.578979 0.633594
vt 0.426074 0.719386
vt 0.219217 0.679709
vt 0.308794 0.741214
vt 0.622636 0.620432
vt 0.616359 0.701781
vt 0.513571 0.717403
vt 0.531829 0.721370
vt 0.932640 0.075765
vt 0.784683 0.926759
vt 0.852196 0.902454
vt 0.863885 0.911425
vt 0.919795 0.067237
vt 0.758340 0.933177
vt 0.765051 0.849831
vt 0.803410 0.832186
vt 0.925914 0.803358
vt 0.932373 0.808654
vt 0.878106 0.137847
vt 0.889803 0.104073
vt 0.884567 0.100218
vt 0.830753 0.757527
vt 0.966879 0.669341
vt 0.907539 0.644240
vt 0.915834 0.358624
vt 0.883128 0.612393
vt 0.976224 0.615976
vt 0.916527 0.317938
vt 0.765288 0.529956
vt 0.916098 0.518768
vt 0.858930 0.529876
vt 0.735587 0.680234
vt 0.766891 0.520832
vt 0.928669 0.512634
vt 0.310063 0.214387
vt 0.294808 0.194350
vt 0.134371 0.172958
vt 0.277189 0.347401
vt 0.135414 0.309164
vt 0.149978 0.029207
vt 0.179231 0.048106
vt 0.286829 0.445440
vt 0.249528 0.442055
vt 0.684708 0.365208
vt 0.685810 0.354113
vt 0.729748 0.357432
vt 0.714310 0.436845
vt 0.688177 0.272256
vt 0.730884 0.266443
vt 0.780335 0.351559
vt 0.782583 0.440636
vt 0.637620 0.212448
vt 0.740816 0.197749
vt 0.768671 0.261087
vt 0.816948 0.363565
vt 0.821772 0.376291
vt 0.706259 0.498888
vt 0.642153 0.134742
vt 0.740367 0.119913
vt 0.783377 0.191484
vt 0.622421 0.209611
vt 0.677832 0.277244
vt 0.813221 0.250439
vt 0.861601 0.355078
vt 0.870364 0.368415
vt 0.670891 0.073945
vt 0.738430 0.067404
vt 0.786288 0.112786
vt 0.630492 0.143458
vt 0.824652 0.180815
vt 0.858561 0.222444
vt 0.891998 0.296150
vt 0.899369 0.304749
vt 0.750342 0.072431
vt 0.830577 0.107432
vt 0.856340 0.149670
vt 0.873500 0.208161
vt 0.897652 0.205904
vt 0.904993 0.358608
vt 0.827954 0.089250
vt 0.873531 0.092848
vt 0.871555 0.140916
vt 0.915033 0.218137
vt 0.871158 0.074909
vt 0.946492 0.133539
vt 0.926557 0.324909
vt 0.920418 0.220820
vt 0.438769 0.408682
vt 0.694505 0.900182
vt 0.444332 0.356799
vt 0.474445 0.362244
vt 0.670363 0.937538
vt 0.364407 0.465676
vt 0.626364 0.886585
vt 0.391894 0.273315
vt 0.455638 0.274906
vt 0.365197 0.347152
vt 0.605018 0.900722
vt 0.485525 0.844374
vt 0.465050 0.118771
vt 0.568591 0.766425
vt 0.473244 0.837139
vt 0.053986 0.527894
vt 0.112296 0.506390
vt 0.114667 0.642238
vt 0.019627 0.657907
vt 0.126975 0.758163
vt 0.079941 0.768491
vt 0.250808 0.814656
vt 0.138045 0.839990
vt 0.656149 0.507714
vt 0.650131 0.491408
vt 0.709122 0.514032
vt 0.654943 0.440811
vt 0.716611 0.656548
vt 0.664611 0.637850
vt 0.964117 0.508573
vt 0.972983 0.570510
vt 0.286555 0.952199
vt 0.224141 0.916935
vt 0.307041 0.874446
vt 0.461174 0.859572
vt 0.478023 0.868589
vt 0.166653 0.922971
vt 0.552551 0.475968
vt 0.323181 0.097130
vt 0.417329 0.118027
vt 0.781239 0.362448
vt 0.729167 0.368357
vt 0.747597 0.856104
vt 0.449664 0.396240
vt 0.644811 0.868475
vt 0.592844 0.798822
vt 0.323991 0.884711
vt 0.751736 0.949272
vt 0.792075 0.945638
vt 0.966484 0.625007
vt 0.822975 0.526766
vt 0.834317 0.587633
vt 0.816829 0.509747
vt 0.828719 0.474337
vn -0.681025 -0.730354 0.052811
vn -0.714140 -0.551273 0.431396
vn -0.786821 -0.565729 0.246707
vn -0.544352 -0.809024 0.221722
vn -0.408799 -0.780634 0.472752
vn -0.268564 -0.874686 0.403484
vn -0.319919 -0.637618 0.700782
vn -0.062320 -0.931235 0.359051
vn -0.121302 -0.719214 0.684117
vn 0.083766 -0.884447 0.459061
vn 0.071992 -0.866125 0.494616
vn 0.053699 -0.997161 0.052781
vn 0.140841 -0.937257 0.318926
vn -0.039459 -0.999107 0.015096
vn 0.237660 -0.963208 0.125491
vn -0.045379 -0.998246 -0.038015
vn 0.297867 -0.948819 -0.104967
vn -0.762523 -0.333567 0.554338
vn -0.775610 0.225609 0.589516
vn -0.978980 0.104285 0.175280
vn -0.983417 0.098127 0.152521
vn -0.353034 -0.505171 0.787508
vn -0.291770 0.147239 0.945088
vn -0.430242 -0.010600 0.902652
vn -0.430242 -0.010600 0.902652
vn 0.544401 0.250244 0.800628
vn 0.687503 -0.020377 0.725895
vn 0.246332 0.063230 0.967121
vn 0.623849 0.425136 0.655799
vn 0.139272 0.194644 0.970936
vn 0.273346 0.577960 0.768924
vn 0.755949 -0.356566 0.549001
vn 0.755949 -0.356566 0.549001
vn 0.794184 -0.569753 0.211314
vn 0.793643 -0.488457 0.362684
vn 0.765828 -0.635911 0.095523
vn 0.770743 -0.629437 0.098812
vn 0.131276 0.950921 -0.280207
vn 0.698756 0.386948 -0.601674
vn -0.218216 0.932216 -0.288713
vn 0.298232 0.948480 -0.106973
vn 0.512759 0.858105 0.027092
vn -0.238765 0.878980 -0.412779
vn -0.843853 0.092299 -0.528577
vn -0.834890 0.081452 -0.544357
vn -0.958535 0.081042 -0.273208
vn -0.940296 0.102357 -0.324601
vn 0.029535 0.009762 -0.999516
vn 0.029535 0.009762 -0.999516
vn 0.050144 0.006663 -0.998720
vn 0.059573 0.005243 -0.998210
vn -0.767141 -0.125042 -0.629173
vn -0.767141 -0.125042 -0.629173
vn -0.761455 -0.223581 -0.608439
vn -0.685537 -0.534906 -0.493876
vn 0.361724 0.602289 -0.711621
vn 0.471297 0.100061 -0.876280
vn 0.209320 0.745621 -0.632641
vn 0.455791 0.123300 -0.881505
vn -0.237016 0.797145 -0.555323
vn -0.183716 0.782947 -0.594341
vn -0.213782 0.773834 -0.596219
vn -0.237016 0.797145 -0.555323
vn -0.409852 0.766432 -0.494574
vn -0.409852 0.766432 -0.494574
vn -0.243527 0.799494 -0.549094
vn -0.315088 0.788571 -0.528086
vn 0.876042 0.345248 -0.336682
vn 0.857438 0.369798 -0.357840
vn 0.971556 -0.206124 -0.116583
vn 0.951480 -0.297329 -0.079251
vn 0.492052 -0.213714 -0.843926
vn 0.644318 -0.660855 -0.384870
vn 0.646111 -0.651349 -0.397850
vn 0.394969 -0.181824 -0.900522
vn -0.389894 -0.902235 -0.184270
vn -0.389894 -0.902235 -0.184270
vn 0.181783 -0.981477 -0.060481
vn 0.181783 -0.981477 -0.060481
vn 0.006994 -0.993765 -0.111277
vn -0.053925 -0.990294 -0.128098
vn -0.827521 -0.499517 0.256304
vn -0.462505 -0.832776 0.304258
vn -0.132848 -0.640703 0.756208
vn 0.169737 -0.590084 0.789297
vn 0.169737 -0.590084 0.789297
vn 0.061765 -0.088683 0.994143
vn 0.061765 -0.088683 0.994143
vn 0.227281 -0.957095 0.179758
vn 0.128415 -0.959886 0.249254
vn -0.066643 0.699763 0.711260
vn -0.617116 0.556504 0.556301
vn 0.779983 0.591608 0.204023
vn 0.640716 0.595554 0.484559
vn 0.209616 0.860904 0.463579
vn 0.902012 0.398071 0.167078
vn 0.791554 0.567762 0.226027
vn 0.384293 0.913920 -0.130650
vn -0.761151 0.622055 0.183566
vn 0.828412 0.542495 -0.139406
vn -0.120541 0.988703 0.089091
vn 0.146291 0.986571 0.072646
vn 0.761164 0.603421 0.237724
vn 0.661004 0.725759 -0.190649
vn -0.466833 0.880422 -0.083213
vn 0.587625 0.762070 -0.271931
vn -0.194596 0.927635 -0.318788
vn 0.080574 0.974241 -0.210624
vn 0.710555 0.616372 0.339406
vn 0.747294 0.512243 -0.423273
vn 0.291018 0.862451 -0.414110
vn -0.046574 0.888671 -0.456174
vn -0.208853 0.855983 -0.472941
vn 0.660047 0.460674 -0.593395
vn -0.091924 0.750896 -0.653992
vn -0.031073 -0.993878 -0.106027
vn -0.064642 -0.994274 -0.085093
vn -0.027555 -0.994804 -0.098014
vn 0.025842 -0.992347 -0.120749
vn -0.091761 -0.989773 -0.109224
vn 0.052247 -0.983555 -0.172886
vn 0.278756 -0.718668 -0.637033
vn 0.170355 -0.938004 -0.301875
vn 0.170962 -0.318306 -0.932445
vn 0.181233 -0.295369 -0.938036
vn 0.016534 -0.998005 -0.060939
vn 0.041675 -0.996141 -0.077239
vn -0.035904 -0.998860 -0.031452
vn 0.078780 -0.996733 -0.017836
vn 0.017307 -0.957827 -0.286825
vn 0.125879 -0.982266 -0.138953
vn -0.265978 -0.890214 -0.369830
vn -0.150314 -0.956329 -0.250679
vn -0.034742 -0.999224 -0.018578
vn -0.032030 -0.999322 0.018153
vn 0.019213 -0.998521 -0.050852
vn 0.044712 -0.998820 -0.018942
vn 0.052234 -0.998625 0.004444
vn -0.111107 -0.992237 -0.055859
vn -0.150140 -0.988663 0.001590
vn 0.045124 -0.994986 -0.089252
vn 0.072790 -0.996371 -0.044116
vn 0.529755 -0.821982 -0.209056
vn 0.540544 -0.812760 -0.217331
vn 0.432637 -0.899364 -0.062996
vn 0.739107 0.573187 0.353804
vn 0.882117 0.397914 0.252061
vn -0.924381 0.048242 -0.378407
vn -0.924381 0.048242 -0.378407
vn -0.830922 -0.495659 0.252766
vn -0.852455 -0.460130 0.248194
vn -0.696241 0.717639 -0.015615
vn -0.876358 0.409183 0.254098
vn -0.523892 0.021972 -0.851501
vn -0.523892 0.021972 -0.851501
s 1
g rock_10
usemtl aiStandardSurface1SG
f 1/15/1 2/10/2 81/9/3 82/16/4
f 2/56/2 1/57/5 3/58/6 4/141/7
f 4/141/7 3/58/6 5/62/8 6/140/9
f 6/140/9 5/62/8 7/67/10 8/68/11
f 8/68/11 7/67/10 9/76/12 10/77/13
f 10/77/13 9/76/12 12/84/14 11/85/15
f 11/85/15 12/84/14 88/89/16 87/90/17
f 13/1/18 14/2/19 95/3/20 96/4/21
f 14/123/19 13/124/18 16/69/22 15/125/23
f 15/125/23 16/69/22 18/45/24 17/41/25
f 17/41/26 18/45/27 20/152/28 19/150/29
f 19/42/29 20/46/28 22/39/30 21/149/31
s 5
f 21/37/32 22/91/33 24/40/34 23/98/35
f 23/98/35 24/40/34 92/95/36 91/99/37
s 1
f 43/122/38 50/132/39 49/136/40
f 48/27/41 64/22/42 63/26/43
f 49/12/44 52/13/45 94/8/46 93/7/47
f 51/131/48 50/132/49 54/133/50 53/146/51
s 10
f 52/13/52 51/18/53 66/20/54 65/19/55
s 1
f 53/134/51 54/114/50 56/111/56 55/135/57
f 55/135/57 56/111/56 58/106/58 57/110/59
f 57/110/60 58/106/61 60/101/62 59/104/63
s 5
f 59/104/64 60/101/65 63/26/66 62/147/67
f 61/148/68 64/22/69 89/23/70 90/24/71
s 1
f 62/25/72 61/21/73 72/32/74 71/33/75
s 10
f 65/81/55 66/70/54 74/64/76 73/73/77
s 1
f 71/33/78 72/32/79 79/31/80 80/94/81
f 73/73/82 74/64/83 82/60/4 81/74/3
f 80/94/81 79/31/80 87/90/17 88/89/16
s 5
f 90/24/71 89/23/70 91/29/37 92/30/36
s 1
f 93/7/47 94/8/46 96/4/21 95/3/20
f 2/126/2 4/59/7 16/69/22 13/124/18
f 4/59/7 6/63/9 18/45/84 16/69/22
f 6/63/9 8/153/85 20/152/86 18/45/84
f 8/129/87 10/130/88 22/39/30 20/46/28
f 10/77/13 11/85/15 24/40/89 22/91/90
f 14/123/19 15/125/23 26/127/91 25/128/92
f 15/125/23 17/41/26 27/44/93 26/127/91
f 17/41/26 19/150/29 28/151/94 27/44/93
f 19/42/29 21/149/31 29/38/95 28/43/94
f 21/149/31 23/35/96 30/36/97 29/38/95
f 25/115/92 26/116/91 32/117/98 31/118/99
f 26/52/91 27/53/93 33/48/100 32/49/98
f 27/53/93 28/138/94 34/47/101 33/48/100
f 28/138/94 29/139/95 35/107/102 34/47/101
f 29/139/95 30/112/97 36/108/103 35/107/102
f 31/118/99 32/117/98 38/119/104 37/120/105
f 32/49/98 33/48/100 39/50/106 38/51/104
f 33/48/100 34/47/101 40/109/107 39/50/106
f 34/47/101 35/107/102 41/102/108 40/109/107
f 35/107/102 36/108/103 42/103/109 41/102/108
f 37/120/105 38/119/104 44/121/110 43/122/38
f 38/51/104 39/50/106 45/54/111 44/55/110
f 39/50/106 40/109/107 46/105/112 45/54/111
f 40/109/107 41/102/108 47/100/113 46/105/112
f 41/102/108 42/103/109 48/143/41 47/100/113
f 43/122/38 44/121/110 54/133/114 50/132/39
f 44/113/110 45/145/111 56/111/56 54/114/114
f 45/145/111 46/144/112 58/106/58 56/111/56
f 46/144/115 47/142/113 60/101/62 58/106/61
f 47/142/113 48/27/41 63/26/43 60/101/62
f 51/78/116 53/79/117 67/71/118 66/70/119
f 53/79/117 55/86/120 68/80/121 67/71/118
f 55/86/120 57/92/122 69/87/123 68/80/121
f 57/92/122 59/96/124 70/93/125 69/87/123
f 59/96/124 62/25/72 71/33/75 70/93/125
f 66/70/119 67/71/118 75/65/126 74/64/127
f 67/71/118 68/80/121 76/72/128 75/65/126
f 68/80/121 69/87/123 77/82/129 76/72/128
f 69/87/123 70/93/130 78/88/131 77/82/129
f 70/93/130 71/33/132 80/94/133 78/88/131
f 74/64/127 75/65/126 83/61/134 82/60/135
f 75/65/126 76/72/128 84/66/136 83/61/134
f 76/72/128 77/82/129 85/75/137 84/66/136
f 77/82/129 78/88/131 86/83/138 85/75/137
f 78/88/131 80/94/133 88/89/16 86/83/138
f 82/60/135 83/61/134 3/58/139 1/57/140
f 83/61/134 84/66/136 5/62/141 3/58/139
f 84/66/136 85/75/137 7/67/142 5/62/141
f 85/75/137 86/83/138 9/76/12 7/67/142
f 86/83/138 88/89/16 12/84/14 9/76/12
f 79/31/143 72/32/74 61/21/73 90/97/144
f 87/90/17 79/31/143 90/97/144 92/95/145
f 11/85/15 87/90/17 92/95/145 24/40/89
f 89/23/146 64/22/42 48/27/41 42/28/109
f 91/29/147 89/23/146 42/28/109 36/34/103
f 23/35/96 91/29/147 36/34/103 30/36/97
f 65/19/148 73/14/149 94/8/46 52/13/45
f 73/14/82 81/9/3 96/4/150 94/8/151
f 81/9/3 2/10/2 13/1/18 96/4/150
f 49/12/40 93/7/152 37/11/105 43/137/38
f 93/7/152 95/3/153 31/6/99 37/11/105
f 95/3/153 14/2/19 25/5/92 31/6/99
f 49/12/44 50/17/154 51/18/155 52/13/45
s 5
f 61/148/68 62/147/67 63/26/66 64/22/69
