# This file uses centimeters as units for non-parametric coordinates.

mtllib rock 9.mtl
g default
v -0.276972 -0.485591 0.664520
v 0.185295 -0.536159 0.786519
v 0.518149 -0.324295 0.437985
v -0.040720 1.444222 0.283412
v 0.144301 1.587313 0.277657
v 0.228697 1.550769 0.276689
v -0.237225 1.264193 0.050089
v -0.332446 1.133505 -0.071176
v 0.114370 1.667203 -0.046799
v 0.322437 1.386620 -0.097387
v -0.326896 0.832455 -0.318901
v -0.391081 0.865062 -0.270199
v 0.031580 0.846607 -0.336748
v 0.310124 0.949564 -0.337609
v 0.236716 0.908562 -0.380279
v -0.344552 -0.391160 -0.512401
v -0.408459 -0.337221 -0.482197
v 0.029156 -0.385085 -0.523539
v 0.475283 -0.289683 -0.503957
v -0.412818 -1.057187 -0.045665
v -0.471306 -0.985528 -0.071123
v 0.264304 -1.146494 0.255424
v 0.823353 -0.317933 0.045811
v 0.737160 -0.322724 0.251147
v -0.274758 0.075117 0.468231
v 0.173138 0.129898 0.584697
v 0.468323 0.250671 0.461263
v 0.133142 1.703059 0.051103
v 0.293099 1.573521 0.049842
v -0.315658 1.099999 -0.145561
v -0.319823 1.051437 -0.219036
v 0.066747 1.165073 -0.209150
v 0.075083 1.248637 -0.180471
v 0.316203 1.087034 -0.251079
v 0.327863 1.247972 -0.159069
v -0.474923 0.134618 -0.280136
v -0.403763 0.160721 -0.341396
v 0.031062 0.354831 -0.442178
v 0.313817 0.394979 -0.513671
v 0.389780 0.412276 -0.480014
v -0.436014 -0.564584 -0.437118
v -0.406682 -0.898815 -0.419026
v -0.414746 -0.962776 -0.363767
v -0.458877 -0.889630 -0.358016
v 0.124961 -1.049245 -0.475509
v 0.140841 -1.129388 -0.423809
v 0.683511 -0.322244 -0.166051
v 0.635200 -0.320721 -0.249933
v -0.375716 -0.994931 0.576325
v -0.305578 -1.046829 0.612950
v 0.234464 -0.907218 0.586099
v 0.805361 0.224883 -0.148615
v -0.471309 -0.291091 0.099055
v -0.486415 -0.464923 -0.070939
v 0.485741 0.450880 -0.327442
v 0.514624 0.501672 -0.266966
v -0.467052 -0.317037 -0.340662
v -0.408648 -0.256639 -0.399911
v 0.507898 0.833038 0.049708
v -0.046270 0.867801 0.484634
v 0.159041 0.928917 0.494340
v 0.297002 0.830789 0.483316
v 0.781392 0.255293 0.060258
v 0.526624 0.750192 -0.161099
v 0.727322 0.117149 -0.279441
v 0.772872 0.157772 -0.207821
v 0.399243 0.024753 -0.528351
v 0.473863 0.041291 -0.507030
v 0.031483 -0.037154 -0.489108
v -0.307055 -0.188019 -0.435899
v -0.168731 -0.107698 -0.455485
v -0.551323 0.144408 -0.162685
v -0.525794 0.128728 -0.263518
v -0.553520 0.155292 -0.073390
v -0.434189 0.298102 0.118156
vt 0.593625 0.607725
vt 0.638173 0.696339
vt 0.525237 0.467847
vt 0.650772 0.625502
vt 0.506445 0.624916
vt 0.327212 0.444980
vt 0.454420 0.628542
vt 0.361243 0.335172
vt 0.616193 0.714541
vt 0.945271 0.664214
vt 0.926570 0.647330
vt 0.947770 0.380183
vt 0.973609 0.382138
vt 0.218737 0.340224
vt 0.292450 0.204601
vt 0.890856 0.586659
vt 0.912241 0.591161
vt 0.189704 0.133336
vt 0.190182 0.110888
vt 0.902762 0.382602
vt 0.917878 0.378353
vt 0.879339 0.254432
vt 0.948882 0.203030
vt 0.072025 0.239743
vt 0.876424 0.393618
vt 0.856962 0.273496
vt 0.850219 0.103079
vt 0.920437 0.032390
vt 0.844237 0.192047
vt 0.837444 0.081820
vt 0.830728 0.104408
vt 0.837942 0.251217
vt 0.826891 0.297514
vt 0.820057 0.240514
vt 0.426953 0.797252
vt 0.577799 0.839844
vt 0.551431 0.815736
vt 0.612635 0.885165
vt 0.372330 0.748097
vt 0.305067 0.777847
vt 0.519485 0.780114
vt 0.366246 0.732051
vt 0.434411 0.846846
vt 0.490999 0.750467
vt 0.600206 0.941669
vt 0.419204 0.955402
vt 0.294384 0.750038
vt 0.368229 0.695171
vt 0.297590 0.764902
vt 0.219505 0.790494
vt 0.306041 0.814542
vt 0.205746 0.824584
vt 0.292780 0.910320
vt 0.220763 0.731129
vt 0.294739 0.689503
vt 0.219164 0.748317
vt 0.034840 0.786784
vt 0.058584 0.652859
vt 0.185426 0.871368
vt 0.055622 0.866252
vt 0.074216 0.641973
vt 0.240554 0.683553
vt 0.105911 0.940514
vt 0.254250 0.974218
vt 0.623398 0.950673
vt 0.662338 0.894283
vt 0.664043 0.863643
vt 0.492696 0.112949
vt 0.680251 0.045419
vt 0.618882 0.169060
vt 0.614558 0.244646
vt 0.511733 0.234919
vt 0.683378 0.071987
vt 0.380827 0.125362
vt 0.313256 0.041555
vt 0.443281 0.987297
vt 0.612249 0.960897
vt 0.598666 0.765990
vt 0.582069 0.745336
vt 0.967398 0.675278
vt 0.510697 0.673875
vt 0.490602 0.727189
vt 0.370981 0.677574
vt 0.388389 0.611185
vt 0.294501 0.674511
vt 0.733046 0.355890
vt 0.204697 0.606329
vt 0.789797 0.325933
vt 0.467147 0.278961
vt 0.579169 0.454385
vt 0.754747 0.474790
vt 0.287358 0.595721
vt 0.851081 0.761018
vt 0.839106 0.734056
vt 0.720258 0.252804
vt 0.795113 0.627192
vt 0.904675 0.896617
vt 0.259597 0.457068
vt 0.157862 0.336208
vt 0.596231 0.043125
vt 0.488631 0.051654
vt 0.921753 0.060314
vt 0.063497 0.217305
vn -0.620039 0.109055 0.776954
vn -0.950200 0.037795 0.309339
vn -0.493629 -0.054592 0.867957
vn -0.846703 0.311154 0.431598
vn -0.922261 0.214636 0.321506
vn -0.982248 0.059383 0.177941
vn -0.866226 0.161065 0.472980
vn -0.761191 0.641980 -0.091925
vn -0.736673 0.669325 0.096527
vn -0.761191 0.641980 -0.091925
vn 0.600107 0.604707 -0.523642
vn 0.600107 0.604707 -0.523642
vn 0.909319 0.357734 0.212522
vn 0.784447 0.376432 -0.492891
vn 0.901405 0.307560 0.304756
vn 0.879477 0.376835 -0.290715
vn -0.238537 0.188358 -0.952692
vn -0.815195 0.167039 -0.554576
vn -0.949289 0.232378 -0.211778
vn -0.326386 0.122504 -0.937264
vn -0.615853 0.157298 -0.771999
vn 0.317110 0.334628 -0.887392
vn 0.340422 0.294418 -0.892990
vn 0.196356 0.516099 -0.833718
vn 0.604436 0.270052 -0.749486
vn -0.102290 0.152828 -0.982945
vn -0.146092 -0.054925 -0.987745
vn -0.396603 0.167846 -0.902515
vn -0.369281 0.232042 -0.899882
vn -0.216028 0.157438 -0.963610
vn -0.156595 -0.127203 -0.979437
vn -0.777225 -0.013035 -0.629088
vn 0.301400 -0.162590 -0.939533
vn -0.040064 0.042079 -0.998311
vn 0.679324 0.055921 -0.731704
vn -0.737663 -0.673509 0.047315
vn -0.758197 -0.651471 -0.026892
vn -0.786936 -0.584559 -0.197541
vn -0.786936 -0.584559 -0.197541
vn -0.015317 -0.969208 0.245765
vn -0.131834 -0.990978 0.024123
vn -0.077626 -0.988546 0.129429
vn -0.015317 -0.969208 0.245765
vn -0.996508 -0.030275 0.077815
vn -0.942818 0.057210 0.328362
vn -0.996053 -0.038833 0.079808
vn 0.790833 -0.369931 0.487581
vn 0.845092 -0.533900 -0.027746
vn 0.910566 -0.412200 -0.031007
vn 0.834091 -0.202666 0.513048
vn 0.956239 0.271588 0.108839
vn 0.877022 0.246220 0.412563
vn -0.956139 0.228882 -0.182788
vn -0.896466 0.147404 -0.417876
vn -0.981333 0.063523 -0.181523
vn -0.105444 0.435383 -0.894049
vn -0.317017 0.457715 -0.830661
vn -0.162695 0.419893 -0.892872
vn -0.103832 0.468139 -0.877533
vn 0.454808 0.333029 -0.825979
vn -0.091965 0.470005 -0.877860
vn 0.771045 0.273746 -0.574938
vn 0.672873 0.306822 -0.673129
vn 0.718929 0.296259 -0.628785
vn -0.988432 -0.035116 -0.147540
vn -0.980618 -0.047759 -0.190019
vn -0.904818 0.071953 -0.419675
vn -0.253249 -0.585393 -0.770182
vn -0.253249 -0.585393 -0.770182
vn -0.253249 -0.585393 -0.770182
vn -0.253249 -0.585393 -0.770182
vn 0.806636 -0.513170 -0.293249
vn 0.291603 -0.225550 -0.929567
vn 0.651040 -0.230166 -0.723305
vn 0.823649 -0.473876 -0.311519
vn 0.763501 0.057014 -0.643285
vn 0.802443 0.012891 -0.596590
vn -0.588939 0.178394 0.788243
vn -0.029988 0.187215 0.981861
vn 0.132534 0.460776 0.877565
vn -0.661636 0.383407 0.644389
vn 0.689626 0.231123 0.686293
vn 0.780401 0.316601 0.539202
vn -0.179405 0.238599 -0.954403
vn -0.219374 0.318944 -0.922036
vn -0.207050 0.126295 -0.970144
vn 0.096505 -0.106302 -0.989640
vn 0.797732 0.269936 -0.539220
vn -0.342102 0.406849 -0.847018
vn -0.142808 0.381613 -0.913223
vn -0.186369 -0.978708 -0.086004
vn -0.186369 -0.978708 -0.086004
vn -0.704169 0.673844 0.223786
vn 0.537519 0.786761 0.303447
vn 0.677783 0.007362 0.735225
vn 0.180613 -0.000711 0.983554
vn -0.068141 -0.261719 0.962736
vn -0.068141 -0.261719 0.962736
vn -0.662313 0.189109 0.724968
vn 0.081969 0.176684 0.980848
vn 0.664770 0.189589 0.722591
vn 0.729605 0.117678 -0.673668
vn -0.145716 0.086158 -0.985568
vn -0.406808 0.203704 -0.890512
vn 0.758973 -0.116684 -0.640581
vn -0.900655 0.309429 -0.305082
vn -0.900655 0.309429 -0.305082
vn -0.715929 -0.689182 0.111687
vn -0.715929 -0.689182 0.111687
vn -0.762025 -0.156452 -0.628364
s 1
g rock_9
usemtl aiStandardSurface1SG
f 1/15/1 49/18/2 50/19/3
f 7/5/4 8/7/5 74/98/6 75/6/7
f 8/7/8 7/5/4 28/2/9 9/9/10
f 9/67/11 28/66/12 29/38/13 10/36/14
f 10/36/14 29/38/13 59/43/15 64/35/16
f 11/16/17 12/17/18 31/11/19
f 12/17/18 11/16/17 37/25/20 36/20/21
f 14/44/22 15/82/23 34/41/24
f 15/82/23 14/44/22 40/48/25 39/83/26
f 16/34/27 17/32/28 70/33/29 71/88/30
f 17/32/28 16/34/27 42/31/31 41/29/32
f 19/62/33 67/85/34 68/55/35
s 9
f 20/28/36 21/102/37 44/27/38 43/30/39
s 10
f 50/72/40 20/68/41 22/70/42 51/71/43
s 1
f 21/24/44 49/18/2 53/14/45 54/99/46
f 51/60/47 22/57/48 23/50/49 24/52/50
f 24/52/50 23/50/49 52/40/51 63/51/52
f 30/10/53 31/11/19 73/21/54 72/12/55
f 31/11/56 30/10/57 33/93/58 32/94/59
f 32/79/59 33/78/58 35/37/60 34/41/61
f 34/41/62 35/37/60 56/39/63 55/42/64
f 36/20/21 37/25/20 71/88/30 70/33/29
f 39/83/26 40/48/25 68/55/35 67/85/34
f 41/29/32 44/27/65 57/22/66 58/26/67
s off
f 43/30/68 42/31/69 45/73/70 46/69/71
s 1
f 46/58/72 45/61/73 48/54/74 47/56/75
f 47/56/75 48/54/74 65/47/76 66/49/77
f 63/51/52 52/40/51 64/35/16 59/43/15
f 54/99/46 53/14/45 75/6/7 74/98/6
f 55/42/64 56/39/63 66/49/77 65/47/76
f 58/26/67 57/22/66 72/12/55 73/21/54
f 60/3/78 61/90/79 5/4/80 4/1/81
f 61/76/79 62/46/82 6/45/83 5/77/80
f 31/11/56 32/94/59 13/96/84 11/16/17
f 32/79/59 34/41/61 15/82/85 13/81/84
f 11/16/17 13/96/84 38/91/86 37/25/20
f 13/81/84 15/82/85 39/83/26 38/84/86
f 16/34/27 18/95/87 45/73/73 42/31/31
f 18/87/87 19/62/33 48/54/74 45/61/73
f 34/41/62 55/42/64 40/48/25 14/44/88
f 36/20/21 73/21/54 31/11/19 12/17/18
f 8/80/89 9/97/90 33/93/58 30/10/57
f 9/67/90 10/36/14 35/37/60 33/78/58
f 64/35/16 56/39/63 35/37/60 10/36/14
f 46/58/72 47/56/75 23/50/49 22/57/48
s 10
f 43/101/91 46/100/92 22/70/42 20/68/41
s 1
f 30/10/53 72/12/55 74/13/6 8/80/5
f 4/1/81 5/4/93 28/2/9 7/5/4
f 5/65/80 6/45/83 29/38/13 28/66/94
f 62/46/82 59/43/15 29/38/13 6/45/83
f 51/60/47 24/52/50 3/59/95 2/63/96
f 50/19/97 51/75/98 2/74/96 1/15/1
f 7/5/4 75/6/7 60/3/78 4/1/81
f 25/8/99 26/89/100 61/90/79 60/3/78
f 26/64/100 27/53/101 62/46/82 61/76/79
f 27/53/101 63/51/52 59/43/15 62/46/82
f 52/40/102 66/49/77 56/39/63 64/35/16
f 40/48/25 55/42/64 65/47/76 68/55/35
f 38/84/86 39/83/26 67/85/34 69/92/103
f 37/25/20 38/91/86 69/86/103 71/88/30
f 70/33/29 58/26/104 73/21/54 36/20/21
f 74/13/6 72/12/55 57/22/66 54/23/46
f 60/3/78 75/6/7 53/14/45 25/8/99
f 1/15/1 2/74/96 26/89/100 25/8/99
f 2/63/96 3/59/95 27/53/101 26/64/100
f 3/59/95 24/52/50 63/51/52 27/53/101
f 23/50/49 47/56/75 66/49/77 52/40/102
f 68/55/35 65/47/76 48/54/74 19/62/105
f 69/92/103 67/85/34 19/62/33 18/87/87
f 71/88/30 69/86/103 18/95/87 16/34/27
f 17/32/106 41/29/32 58/26/67 70/33/107
f 54/23/46 57/22/66 44/27/65 21/102/44
f 25/8/99 53/14/45 49/18/2 1/15/1
s 9
f 20/103/36 50/19/108 49/18/109 21/24/37
s 1
f 41/29/32 42/31/31 43/30/110 44/27/65
