# This file uses centimeters as units for non-parametric coordinates.

mtllib rock 3.mtl
g default
v 1.620330 2.493547 0.026742
v -0.238381 3.152081 -0.136782
v 0.062291 3.233313 -0.134090
v -1.346774 2.046833 -0.037254
v 0.601440 1.153905 1.326556
v -0.198389 0.879507 1.391015
v 0.094290 1.155539 1.399079
v -0.511500 1.089436 1.291624
v 1.552155 0.387571 1.163523
v 1.669677 0.090715 1.165448
v -0.162532 0.469203 1.466329
v -0.105651 0.203521 1.454188
v 0.239217 0.162623 1.424706
v 0.131772 0.452684 1.476695
v -0.848492 0.010720 1.217251
v -0.754734 0.285507 1.335696
v 1.767203 -0.634310 1.076115
v 0.206412 -0.781263 1.385054
v 0.518960 -0.752597 1.396076
v -0.785278 -0.876963 1.330680
v -0.501231 -0.897276 1.378415
v 1.139084 -1.443110 0.664823
v 0.968266 -1.430913 0.340161
v 0.311106 -1.579207 0.583696
v 0.298429 -1.595025 0.476692
v 0.608326 -1.581577 0.542984
v 0.620813 -1.565883 0.601393
v -1.326825 -1.520806 0.102612
v -1.221915 -1.563044 0.272601
v 1.942622 0.122875 -0.265021
v 1.908150 0.479451 -0.295227
v 2.133581 0.342072 -0.227879
v 2.151317 0.032471 -0.196767
v -0.509522 1.215653 -1.007939
v -0.533452 1.505229 -0.999952
v -0.244994 1.458269 -1.002971
v -0.196846 1.121557 -1.002581
v -2.583520 0.478725 -0.098087
v -2.555437 0.805035 -0.114984
v 1.589615 1.776210 0.453199
v -0.230552 2.377998 0.352820
v 0.072370 2.381498 0.358844
v -1.273035 2.018266 0.376323
v 1.357900 0.593513 1.188495
v -0.174441 0.560869 1.457549
v 0.126626 0.560569 1.466218
v -0.749277 0.444651 1.327889
v 1.694947 -0.188935 1.167920
v 0.055922 -0.295889 1.400534
v 0.372843 -0.295255 1.400269
v -0.862168 -0.218033 1.131572
v 1.947103 -0.688226 0.815477
v 0.549509 -1.142747 1.072918
v 0.252838 -1.218791 1.070199
v -0.727245 -1.489894 0.671065
v -1.005841 -1.354247 0.716397
v 2.098084 -1.008447 0.281043
v 1.941253 -1.031649 0.220679
v 0.226156 -1.271517 -0.391658
v -0.069843 -1.255306 -0.395737
v -2.077755 -0.292299 -0.029614
v 1.812152 2.388015 -0.199035
v 1.560297 2.519667 -0.394754
v -0.156698 2.506315 -0.449961
v -0.408868 2.426306 -0.435696
v -2.267704 1.225723 -0.112875
v -2.439503 -0.276894 0.380217
v -2.464749 0.018401 0.385707
v 2.199362 0.357073 0.277038
v 2.199071 0.049239 0.230470
v -1.300336 -0.506084 0.743399
v 2.132066 -0.713306 0.696732
v -1.385199 0.531117 0.829614
v 2.172392 0.521747 0.324499
v 0.741893 1.603946 0.914442
v -0.217287 1.747299 0.924517
v 0.086918 1.750329 0.948388
v -0.775973 1.575803 0.828584
v -2.400183 0.510397 0.364128
v -1.341933 -0.242610 0.849774
v -1.410664 0.057698 0.856128
v -2.334961 -0.510318 0.349918
v -1.005824 -1.580253 0.401188
v -1.283353 -1.495159 0.391605
v 0.563188 -1.347289 0.814521
v 0.264534 -1.415658 0.812304
v 1.350210 -1.141567 0.790517
v 2.215452 -0.212864 0.668160
v 2.231324 0.362235 0.678070
v 2.370538 0.066054 0.487008
v 1.870866 0.791318 0.712429
vt 0.777934 0.864103
vt 0.756570 0.830337
vt 0.826644 0.835257
vt 0.633380 0.599896
vt 0.807994 0.777145
vt 0.812990 0.798558
vt 0.853374 0.816341
vt 0.907975 0.958595
vt 0.935724 0.890609
vt 0.653945 0.565721
vt 0.837284 0.713256
vt 0.852728 0.776589
vt 0.749758 0.612121
vt 0.599490 0.572037
vt 0.922454 0.708836
vt 0.938919 0.745417
vt 0.893715 0.830896
vt 0.918759 0.672735
vt 0.959005 0.772658
vt 0.847748 0.536629
vt 0.925063 0.552693
vt 0.717653 0.116961
vt 0.566272 0.753269
vt 0.598369 0.635460
vt 0.628334 0.054025
vt 0.653427 0.055076
vt 0.556074 0.588176
vt 0.628650 0.100393
vt 0.551783 0.687615
vt 0.653865 0.315885
vt 0.718605 0.376401
vt 0.499263 0.055286
vt 0.501536 0.081459
vt 0.444892 0.496397
vt 0.414214 0.531577
vt 0.762056 0.433259
vt 0.082172 0.431156
vt 0.273915 0.361618
vt 0.264010 0.477632
vt 0.077523 0.529318
vt 0.308657 0.372231
vt 0.300682 0.480402
vt 0.254731 0.577607
vt 0.178165 0.585695
vt 0.288376 0.578395
vt 0.251124 0.657398
vt 0.195280 0.657945
vt 0.351790 0.593192
vt 0.426336 0.702024
vt 0.283499 0.682477
vt 0.253349 0.717489
vt 0.120136 0.731381
vt 0.314816 0.658838
vt 0.102976 0.756626
vt 0.432317 0.755536
vt 0.342801 0.722321
vt 0.283361 0.715350
vt 0.254228 0.728581
vt 0.096006 0.790495
vt 0.569769 0.789208
vt 0.283049 0.724586
vt 0.246170 0.759871
vt 0.427587 0.790171
vt 0.559525 0.819224
vt 0.429480 0.822450
vt 0.344923 0.736901
vt 0.280536 0.751643
vt 0.239031 0.808088
vt 0.098612 0.820901
vt 0.360971 0.764673
vt 0.101170 0.868905
vt 0.367186 0.789215
vt 0.397496 0.914066
vt 0.270941 0.803922
vt 0.232086 0.855501
vt 0.025917 0.854287
vt 0.351830 0.852041
vt 0.327812 0.855378
vt 0.261749 0.854434
vt 0.232836 0.906952
vt 0.372772 0.933655
vt 0.076432 0.891386
vt 0.263950 0.909173
vt 0.233937 0.941528
vt 0.267970 0.942518
vt 0.268953 0.973317
vt 0.231204 0.975934
vt 0.146467 0.929736
vt 0.172176 0.963318
vt 0.436010 0.960857
vt 0.459086 0.976739
vt 0.440865 0.940851
vt 0.054946 0.902031
vt 0.052191 0.956434
vt 0.409609 0.954127
vt 0.747239 0.459347
vt 0.604302 0.508112
vt 0.616778 0.544419
vt 0.707935 0.397836
vt 0.637974 0.329624
vt 0.636512 0.301846
vt 0.614823 0.315009
vt 0.450112 0.413395
vt 0.425302 0.394293
vt 0.458166 0.190786
vt 0.427379 0.420379
vt 0.577364 0.521669
vt 0.406035 0.402545
vt 0.340149 0.324322
vt 0.441998 0.207766
vt 0.330441 0.335687
vt 0.376008 0.166575
vt 0.357010 0.232497
vt 0.320555 0.232588
vt 0.349565 0.187896
vt 0.355563 0.189283
vt 0.367705 0.161009
vt 0.483359 0.077645
vt 0.324948 0.236995
vt 0.344250 0.739070
vt 0.737649 0.138635
vt 0.751685 0.181490
vt 0.611279 0.678008
vt 0.762204 0.290683
vn 0.423902 0.687594 0.589510
vn 0.822882 0.327374 0.464426
vn 0.470758 0.882176 -0.012383
vn -0.485575 0.870132 0.084183
vn 0.203391 0.936957 0.284154
vn -0.101988 0.455901 -0.884168
vn -0.409609 0.497341 -0.764769
vn -0.271918 0.637038 0.721278
vn 0.125169 0.563811 0.816363
vn -0.227206 0.356225 0.906356
vn -0.062496 0.578029 0.813620
vn 0.093704 0.655642 0.749235
vn -0.195929 0.591647 0.782027
vn -0.092152 0.138594 0.986053
vn -0.092152 0.138594 0.986053
vn -0.082426 0.131667 0.987861
vn -0.080593 0.130360 0.988186
vn 0.402770 0.148779 0.903128
vn 0.666132 0.052033 0.744017
vn 0.960335 -0.004933 0.278804
vn 0.756756 0.262769 0.598559
vn 0.196473 -0.008327 0.980474
vn 0.205645 0.034505 0.978018
vn 0.196473 -0.008327 0.980474
vn -0.029175 0.093549 0.995187
vn -0.029175 0.093549 0.995187
vn -0.201764 -0.216999 0.955093
vn -0.201764 -0.216999 0.955093
vn -0.433798 -0.067527 0.898476
vn -0.375699 -0.218647 0.900580
vn 0.132053 -0.016698 0.991102
vn -0.192802 -0.194159 0.961837
vn -0.143309 -0.002896 0.989674
vn 0.153761 -0.025162 0.987788
vn -0.461796 -0.000697 0.886986
vn -0.424225 -0.227709 0.876459
vn -0.056586 -0.365620 0.929043
vn 0.219285 -0.342309 0.913640
vn 0.021535 -0.734315 0.678467
vn 0.246219 -0.659166 0.710546
vn -0.210876 -0.523056 0.825799
vn -0.210825 -0.551281 0.807243
vn -0.140613 0.271306 0.952166
vn -0.481866 -0.401728 0.778729
vn -0.065884 -0.799997 0.596376
vn 0.262352 -0.878533 -0.399187
vn 0.268657 -0.906304 0.326246
vn 0.168604 -0.825396 0.538790
vn 0.206232 -0.905421 -0.371055
vn 0.300851 -0.897852 -0.321483
vn 0.327275 -0.910575 -0.252475
vn -0.012912 -0.953747 0.300333
vn 0.194362 -0.629802 0.752046
vn 0.015709 -0.866248 0.499368
vn -0.100751 -0.805737 -0.583641
vn -0.073258 -0.997015 0.024367
vn -0.168837 -0.643584 -0.746521
vn -0.239627 -0.464914 -0.852311
vn 0.153640 -0.902196 -0.403035
vn -0.418250 -0.864919 0.277456
vn -0.106696 -0.886937 0.449397
vn -0.646378 -0.558597 0.519775
vn 0.252391 -0.275571 -0.927555
vn 0.244923 -0.349375 -0.904406
vn 0.239411 -0.395169 -0.886862
vn 0.239411 -0.395169 -0.886862
vn 0.260293 0.104727 -0.959833
vn 0.279504 -0.231343 -0.931857
vn 0.290536 -0.174886 -0.940746
vn 0.240896 0.139683 -0.960447
vn 0.452652 0.034603 -0.891016
vn 0.498966 0.061677 -0.864424
vn 0.511062 0.068888 -0.856779
vn 0.511062 0.068888 -0.856779
vn 0.995138 -0.058662 -0.079116
vn 0.983422 0.135179 -0.120861
vn 0.972134 0.202186 -0.118640
vn 0.990849 -0.066958 -0.117200
vn -0.023616 -0.203276 -0.978837
vn -0.027734 -0.232294 -0.972250
vn -0.030075 -0.248774 -0.968094
vn -0.030075 -0.248774 -0.968094
vn -0.399003 0.357607 -0.844342
vn -0.322860 -0.225242 -0.919254
vn -0.390275 -0.247485 -0.886812
vn -0.648086 0.273310 -0.710835
vn -0.041411 0.374883 -0.926147
vn -0.497409 -0.072013 0.864522
vn -0.602814 0.043262 0.796708
vn 0.330452 0.595729 0.732058
vn 0.311321 0.374289 0.873491
vn -0.387385 0.415491 0.822983
vn -0.419399 0.382635 0.823222
vn 0.423804 0.369002 0.827181
vn 0.202077 0.079337 0.976151
vn -0.231741 0.131474 0.963852
vn -0.537810 0.228067 0.811632
vn -0.231558 0.058263 0.971075
vn 0.197298 -0.025253 0.980018
vn 0.279035 -0.460459 0.842684
vn -0.493432 -0.138783 0.858641
vn -0.090153 -0.370679 0.924375
vn 0.506643 -0.430845 0.746783
vn -0.342056 -0.343546 -0.874628
vn 0.229246 0.160247 -0.960087
vn 0.229246 0.160247 -0.960087
vn -0.655731 0.603231 -0.454014
vn -0.543182 -0.265024 0.796690
vn -0.783427 -0.123500 0.609089
vn -0.476533 0.245023 0.844323
vn 0.876723 -0.132903 0.462271
vn 0.710801 -0.008087 0.703346
vn 0.724965 -0.113437 0.679380
vn 0.561474 0.405470 0.721346
vn 0.175708 0.008538 0.984405
vn 0.274763 -0.254005 -0.927355
vn 0.274763 -0.254005 -0.927355
vn 0.195696 0.073578 0.977901
vn -0.679406 0.730847 -0.065352
vn 0.196247 0.672565 -0.713543
vn 0.196247 0.672565 -0.713543
vn 0.480861 0.449902 0.752570
vn -0.474330 0.511499 0.716505
vn -0.572541 0.305937 0.760658
vn -0.808407 -0.576486 -0.118919
vn -0.753222 -0.602344 0.264269
vn 0.257119 -0.569645 0.780638
vn 0.476022 -0.336442 0.812533
vn 0.906567 -0.382729 0.177916
vn 0.944164 0.283093 0.168560
vn -0.696883 -0.598577 -0.395044
vn 0.488292 -0.687858 0.537050
vn 0.855609 -0.443700 0.266578
vn 0.488292 -0.687858 0.537050
vn 0.019950 -0.108789 0.993865
vn 0.019950 -0.108789 0.993865
vn 0.019950 -0.108789 0.993865
vn 0.019950 -0.108789 0.993865
s 1
g rock_3
usemtl aiStandardSurface1SG
f 1/10/1 62/4/2 63/14/3
f 2/36/4 3/96/5 64/99/6 65/31/7
f 3/38/5 2/41/4 41/42/8 42/39/9
f 6/50/10 7/46/11 77/43/12 76/45/13
s 4
f 7/46/14 6/50/15 45/57/16 46/51/17
s 1
f 9/15/18 10/16/19 90/7/20 89/12/21
f 10/59/22 9/54/18 14/58/23 13/62/24
s 4
f 11/61/25 14/58/26 46/51/17 45/57/16
s 1
f 12/67/27 11/61/28 16/66/29 15/70/30
f 13/62/31 12/67/32 49/74/33 50/68/34
f 15/70/30 16/66/29 81/55/35 80/63/36
f 18/79/37 19/75/38 50/68/34 49/74/33
f 19/75/38 18/79/37 54/83/39 53/80/40
f 20/77/41 21/78/42 51/72/43
f 21/78/42 20/77/41 56/73/44 55/81/45
f 23/113/46 22/114/47 27/115/48 26/116/49
f 22/119/47 23/113/46 58/109/50 57/111/51
f 24/86/52 27/87/48 85/84/53 86/85/54
f 25/112/55 24/117/52 29/118/56 28/33/57
f 26/116/49 25/112/55 60/105/58 59/110/59
f 28/91/60 29/90/56 83/95/61 84/92/62
s 11
f 30/104/63 33/108/64 57/111/65 58/109/66
s 12
f 31/103/67 30/104/68 37/102/69 36/100/70
s 11
f 32/106/71 31/103/72 63/97/73 62/107/74
s 1
f 33/1/75 32/2/76 69/6/77 70/3/78
f 34/101/79 37/102/80 59/110/81 60/105/82
f 35/30/83 34/101/84 38/22/85 39/121/86
f 36/100/87 35/30/83 65/31/7 64/99/6
f 39/24/86 38/123/85 67/60/88 68/23/89
f 42/39/9 41/42/8 76/45/13 77/43/12
f 53/80/40 54/83/39 86/85/54 85/84/53
f 55/81/45 56/73/44 84/92/62 83/95/61
f 68/23/89 67/60/88 80/63/36 81/55/35
f 70/3/78 69/6/77 89/12/21 90/7/20
f 75/44/90 77/43/12 7/46/11 5/47/91
f 76/45/13 78/48/92 8/53/93 6/50/10
f 44/52/94 46/51/95 14/58/23 9/54/18
f 45/57/96 47/56/97 16/66/29 11/61/98
f 48/69/99 50/68/34 19/75/38 17/71/100
f 49/74/33 51/72/101 21/78/102 18/79/37
f 17/71/100 19/75/38 53/80/40 52/82/103
f 18/79/37 21/78/102 55/81/45 54/83/39
f 23/113/46 26/116/49 59/110/59 58/109/50
f 25/112/55 28/33/57 61/28/104 60/105/58
s 12
f 31/103/67 36/100/70 64/99/105 63/97/106
s 1
f 35/30/83 39/121/86 66/122/107 65/31/7
f 51/72/101 71/65/108 56/73/44 20/77/109
f 47/56/97 73/49/110 81/55/35 16/120/29
f 52/82/103 88/76/111 48/69/112 17/71/113
f 89/12/21 91/11/114 44/18/94 9/15/18
f 10/59/115 13/62/31 50/68/34 48/69/99
f 12/67/32 15/70/30 51/72/101 49/74/33
f 80/63/36 71/65/108 51/72/101 15/70/30
f 60/105/58 61/28/104 38/22/85 34/101/84
s 12
f 58/109/116 59/110/117 37/102/69 30/104/68
s 1
f 48/19/112 88/17/111 90/7/20 10/16/19
f 5/47/91 7/46/118 46/51/95 44/52/94
f 6/50/10 8/53/93 47/56/97 45/57/96
f 78/48/92 73/49/110 47/56/97 8/53/93
f 65/31/7 66/122/107 4/124/119 2/36/4
f 63/97/120 64/99/121 3/96/5 1/98/1
f 44/18/94 91/11/114 75/20/90 5/21/91
f 40/40/122 42/39/9 77/43/12 75/44/90
f 41/42/8 43/35/123 78/48/92 76/45/13
f 43/35/123 79/29/124 73/49/110 78/48/92
f 81/55/35 73/49/110 79/29/124 68/23/89
f 67/60/125 82/64/126 71/65/108 80/63/36
f 56/73/44 71/65/108 82/64/126 84/92/62
f 54/83/39 55/81/45 83/95/61 86/85/54
f 52/82/103 53/80/40 85/84/53 87/88/127
f 87/88/127 72/93/128 88/76/111 52/82/103
f 90/7/20 88/17/111 72/9/129 70/3/78
f 69/6/77 74/5/130 91/11/114 89/12/21
f 75/20/90 91/11/114 74/5/130 40/13/122
f 1/37/1 3/38/5 42/39/9 40/40/122
f 2/41/4 4/34/119 43/35/123 41/42/8
f 4/34/119 66/27/107 79/29/124 43/35/123
f 68/23/89 79/29/124 66/27/107 39/24/86
f 38/22/85 61/28/104 82/25/126 67/26/125
f 84/32/62 82/25/126 61/28/104 28/33/131
f 86/85/54 83/95/61 29/90/56 24/86/52
f 87/88/127 85/84/53 27/87/48 22/89/47
f 22/89/132 57/94/133 72/93/129 87/88/134
f 70/3/78 72/9/129 57/8/133 33/1/75
f 32/2/76 62/4/2 74/5/130 69/6/77
f 40/13/122 74/5/130 62/4/2 1/10/1
s off
f 11/61/135 12/67/136 13/62/137 14/58/138
s 1
f 24/117/52 25/112/55 26/116/49 27/115/48
s 11
f 30/104/63 31/103/72 32/106/71 33/108/64
s 1
f 34/101/79 35/30/83 36/100/87 37/102/80
