# This file uses centimeters as units for non-parametric coordinates.

mtllib Rock 4.mtl
g default
v -1.034889 3.455307 -0.637897
v -1.430046 4.093350 0.681736
v -1.424848 4.200276 0.440137
v -1.188860 2.638565 1.571072
v 1.956763 1.784678 0.093727
v 2.079113 1.762973 0.638863
v 2.067104 1.780855 0.392831
v 1.969244 1.756840 0.884334
v 1.660398 0.063825 -0.866590
v 2.354368 0.212305 0.556348
v 2.282859 0.158473 0.279622
v 1.793638 -0.041470 1.155956
v 1.447471 -0.890493 -0.943888
v 1.188237 -1.209978 0.291051
v 1.217007 -1.168770 0.044527
v 1.187101 -1.209881 1.108174
v 1.181797 -1.415928 0.892721
v -0.407614 -1.588779 -0.909135
v -1.190289 -2.074877 0.236115
v -1.149419 -2.057334 -0.012919
v -0.429492 -1.737035 1.154872
v -1.743809 0.106155 -1.069017
v -1.582279 -0.012840 -1.237492
v -2.739676 1.544526 0.301853
v -2.728187 1.420669 0.050578
v -1.521895 0.438403 2.015434
v -0.055735 2.557072 -0.581946
v -0.265308 3.074463 0.669676
v -0.252186 3.079078 0.426231
v -0.528597 2.600959 0.904342
v 1.716450 0.725633 -0.616370
v 2.362638 0.682663 0.611577
v 2.382076 0.682271 0.369591
v 2.056471 0.671319 1.074940
v 1.666165 -0.304264 -0.886920
v 1.752168 -0.445045 0.429516
v 1.770633 -0.444209 0.174798
v 1.589868 -0.342566 1.167953
v 0.317958 -0.967997 -1.211567
v 0.428292 -1.640007 0.035044
v 0.432830 -1.735061 0.275008
v 0.355108 -1.654895 1.103009
v 0.323984 -1.583630 1.325256
v -1.321477 -1.382951 -1.196017
v -1.464462 -1.413489 -1.069309
v -2.361603 -1.729216 -0.291095
v -2.370132 -1.707877 -0.053235
v -1.377174 -0.428702 1.646855
v -1.909996 3.087651 -0.963371
v -2.050925 3.260930 -0.760325
v -2.175429 3.243363 0.619801
v -2.140491 3.138048 0.822232
v -1.560566 1.437261 1.798959
v -0.514687 -0.420042 1.841462
v -0.342250 0.631170 -1.260571
v -0.566048 0.009231 -1.280899
v -0.013721 -0.889889 1.557470
v -0.245174 -1.227626 -1.225894
v 0.402958 0.640350 1.076891
v 0.946518 2.724789 0.058021
v 0.917679 2.773785 0.659772
v 0.986482 2.773381 0.410875
v 0.679555 2.716969 1.059916
v -0.553120 0.616231 1.810061
v 0.340254 -0.372677 1.452288
v -0.587188 -0.727285 1.757821
v -0.147155 -1.714661 1.291977
v -0.168851 -1.602659 1.515064
v -0.046216 -1.828952 0.030866
v -0.050302 -1.918943 0.270838
v -0.106453 -1.558168 -0.601165
v 0.333807 -0.405081 -1.435396
v 0.401672 0.946267 -1.090463
v 0.317656 0.023028 -1.442154
vt 0.864413 0.694482
vt 0.841200 0.765971
vt 0.697940 0.747690
vt 0.717272 0.663380
vt 0.985106 0.677349
vt 0.980928 0.736315
vt 0.829452 0.802101
vt 0.693315 0.783506
vt 0.625850 0.734317
vt 0.651104 0.684478
vt 0.807702 0.474993
vt 0.910821 0.571067
vt 0.943765 0.562394
vt 0.683472 0.834453
vt 0.794611 0.856518
vt 0.630429 0.839550
vt 0.546603 0.723750
vt 0.541044 0.485590
vt 0.691259 0.508201
vt 0.630753 0.902895
vt 0.547730 0.829219
vt 0.529422 0.712524
vt 0.526874 0.472235
vt 0.597596 0.437403
vt 0.607439 0.874174
vt 0.533957 0.832053
vt 0.436557 0.853668
vt 0.425278 0.594096
vt 0.437355 0.200604
vt 0.457567 0.263193
vt 0.319287 0.263300
vt 0.299534 0.174133
vt 0.508211 0.222717
vt 0.505329 0.263462
vt 0.339605 0.426850
vt 0.447399 0.353850
vt 0.229960 0.253390
vt 0.222914 0.177557
vt 0.263421 0.133412
vt 0.410709 0.164637
vt 0.245450 0.412877
vt 0.162190 0.314034
vt 0.166120 0.247334
vt 0.215328 0.153292
vt 0.289002 0.068983
vt 0.369915 0.091980
vt 0.180989 0.398335
vt 0.258469 0.456074
vt 0.355671 0.460621
vt 0.102827 0.445210
vt 0.031188 0.336662
vt 0.152143 0.184110
vt 0.243104 0.074414
vt 0.158647 0.516705
vt 0.005952 0.104892
vt 0.209062 0.054597
vt 0.660086 0.174348
vt 0.674835 0.156705
vt 0.762108 0.216854
vt 0.749111 0.235795
vt 0.549275 0.091708
vt 0.559562 0.069459
vt 0.684780 0.133454
vt 0.785744 0.168610
vt 0.793385 0.250669
vt 0.779866 0.272609
vt 0.529436 0.119388
vt 0.637072 0.194257
vt 0.573746 0.027245
vt 0.833430 0.318588
vt 0.926231 0.855111
vt 0.867972 0.255759
vt 0.886595 0.280937
vt 0.869893 0.391347
vt 0.850509 0.399843
vt 0.917365 0.372045
vt 0.926813 0.350106
vt 0.973556 0.414861
vt 0.915490 0.453758
vt 0.989357 0.402729
vt 0.436062 0.431914
vt 0.406808 0.580677
vt 0.417048 0.429786
vt 0.508481 0.354902
vt 0.485778 0.348473
vt 0.417131 0.850607
vt 0.036345 0.867071
vt 0.039815 0.841828
vt 0.129798 0.840589
vt 0.125720 0.864520
vt 0.174104 0.845093
vt 0.621046 0.965352
vt 0.141757 0.769885
vt 0.186050 0.757518
vt 0.268903 0.854580
vt 0.266035 0.875293
vt 0.145019 0.749886
vt 0.188425 0.736334
vt 0.209597 0.770283
vt 0.373152 0.869218
vt 0.373743 0.889396
vt 0.318834 0.680918
vt 0.661451 0.316550
vt 0.676448 0.298021
vt 0.760451 0.375418
vt 0.749112 0.397976
vt 0.581324 0.241803
vt 0.596417 0.223645
vt 0.607748 0.401103
vt 0.722908 0.420816
vt 0.536280 0.343486
vt 0.170635 0.866614
vt 0.674936 0.968328
vt 0.518168 0.936550
vt 0.872249 0.935950
vt 0.766203 0.958249
vt 0.815340 0.330807
vt 0.977806 0.788204
vn 0.297154 0.620269 -0.725925
vn 0.187327 0.255688 -0.948437
vn -0.060277 0.738236 -0.671844
vn -0.002613 0.630485 0.776197
vn 0.030585 0.966149 -0.256166
vn -0.865341 0.465181 0.186526
vn -0.669730 0.286929 0.684933
vn 0.433514 0.663461 0.609824
vn 0.549730 0.810808 -0.200967
vn 0.750995 0.545755 0.371697
vn 0.672613 0.738166 -0.051987
vn 0.422050 0.887869 -0.183199
vn 0.438885 0.831866 0.339674
vn 0.964146 0.264271 0.024149
vn 0.964146 0.264271 0.024149
vn 0.964146 0.264271 0.024149
vn 0.964146 0.264271 0.024149
vn 0.533725 0.323368 -0.781390
vn 0.376138 0.223691 -0.899157
vn 0.151978 0.150794 -0.976813
vn 0.324513 0.365300 -0.872495
vn 0.854975 0.036486 -0.517385
vn 0.850891 0.124545 -0.510366
vn 0.854975 0.036486 -0.517385
vn 0.784072 -0.166629 0.597884
vn 0.784072 -0.166629 0.597884
vn 0.248693 0.099108 0.963499
vn 0.328624 -0.002839 0.944457
vn 0.833628 -0.520953 -0.183501
vn 0.731996 -0.651054 0.200773
vn 0.814053 -0.568533 0.118695
vn 0.852614 -0.508057 -0.122180
vn 0.193414 0.162434 0.967578
vn 0.300595 0.131223 0.944681
vn 0.711937 -0.702156 -0.011094
vn 0.550289 -0.798755 -0.243253
vn 0.390499 -0.920067 -0.031427
vn 0.364477 -0.857142 -0.363957
vn 0.604401 -0.643057 0.470295
vn 0.477744 -0.724502 0.496847
vn 0.831305 -0.411775 0.373328
vn 0.328171 -0.326819 0.886280
vn 0.355057 -0.918216 0.175539
vn 0.041342 -0.897976 -0.438099
vn -0.095524 -0.864624 -0.493255
vn -0.103175 -0.934176 -0.341571
vn -0.359172 -0.738139 0.571092
vn -0.036939 -0.920995 -0.387820
vn 0.298403 -0.889010 -0.347299
vn 0.184581 -0.978291 0.094214
vn -0.678796 -0.440868 0.587258
vn -0.141646 -0.908586 -0.392948
vn -0.277312 -0.776952 0.565194
vn 0.158127 -0.955726 0.248162
vn -0.103826 -0.442152 0.890911
vn -0.772792 -0.041647 -0.633291
vn -0.749525 -0.081657 -0.656921
vn -0.709947 -0.142531 -0.689681
vn -0.709947 -0.142531 -0.689681
vn -0.881659 0.123825 -0.455351
vn -0.768817 -0.007305 -0.639427
vn -0.854676 0.086505 -0.511904
vn -0.881659 0.123824 -0.455351
vn -0.049522 0.036726 -0.998098
vn 0.066468 0.187647 -0.979985
vn -0.065242 0.040500 -0.997047
vn -0.992738 0.119078 0.017075
vn -0.999206 -0.039845 0.000668
vn -0.993516 -0.113475 -0.006975
vn -0.993516 -0.113475 -0.006975
vn -0.809580 -0.063384 0.583577
vn -0.682752 -0.102368 0.723443
vn -0.423890 0.197130 0.884001
vn 0.410029 0.151349 0.899427
vn 0.325429 0.182037 0.927878
vn 0.363295 0.623191 -0.692568
vn 0.568627 0.428737 -0.702031
vn 0.195053 0.291197 0.936568
vn 0.265393 0.188158 0.945602
vn 0.870478 -0.465533 -0.159836
vn 0.587294 -0.772310 -0.242121
vn 0.584462 -0.336467 0.738372
vn 0.674706 -0.738056 0.006711
vn 0.343226 -0.669153 -0.659113
vn -0.712103 -0.315638 0.627122
vn 0.313101 -0.148662 0.938012
vn 0.300009 -0.187457 0.935337
vn 0.114317 -0.126645 -0.985339
vn 0.357914 -0.081325 -0.930206
vn 0.321341 -0.199989 -0.925605
vn 0.862764 -0.412400 -0.292513
vn -0.722151 -0.049366 -0.689972
vn -0.722151 -0.049366 -0.689972
vn 0.842063 0.199466 -0.501143
vn 0.845955 0.182593 0.501019
vn 0.053973 0.378788 0.923908
vn -0.521054 0.782605 -0.340634
vn -0.521054 0.782606 -0.340634
vn 0.358258 0.453224 -0.816235
vn 0.370649 0.319087 0.872240
vn -0.013378 -0.309424 0.950830
vn -0.164654 -0.404375 0.899650
vn 0.324421 -0.850394 -0.414223
vn 0.309506 -0.632114 -0.710378
vn -0.017615 -0.175914 -0.984248
vn -0.416704 -0.513140 0.750363
vn 0.231043 -0.698213 -0.677582
vn -0.013352 -0.090991 -0.995762
vn 0.231043 -0.698213 -0.677583
vn 0.991514 -0.094102 -0.089696
vn 0.991514 -0.094102 -0.089696
vn 0.991514 -0.094102 -0.089696
vn 0.991514 -0.094102 -0.089696
vn -0.783602 -0.021677 -0.620884
vn -0.783602 -0.021677 -0.620884
s 1
g rock_4
usemtl aiStandardSurface1SG
f 1/24/1 49/18/2 50/23/3
f 2/85/4 3/84/5 51/81/6 52/83/7
f 3/107/5 2/108/4 28/104/8 29/103/9
f 6/58/10 7/57/11 62/61/12 61/62/13
s off
f 7/57/14 6/58/15 32/59/16 33/60/17
s 1
f 31/1/18 9/2/19 74/3/20 73/4/21
f 9/2/22 31/1/18 33/5/23 11/6/24
f 10/33/25 32/34/26 34/30/27 12/29/28
f 11/66/29 10/65/30 36/70/31 37/117/32
f 12/29/28 34/30/27 59/31/33 65/32/34
f 14/74/35 15/75/36 37/117/32 36/70/31
f 15/87/36 14/88/35 41/89/37 40/90/38
f 16/77/39 17/76/40 38/73/41
f 17/76/40 16/77/39 43/80/42 42/78/43
f 18/25/44 45/26/45 44/21/46
f 19/95/47 20/96/48 69/112/49 70/91/50
f 20/96/48 19/95/47 47/100/51 46/101/52
f 21/99/53 67/94/54 68/98/55
s 11
f 22/22/56 23/17/57 44/21/58 45/26/59
s 12
f 50/23/60 22/22/61 25/28/62 51/81/63
s 1
f 23/17/64 49/18/2 55/10/65 56/9/66
f 24/82/67 25/28/68 46/27/69 47/86/70
f 52/50/7 24/51/71 26/43/72 53/42/73
f 53/42/73 26/43/72 54/38/74 64/37/75
f 29/103/9 28/104/8 61/105/13 62/106/12
f 40/90/38 41/89/37 70/91/50 69/112/49
f 42/93/43 43/97/42 68/98/55 67/94/54
f 64/37/75 54/38/74 65/32/34 59/31/33
f 56/9/66 55/10/65 73/4/21 74/3/20
f 60/67/76 62/61/12 7/57/11 5/68/77
f 61/62/13 63/69/78 8/63/79 6/58/10
f 35/7/80 37/71/32 15/115/36 13/15/81
f 36/70/31 38/73/82 17/76/83 14/74/35
f 13/15/81 15/116/36 40/113/38 39/14/84
f 14/74/35 17/76/83 42/78/43 41/79/37
f 18/25/44 20/114/48 46/27/52 45/26/45
f 19/95/47 21/99/53 48/102/85 47/100/51
f 38/40/82 57/39/86 43/45/42 16/46/87
f 39/14/84 72/8/88 35/7/89 13/15/90
f 9/2/91 11/118/29 37/71/32 35/7/80
f 10/65/30 12/72/28 38/73/82 36/70/31
f 65/32/34 57/39/86 38/40/82 12/29/28
f 47/55/51 48/52/85 26/43/72 24/51/71
s 12
f 45/26/92 46/27/93 25/28/62 22/22/61
s 1
f 35/7/89 72/8/88 74/3/20 9/2/19
f 5/12/77 7/13/94 33/5/23 31/1/18
f 6/58/10 8/63/79 34/64/27 32/59/95
f 63/35/78 59/31/33 34/30/27 8/36/79
f 52/50/7 53/42/73 4/47/96 2/54/4
f 50/23/97 51/81/98 3/84/5 1/24/1
f 31/1/18 73/4/21 60/11/76 5/12/77
f 27/109/99 29/103/9 62/106/12 60/110/76
f 28/48/8 30/41/100 63/35/78 61/49/13
f 30/41/100 64/37/75 59/31/33 63/35/78
f 54/38/101 66/44/102 57/39/86 65/32/34
f 43/45/42 57/39/86 66/44/102 68/53/55
f 41/89/37 42/93/43 67/94/54 70/91/50
f 39/14/84 40/113/38 69/92/49 71/20/103
f 71/20/103 58/16/104 72/8/88 39/14/84
f 74/3/20 72/8/88 58/16/105 56/9/66
f 60/11/76 73/4/21 55/10/65 27/19/99
f 1/111/1 3/107/5 29/103/9 27/109/99
f 2/54/4 4/47/96 30/41/100 28/48/8
f 4/47/96 53/42/73 64/37/75 30/41/100
f 26/43/72 48/52/85 66/44/102 54/38/101
f 68/53/55 66/44/102 48/52/85 21/56/106
f 70/91/50 67/94/54 21/99/53 19/95/47
f 71/20/103 69/92/49 20/114/48 18/25/44
f 18/25/107 44/21/108 58/16/105 71/20/109
f 56/9/66 58/16/105 44/21/108 23/17/64
f 27/19/99 55/10/65 49/18/2 1/24/1
s off
f 32/59/110 10/65/111 11/66/112 33/60/113
s 11
f 22/22/56 50/23/114 49/18/115 23/17/57
s 1
f 24/82/67 52/83/7 51/81/6 25/28/68
