# This file uses centimeters as units for non-parametric coordinates.

mtllib Rock 2.mtl
g default
v -1.229541 -1.439380 2.273142
v -1.233540 -1.290678 2.391501
v -0.087621 -1.441540 3.276131
v -0.075329 -1.295782 3.414998
v 2.540223 -1.293283 2.652026
v 2.530799 -1.442213 2.557583
v -1.240587 -0.949988 2.330668
v -0.081499 -0.897760 3.318122
v 2.487993 -0.812615 2.591439
v -1.416688 -0.159537 1.566987
v -0.087541 -0.148200 2.199554
v 1.700671 0.132443 1.572893
v -1.307307 0.704131 0.886572
v -0.070711 0.661642 2.111960
v 1.020404 0.662335 1.821091
v -1.278168 0.894422 0.399159
v -0.091271 1.011289 0.718860
v 0.805789 1.022985 0.314252
v -1.295312 2.055005 -0.356775
v -0.081524 2.576718 -0.120821
v 0.495636 2.615209 -0.112497
v -1.319052 2.477045 -1.352923
v -0.105395 2.517070 -2.221732
v 0.453497 2.525707 -1.366403
v -1.645661 0.687651 -2.040795
v -0.091292 0.688499 -2.938199
v 1.258348 0.693189 -2.056726
v -1.709323 -0.169140 -2.062120
v -0.087387 -0.145279 -3.037584
v 1.705461 0.126990 -2.071982
v -2.149442 -0.663681 -2.182914
v -0.089946 -0.411719 -3.473607
v 2.464164 -0.865273 -2.619099
v -2.454002 -1.239568 -2.541848
v -2.483227 -1.396306 -2.484895
v -0.088879 -1.433459 -3.481171
v -0.088012 -1.288844 -3.590955
v 2.534702 -2.612105 -2.518002
v 2.536659 -2.459455 -2.657251
v -2.616595 -1.290951 -0.090071
v -2.527826 -1.441382 -0.088184
v -0.083957 -2.557440 -0.087807
v 2.301501 -2.671836 -0.089785
v 1.837808 0.218688 -0.340115
v 1.457409 0.699487 -0.345332
v -2.473107 -0.518824 -0.119670
v -1.821636 -0.139056 -0.320674
v -1.733032 0.688449 -0.345913
v 2.998098 -2.771826 -1.911439
v 3.115514 -2.689238 -2.010391
v 2.546331 -2.463068 -0.782732
v 3.609194 -0.753116 -2.016537
v 3.572479 -0.312290 -0.108036
v 3.802034 -1.452442 1.997601
v 3.780954 -1.607091 1.895341
v 3.596345 -0.673876 1.989825
v 2.822145 0.214253 -1.652231
v 2.904132 0.267710 -0.277753
v 2.770793 0.261731 1.254773
vt 0.716872 0.945517
vt 0.714095 0.938363
vt 0.817810 0.954863
vt 0.816566 0.960978
vt 0.646456 0.937502
vt 0.643147 0.928787
vt 0.718361 0.925033
vt 0.819255 0.927137
vt 0.907042 0.948913
vt 0.905162 0.954883
vt 0.649412 0.910748
vt 0.751318 0.899861
vt 0.824662 0.900062
vt 0.893516 0.924945
vt 0.776420 0.865957
vt 0.825370 0.869057
vt 0.889826 0.900011
vt 0.699440 0.878373
vt 0.711902 0.849891
vt 0.794109 0.856660
vt 0.826612 0.815745
vt 0.886576 0.869060
vt 0.864532 0.802013
vt 0.949732 0.853526
vt 0.958609 0.883601
vt 0.918117 0.787999
vt 0.315451 0.752479
vt 0.235054 0.749221
vt 0.252210 0.614846
vt 0.377948 0.605977
vt 0.227850 0.740675
vt 0.284625 0.537943
vt 0.372335 0.548257
vt 0.504029 0.694386
vt 0.512052 0.633600
vt 0.172156 0.726680
vt 0.169525 0.624535
vt 0.470913 0.550452
vt 0.511742 0.685254
vt 0.462546 0.297303
vt 0.469215 0.188480
vt 0.595114 0.234238
vt 0.597910 0.313755
vt 0.423552 0.187860
vt 0.612758 0.172033
vt 0.513869 0.096757
vt 0.453385 0.437007
vt 0.497800 0.348495
vt 0.403229 0.410327
vt 0.424296 0.290556
vt 0.812892 0.391961
vt 0.423751 0.297930
vt 0.899256 0.263809
vt 0.894486 0.360391
vt 0.817382 0.140483
vt 0.889245 0.161442
vt 0.875278 0.462649
vt 0.957460 0.425399
vt 0.869187 0.047679
vt 0.945570 0.083636
vt 0.695924 0.449606
vt 0.690387 0.485953
vt 0.694991 0.007765
vt 0.696633 0.098112
vt 0.581172 0.391563
vt 0.543276 0.415547
vt 0.608058 0.062703
vt 0.605153 0.138182
vt 0.088480 0.998008
vt 0.001895 0.910631
vt 0.102584 0.911159
vt 0.124673 0.993994
vt 0.021594 0.834479
vt 0.129618 0.848767
vt 0.353104 0.992907
vt 0.370384 0.911335
vt 0.499379 0.952167
vt 0.422167 1.011219
vt 0.376936 0.876164
vt 0.456846 0.901022
vt 0.045338 0.087431
vt 0.181745 0.030673
vt 0.184825 0.228234
vt 0.036717 0.223143
vt 0.336428 0.102933
vt 0.313931 0.236286
vt 0.163293 0.421883
vt 0.102334 0.361722
vt 0.180880 0.020468
vt 0.335914 0.091357
vt 0.365074 0.135851
vt 0.336313 0.200443
vt 0.313716 0.398138
vt 0.371679 0.128160
vt 0.387661 0.365756
vt 0.163639 0.433197
vt 0.314508 0.408044
vt 0.389324 0.376230
vt 0.763179 0.166067
vt 0.689104 0.151996
vt 0.270915 0.988164
vt 0.266590 0.915183
vt 0.277178 0.857882
vt 0.587251 0.681451
vt 0.587975 0.670209
vt 0.754462 0.653813
vt 0.752817 0.665321
vt 0.590949 0.621712
vt 0.748586 0.595865
vt 0.931905 0.604317
vt 0.947742 0.710036
vt 0.067118 0.774799
vt 0.067294 0.589985
vt 0.099441 0.592068
vt 0.094873 0.773284
vt 0.059471 0.500595
vt 0.108624 0.512531
vt 0.685904 0.399983
vt 0.775509 0.367343
vt 0.826217 0.267630
vn -0.744773 -0.451149 0.491709
vn -0.677458 -0.487958 0.550408
vn -0.924082 -0.321647 0.206435
vn -0.906761 -0.340452 0.248749
vn -0.097563 -0.633474 0.767589
vn 0.000128 -0.634701 0.772758
vn 0.262184 -0.586659 0.766219
vn 0.248556 -0.595313 0.764083
vn 0.336812 -0.535607 0.774392
vn 0.336812 -0.535607 0.774392
vn -0.109463 0.678151 0.726725
vn 0.248287 0.840071 0.482321
vn 0.300378 0.034480 0.953197
vn 0.300378 0.034480 0.953197
vn 0.297517 0.954701 0.005483
vn 0.821234 0.569124 0.040897
vn 0.391774 0.891762 0.226436
vn -0.316828 0.478491 0.818942
vn -0.295164 0.679476 0.671708
vn -0.087546 0.794802 0.600521
vn -0.075318 0.452583 0.888536
vn 0.780729 0.617950 -0.092731
vn 0.759105 0.439689 -0.480035
vn -0.979020 -0.198550 -0.045787
vn -0.979021 -0.198550 -0.045787
vn -0.364228 -0.422766 -0.829824
vn -0.364228 -0.422766 -0.829824
vn -0.197651 -0.540860 -0.817560
vn -0.163064 -0.561935 -0.810949
vn 0.026971 -0.658014 -0.752522
vn 0.134265 -0.697107 -0.704283
vn 0.379034 -0.746334 -0.547100
vn 0.379034 -0.746334 -0.547100
vn 0.704165 -0.177367 0.687527
vn 0.704164 -0.177367 0.687527
vn 0.704164 -0.177367 0.687527
vn 0.838387 0.216496 -0.500236
vn 0.838388 0.216496 -0.500236
vn 0.838388 0.216496 -0.500236
vn -0.812118 0.147706 0.564489
vn -0.649957 0.147530 0.745514
vn -0.033275 0.637531 0.769706
vn -0.683136 0.452434 0.573262
vn 0.268324 0.187174 0.944970
vn 0.357935 0.168201 0.918472
vn 0.221758 0.619474 0.753044
vn -0.682823 0.521493 0.511661
vn -0.278199 0.801267 0.529694
vn -0.681424 0.591969 0.430388
vn 0.426037 0.714124 0.555445
vn 0.798746 0.518199 0.305737
vn -0.194867 0.973833 0.116945
vn -0.128270 0.989971 0.059190
vn -0.154086 0.984688 0.081529
vn -0.194867 0.973833 0.116945
vn -0.007795 0.998990 -0.044260
vn -0.007795 0.998990 -0.044260
vn -0.790613 0.338705 -0.510108
vn -0.507639 0.349518 -0.787489
vn -0.511994 0.252352 -0.821085
vn -0.788975 0.252085 -0.560331
vn 0.615668 0.398861 -0.679605
vn 0.828164 0.448846 -0.335680
vn 0.568862 0.335235 -0.751008
vn 0.001263 0.548410 -0.836208
vn -0.738230 0.473925 -0.480012
vn 0.279602 0.718623 -0.636714
vn 0.061255 0.403481 -0.912935
vn -0.718665 0.524155 -0.456927
vn 0.402893 0.251739 -0.879946
vn -0.448698 0.361375 -0.817361
vn -0.448698 0.361375 -0.817361
vn 0.463187 0.006916 -0.886233
vn 0.344948 0.069288 -0.936061
vn -0.264854 -0.944861 -0.192589
vn -0.236938 -0.951201 -0.197678
vn -0.185108 -0.981393 0.051020
vn -0.301822 -0.952480 -0.041048
vn -0.199210 -0.960602 -0.193802
vn -0.015070 -0.991479 0.129394
vn -0.089234 -0.937979 0.335013
vn -0.352257 -0.900365 0.255457
vn 0.077013 -0.933794 0.349424
vn 0.939638 -0.331899 0.083211
vn 0.892542 -0.383000 0.238074
vn 0.892542 -0.383000 0.238074
vn 0.958879 -0.277828 -0.057990
vn 0.951934 -0.202421 -0.229887
vn 0.951934 -0.202421 -0.229887
vn 0.699862 0.714261 0.004940
vn 0.614500 0.421779 -0.666702
vn 0.358786 0.869378 -0.339785
vn 0.370050 0.928908 -0.013889
vn 0.455779 0.659495 0.597773
vn 0.304193 0.914566 0.266527
vn -0.935261 0.337173 -0.107706
vn -0.948464 0.254519 0.188775
vn -0.868357 0.463799 0.175634
vn -0.881854 0.458557 0.109812
vn -0.971585 0.213616 0.101937
vn -0.966934 0.249466 0.052955
vn 0.079127 -0.993253 0.084777
vn 0.079127 -0.993253 0.084777
vn 0.582924 -0.062201 -0.810143
vn 0.282186 -0.917102 0.281594
vn 0.282186 -0.917102 0.281594
vn 0.464426 0.142577 0.874060
vn -0.832762 0.378913 0.403649
s 1
g rock_2
usemtl aiStandardSurface1SG
f 1/1/1 2/2/2 40/3/3 41/4/4
f 2/2/2 1/1/1 3/5/5 4/6/6
f 4/96/6 3/87/5 6/93/7 5/97/8
f 5/97/8 6/93/7 55/95/9 54/98/10
s 2
f 11/64/11 12/55/12 15/99/13 14/100/14
f 12/49/12 44/50/15 45/40/16 15/47/17
f 19/75/18 16/101/19 17/102/20 20/76/21
f 44/52/15 30/44/22 27/41/23 45/40/16
s 1
f 34/9/24 35/10/25 41/4/4 40/3/3
s 5
f 35/104/26 34/105/27 37/106/28 36/107/29
f 36/82/29 37/89/28 39/90/30 38/85/31
f 38/85/31 39/90/30 50/94/32 49/91/33
s off
f 49/28/34 50/31/35 52/29/36
f 54/39/37 55/34/38 56/35/39
s 2
f 2/2/40 4/6/41 8/11/42 7/7/43
f 4/112/44 5/113/45 9/114/46 8/115/42
f 7/67/43 8/63/42 11/64/11 10/68/47
f 8/63/42 9/59/46 12/55/12 11/64/11
f 10/12/47 11/18/11 14/19/48 13/15/49
f 13/69/49 14/70/48 17/71/20 16/72/19
f 14/70/48 15/73/17 18/74/50 17/71/20
f 17/102/20 18/103/50 21/79/51 20/76/21
s 8
f 19/75/52 20/76/53 23/77/54 22/78/55
f 20/76/53 21/79/56 24/80/57 23/77/54
s 2
f 22/23/58 23/26/59 26/24/60 25/22/61
f 23/45/62 24/42/63 27/41/23 26/46/64
f 25/22/61 26/24/60 29/25/65 28/17/66
f 26/118/64 27/119/23 30/51/67 29/61/65
f 28/65/66 29/61/65 32/62/68 31/66/69
f 29/61/65 30/51/67 33/57/70 32/62/68
f 31/108/69 32/109/68 37/106/71 34/105/72
f 32/109/68 33/110/70 39/111/73 37/106/74
s 10
f 35/81/75 36/82/76 42/83/77 41/84/78
f 36/82/76 38/85/79 43/86/80 42/83/77
f 41/84/78 42/83/77 3/87/81 1/88/82
f 42/83/77 43/86/80 6/93/83 3/87/81
s 11
f 51/27/84 49/28/85 52/29/86 53/30/87
f 55/34/88 51/27/84 53/30/87 56/35/89
s 2
f 53/30/90 52/29/91 57/32/92 58/33/93
f 56/35/94 53/30/90 58/33/93 59/38/95
f 45/40/16 27/41/23 24/42/63 21/43/51
f 34/9/96 40/3/97 46/8/98 31/14/69
f 40/3/97 2/2/40 7/7/43 46/8/98
f 31/14/69 46/8/98 47/13/99 28/17/66
f 46/8/98 7/7/43 10/12/47 47/13/99
f 28/17/66 47/13/99 48/16/100 25/22/61
f 47/13/99 10/12/47 13/15/49 48/16/100
f 25/22/61 48/16/100 19/21/101 22/23/58
s 10
f 43/86/80 38/85/79 49/91/102 51/92/103
s 2
f 39/36/73 33/37/70 52/29/91 50/31/104
s 10
f 6/93/83 43/86/80 51/92/105 55/95/106
s 2
f 9/114/46 5/113/45 54/116/107 56/117/94
f 33/57/70 30/51/67 57/54/92 52/58/91
f 30/51/67 44/120/15 58/53/93 57/54/92
f 44/120/15 12/55/12 59/56/95 58/53/93
f 12/55/12 9/59/46 56/60/94 59/56/95
f 16/20/108 19/21/101 48/16/100 13/15/49
f 18/48/50 15/47/17 45/40/16 21/43/51
