# File produced by Open Asset Import Library (http://www.assimp.sf.net)
# (assimp v3.1.206520482)

adobe_mdllib floor rock 3.mdl

# 44 vertex positions
v 1.14111 0.353489 1.29689
v -0.573335 0.553785 1.06656
v -0.140773 -0.135678 2.19947
v 1.06997 0.147933 2.13994
v 0.558162 -0.830941 1.32603
v -0.105039 -0.737465 1.84861
v -1.3009 -0.98376 1.36034
v -1.2953 -1.10072 0.437561
v -2.02234 -1.07885 1.31881
v -2.30478 -1.03681 0.35914
v 0.908646 -0.777397 0.435247
v -1.46902 -1.35348 -0.013065
v -2.84133 -1.35002 -0.068671
v 1.02444 -1.00124 -0.435844
v -1.86784 -1.32061 -0.524318
v -2.14095 -1.17483 -0.461815
v 2.04673 -0.551492 -1.33173
v -1.27523 -0.440274 -2.13168
v -3.22581 -0.71387 -0.961869
v 2.03713 0.313245 -0.96578
v -1.33129 0.469404 -1.51493
v -2.39664 -0.020706 -1.06175
v 1.30306 0.608641 -0.549329
v -1.38279 0.43662 -1.07839
v -1.75297 0.43776 -0.808507
v 1.47857 0.552437 0.301226
v -1.4795 0.562518 -0.128917
v -2.42517 0.285727 -0.082546
v -2.11918 0.283579 0.305923
v -1.63449 0.025048 1.35543
v -0.958303 -0.598865 1.73101
v -1.77657 -0.40616 1.5166
v 1.07062 -0.540989 2.82169
v 1.15153 -0.421098 2.7408
v -1.15526 -0.715119 1.84887
v -2.01122 -0.590047 1.74017
v -2.2179 -0.041342 0.57826
v -2.32058 -0.80593 0.341258
v -2.84332 -0.063214 -0.33042
v -3.00604 -1.14539 -0.414695
v 2.00713 -0.048298 0.798875
v 1.36285 -0.744669 1.67921
v 2.45481 -0.237842 -0.553118
v 2.02975 -0.481846 0.040782

# 76 UV coordinates
vt 0.433747 0.848697 0
vt 0.63476 0.847304 0
vt 0.565175 0.992358 0
vt 0.423356 0.95144 0
vt 0.292482 0.309739 0
vt 0.26698 0.232368 0
vt 0.351327 0.137463 0
vt 0.435492 0.167841 0
vt 0.379123 0.072175 0
vt 0.476614 0.078588 0
vt 0.362479 0.371829 0
vt 0.482137 0.16512 0
vt 0.53321 0.041486 0
vt 0.438015 0.409791 0
vt 0.542414 0.145898 0
vt 0.546106 0.119895 0
vt 0.486716 0.536361 0
vt 0.671517 0.259967 0
vt 0.629137 0.040655 0
vt 0.099181 0.520938 0
vt 0.013425 0.51654 0
vt 0.041326 0.193666 0
vt 0.132803 0.193815 0
vt 0.031675 0.001992 0
vt 0.093594 0.087028 0
vt 0.449845 0.629415 0
vt 0.373034 0.558685 0
vt 0.771831 0.567033 0
vt 0.769534 0.618685 0
vt 0.903769 0.637594 0
vt 0.807353 0.657522 0
vt 0.413841 0.724301 0
vt 0.760982 0.730174 0
vt 0.873607 0.756717 0
vt 0.830169 0.797746 0
vt 0.756395 0.918223 0
vt 0.129658 0.597622 0
vt 0.18764 0.522207 0
vt 0.171572 0.678108 0
vt 0.130154 0.671111 0
vt 0.138793 0.308919 0
vt 0.124222 0.301935 0
vt 0.277461 0.132064 0
vt 0.30217 0.136479 0
vt 0.108882 0.609317 0
vt 0.10407 0.668501 0
vt 0.058836 0.624902 0
vt 0.058231 0.693341 0
vt 0.150744 0.770728 0
vt 0.188058 0.790586 0
vt 0.07651 0.794251 0
vt 0.05449 0.790501 0
vt 0.144765 0.877347 0
vt 0.184641 0.836714 0
vt 0.04101 0.890496 0
vt 0.020825 0.854299 0
vt 0.941366 0.733252 0
vt 0.081866 0.946824 0
vt 0.185168 0.948294 0
vt 0.570822 0.03942 0
vt 0.769699 0.198301 0
vt 0.785692 0.115251 0
vt 0.839021 0.054237 0
vt 0.816242 0.244929 0
vt 0.849847 0.045865 0
vt 0.876306 0.156322 0
vt 0.233319 0.372205 0
vt 0.756637 0.296132 0
vt 0.843171 0.375832 0
vt 0.86178 0.317007 0
vt 0.361628 0.489632 0
vt 0.753689 0.379349 0
vt 0.78872 0.418509 0
vt 0.874476 0.450532 0
vt 0.185889 0.392899 0
vt 0.251475 0.429558 0

# 63 vertex normals
vn 0.001476 0.976675 0.214716
vn -0.087075 0.960036 0.265986
vn -0.215703 0.707594 0.672891
vn -0.139355 0.778474 0.612012
vn 0.108127 -0.986411 0.123701
vn 0.037046 -0.968854 0.244845
vn 0.029845 -0.967829 0.249833
vn 0.087609 -0.978039 0.189115
vn -0.375015 -0.880196 0.290894
vn -0.40114 -0.775272 0.487893
vn 0.207658 -0.975028 0.078732
vn 0.111009 -0.977472 0.179515
vn -0.484158 -0.842743 0.235318
vn 0.283694 -0.95081 0.12441
vn 0.079464 -0.996784 -0.010345
vn -0.088478 -0.963869 -0.251252
vn 0.210896 -0.218846 -0.952696
vn 0.090441 -0.902461 -0.42117
vn -0.011136 -0.89417 -0.447589
vn 0.042439 -0.422452 -0.905391
vn -0.220966 -0.845329 -0.486408
vn -0.440079 -0.465243 -0.768036
vn 0.173948 0.590937 -0.787741
vn -0.015227 0.674161 -0.738427
vn -0.50752 0.509807 -0.694636
vn 0.043299 0.965353 -0.257329
vn -0.077103 0.965733 -0.247819
vn -0.405451 0.891499 -0.202088
vn 0.006748 0.999597 0.027565
vn -0.022257 0.999041 -0.037707
vn -0.043241 0.99814 -0.042979
vn -0.080785 0.996075 0.036164
vn -0.322104 0.934292 -0.152797
vn -0.488961 0.869804 0.066014
vn -0.38436 0.849457 0.361512
vn -0.367017 0.789493 0.491933
vn -0.353017 0.425174 0.83343
vn -0.398845 0.115374 0.909731
vn -0.651907 0.382402 0.654817
vn -0.355728 0.616131 0.702737
vn -0.315512 0.51538 0.796765
vn -0.098982 -0.66879 0.736833
vn -0.724016 -0.124095 0.678528
vn -0.811868 0.303342 0.498853
vn -0.857574 0.054936 0.511419
vn -0.858654 0.438361 0.265617
vn -0.903092 -0.429389 -0.007049
vn -0.666101 0.726961 -0.166844
vn -0.953055 0.263961 -0.148362
vn -0.058693 -0.824891 -0.562236
vn 0.647347 0.696025 0.31063
vn 0.649697 0.671833 0.355716
vn 0.925901 -0.084317 0.368236
vn 0.887425 0.318799 0.332932
vn 0.860288 -0.414043 0.297444
vn 0.175558 -0.979611 0.097686
vn 0.016509 -0.98263 0.184839
vn 0.637275 0.73972 0.216089
vn 0.998839 -0.046649 -0.012047
vn 0.602209 -0.783337 0.154034
vn 0.588952 0.800858 0.108453
vn 0.610025 -0.792323 -0.009674
vn 0.871279 -0.388221 -0.300264

# Mesh 'g Floor_rock_3_Floor_rock_3' with 84 faces
g g Floor_rock_3_Floor_rock_3
usemtl MATERIAL_AISTANDARDSURFACE1SG
f 1/1/1 2/2/2 3/3/3
f 3/3/3 4/4/4 1/1/1
f 5/5/5 6/6/6 7/7/7
f 7/7/7 8/8/8 5/5/5
f 8/8/8 7/7/7 9/9/9
f 9/9/9 10/10/10 8/8/8
f 11/11/11 5/5/5 8/8/8
f 8/8/8 12/12/12 11/11/11
f 12/12/12 8/8/8 10/10/10
f 10/10/10 13/13/13 12/12/12
f 14/14/14 11/11/11 12/12/12
f 12/12/12 15/15/15 14/14/14
f 15/15/15 12/12/12 13/13/16
f 13/13/16 16/16/16 15/15/15
f 17/17/17 14/14/18 15/15/19
f 15/15/19 18/18/20 17/17/17
f 18/18/20 15/15/19 16/16/21
f 16/16/21 19/19/22 18/18/20
f 20/20/23 17/21/17 18/22/20
f 18/22/20 21/23/24 20/20/23
f 21/23/24 18/22/20 19/24/22
f 19/24/22 22/25/25 21/23/24
f 23/26/26 20/27/23 21/28/24
f 21/28/24 24/29/27 23/26/26
f 24/29/27 21/28/24 22/30/25
f 22/30/25 25/31/28 24/29/27
f 26/32/29 23/26/30 24/29/31
f 24/29/31 27/33/32 26/32/29
f 27/33/32 24/29/31 25/31/33
f 25/31/33 28/34/34 27/33/32
f 1/1/1 26/32/29 27/33/32
f 27/33/32 2/2/2 1/1/1
f 2/2/2 27/33/32 28/34/34
f 28/34/34 29/35/35 2/2/2
f 3/3/3 2/2/2 29/35/35
f 29/35/35 30/36/36 3/3/3
f 31/37/37 3/38/3 30/39/38
f 30/39/38 32/40/39 31/37/37
f 33/41/40 34/42/41 31/43/37
f 31/43/37 35/44/42 33/41/40
f 35/45/42 31/37/37 32/40/39
f 32/40/39 36/46/43 35/45/42
f 6/6/6 33/41/40 35/44/42
f 35/44/42 7/7/7 6/6/6
f 7/47/7 35/45/42 36/46/43
f 36/46/43 9/48/9 7/47/7
f 37/49/44 32/40/39 30/39/36
f 30/39/36 29/50/35 37/49/44
f 38/51/45 36/46/43 32/40/39
f 32/40/39 37/49/44 38/51/45
f 10/52/10 9/48/9 36/46/43
f 36/46/43 38/51/45 10/52/10
f 39/53/46 37/49/44 29/50/35
f 29/50/35 28/54/34 39/53/46
f 40/55/47 38/51/45 37/49/44
f 37/49/44 39/53/46 40/55/47
f 13/56/13 10/52/10 38/51/45
f 38/51/45 40/55/47 13/56/13
f 22/30/48 39/57/46 28/34/34
f 28/34/34 25/31/33 22/30/48
f 19/58/49 40/55/47 39/53/46
f 39/53/46 22/59/48 19/58/49
f 16/16/50 13/13/13 40/60/47
f 40/60/47 19/19/49 16/16/50
f 1/61/51 4/62/52 34/63/53
f 34/63/53 41/64/54 1/61/51
f 41/64/54 34/63/53 33/65/55
f 33/65/55 42/66/55 41/64/54
f 42/67/56 33/41/57 6/6/57
f 6/6/57 5/5/5 42/67/56
f 26/68/58 1/61/51 41/64/54
f 41/64/54 43/69/59 26/68/58
f 43/69/59 41/64/54 42/66/56
f 42/66/56 44/70/60 43/69/59
f 44/71/60 42/67/56 5/5/5
f 5/5/5 11/11/11 44/71/60
f 23/72/61 26/68/61 43/69/61
f 43/69/61 20/73/61 23/72/61
f 43/69/59 44/70/60 17/74/62
f 43/69/59 17/74/62 20/73/63
f 17/17/62 44/71/60 11/11/11
f 11/11/11 14/14/14 17/17/62
f 34/75/41 4/76/4 3/38/3
f 3/38/3 31/37/37 34/75/41

